<ttFont>
    <TTGlyph name="A" xMin="117" yMin="0" xMax="1264" yMax="1434">
      <contour>
        <pt x="977" y="573" on="1"/>
        <pt x="977" y="860" on="1"/>
        <pt x="977" y="919" on="0"/>
        <pt x="932" y="1024" on="0"/>
        <pt x="854" y="1102" on="0"/>
        <pt x="749" y="1147" on="0"/>
        <pt x="690" y="1147" on="1"/>
        <pt x="631" y="1147" on="0"/>
        <pt x="526" y="1102" on="0"/>
        <pt x="448" y="1024" on="0"/>
        <pt x="403" y="919" on="0"/>
        <pt x="403" y="860" on="1"/>
        <pt x="403" y="573" on="1"/>
      </contour>
      <contour>
        <pt x="1264" y="0" on="1"/>
        <pt x="977" y="0" on="1"/>
        <pt x="977" y="287" on="1"/>
        <pt x="403" y="287" on="1"/>
        <pt x="403" y="0" on="1"/>
        <pt x="117" y="0" on="1"/>
        <pt x="117" y="860" on="1"/>
        <pt x="117" y="979" on="0"/>
        <pt x="207" y="1188" on="0"/>
        <pt x="362" y="1344" on="0"/>
        <pt x="571" y="1434" on="0"/>
        <pt x="690" y="1434" on="1"/>
        <pt x="809" y="1434" on="0"/>
        <pt x="1018" y="1344" on="0"/>
        <pt x="1174" y="1188" on="0"/>
        <pt x="1264" y="979" on="0"/>
        <pt x="1264" y="860" on="1"/>
      </contour>
    </TTGlyph>
    <TTGlyph name="AE" xMin="117" yMin="0" xMax="1958" yMax="1434">
      <contour>
        <pt x="1958" y="0" on="1"/>
        <pt x="975" y="0" on="1"/>
        <pt x="975" y="287" on="1"/>
        <pt x="403" y="287" on="1"/>
        <pt x="403" y="0" on="1"/>
        <pt x="117" y="0" on="1"/>
        <pt x="117" y="860" on="1"/>
        <pt x="117" y="979" on="0"/>
        <pt x="207" y="1188" on="0"/>
        <pt x="362" y="1344" on="0"/>
        <pt x="571" y="1434" on="0"/>
        <pt x="690" y="1434" on="1"/>
        <pt x="1958" y="1434" on="1"/>
        <pt x="1958" y="1147" on="1"/>
        <pt x="1262" y="1147" on="1"/>
        <pt x="1264" y="860" on="1"/>
        <pt x="1733" y="860" on="1"/>
        <pt x="1733" y="573" on="1"/>
        <pt x="1264" y="573" on="1"/>
        <pt x="1264" y="287" on="1"/>
        <pt x="1958" y="287" on="1"/>
      </contour>
      <contour>
        <pt x="975" y="573" on="1"/>
        <pt x="975" y="1147" on="1"/>
        <pt x="690" y="1147" on="1"/>
        <pt x="631" y="1147" on="0"/>
        <pt x="526" y="1102" on="0"/>
        <pt x="448" y="1024" on="0"/>
        <pt x="403" y="919" on="0"/>
        <pt x="403" y="860" on="1"/>
        <pt x="403" y="573" on="1"/>
      </contour>
    </TTGlyph>
    <TTGlyph name="AEacute" xMin="117" yMin="0" xMax="1958" yMax="1942">
      <component glyphName="AE" x="0" y="0" flags="0x204"/>
      <component glyphName="acute" x="1010" y="510" flags="0x4"/>
    </TTGlyph>
    <TTGlyph name="Aacute" xMin="117" yMin="0" xMax="1264" yMax="1944">
      <component glyphName="A" x="0" y="0" flags="0x204"/>
      <component glyphName="acute" x="580" y="512" flags="0x4"/>
    </TTGlyph>
    <TTGlyph name="Abreve" xMin="117" yMin="0" xMax="1264" yMax="1805">
      <component glyphName="A" x="0" y="0" flags="0x204"/>
      <component glyphName="breve" x="451" y="416" flags="0x4"/>
    </TTGlyph>
    <TTGlyph name="Acircumflex" xMin="117" yMin="0" xMax="1264" yMax="1894">
      <component glyphName="A" x="0" y="0" flags="0x204"/>
      <component glyphName="circumflex" x="416" y="469" flags="0x4"/>
    </TTGlyph>
    <TTGlyph name="Adieresis" xMin="117" yMin="0" xMax="1264" yMax="1747">
      <component glyphName="A" x="0" y="0" flags="0x204"/>
      <component glyphName="dieresis" x="381" y="408" flags="0x4"/>
    </TTGlyph>
    <TTGlyph name="Agrave" xMin="117" yMin="0" xMax="1264" yMax="1944">
      <component glyphName="A" x="0" y="0" flags="0x204"/>
      <component glyphName="grave" x="328" y="512" flags="0x4"/>
    </TTGlyph>
    <TTGlyph name="Amacron" xMin="117" yMin="0" xMax="1264" yMax="1725">
      <component glyphName="A" x="0" y="0" flags="0x204"/>
      <component glyphName="macron" x="436" y="418" flags="0x4"/>
    </TTGlyph>
    <TTGlyph name="Aogonek" xMin="117" yMin="-365" xMax="1346" yMax="1434">
      <contour>
        <pt x="1108" y="-365" on="1"/>
        <pt x="1079" y="-365" on="0"/>
        <pt x="1009" y="-341" on="0"/>
        <pt x="949" y="-295" on="0"/>
        <pt x="909" y="-225" on="0"/>
        <pt x="909" y="-180" on="1"/>
        <pt x="909" y="-127" on="0"/>
        <pt x="972" y="-37" on="0"/>
        <pt x="1016" y="0" on="1"/>
        <pt x="977" y="0" on="1"/>
        <pt x="977" y="287" on="1"/>
        <pt x="403" y="287" on="1"/>
        <pt x="403" y="0" on="1"/>
        <pt x="117" y="0" on="1"/>
        <pt x="117" y="860" on="1"/>
        <pt x="117" y="979" on="0"/>
        <pt x="207" y="1188" on="0"/>
        <pt x="362" y="1344" on="0"/>
        <pt x="571" y="1434" on="0"/>
        <pt x="690" y="1434" on="1"/>
        <pt x="809" y="1434" on="0"/>
        <pt x="1018" y="1344" on="0"/>
        <pt x="1174" y="1188" on="0"/>
        <pt x="1264" y="979" on="0"/>
        <pt x="1264" y="860" on="1"/>
        <pt x="1264" y="0" on="1"/>
        <pt x="1171" y="0" on="1"/>
        <pt x="1157" y="-17" on="0"/>
        <pt x="1132" y="-54" on="0"/>
        <pt x="1112" y="-90" on="0"/>
        <pt x="1100" y="-123" on="0"/>
        <pt x="1100" y="-135" on="1"/>
        <pt x="1100" y="-151" on="0"/>
        <pt x="1120" y="-176" on="0"/>
        <pt x="1137" y="-176" on="1"/>
        <pt x="1158" y="-176" on="0"/>
        <pt x="1196" y="-147" on="0"/>
        <pt x="1204" y="-127" on="1"/>
        <pt x="1346" y="-258" on="1"/>
        <pt x="1298" y="-306" on="0"/>
        <pt x="1177" y="-365" on="0"/>
      </contour>
      <contour>
        <pt x="977" y="573" on="1"/>
        <pt x="977" y="860" on="1"/>
        <pt x="977" y="919" on="0"/>
        <pt x="932" y="1024" on="0"/>
        <pt x="854" y="1102" on="0"/>
        <pt x="749" y="1147" on="0"/>
        <pt x="690" y="1147" on="1"/>
        <pt x="631" y="1147" on="0"/>
        <pt x="526" y="1102" on="0"/>
        <pt x="448" y="1024" on="0"/>
        <pt x="403" y="919" on="0"/>
        <pt x="403" y="860" on="1"/>
        <pt x="403" y="573" on="1"/>
      </contour>
    </TTGlyph>
    <TTGlyph name="Aring" xMin="117" yMin="0" xMax="1264" yMax="1763">
      <contour>
        <pt x="887" y="1565" on="1"/>
        <pt x="887" y="1520" on="0"/>
        <pt x="852" y="1445" on="0"/>
        <pt x="821" y="1417" on="1"/>
        <pt x="916" y="1395" on="0"/>
        <pt x="1078" y="1292" on="0"/>
        <pt x="1197" y="1145" on="0"/>
        <pt x="1264" y="962" on="0"/>
        <pt x="1264" y="860" on="1"/>
        <pt x="1264" y="0" on="1"/>
        <pt x="977" y="0" on="1"/>
        <pt x="977" y="287" on="1"/>
        <pt x="403" y="287" on="1"/>
        <pt x="403" y="0" on="1"/>
        <pt x="117" y="0" on="1"/>
        <pt x="117" y="860" on="1"/>
        <pt x="117" y="961" on="0"/>
        <pt x="183" y="1144" on="0"/>
        <pt x="300" y="1291" on="0"/>
        <pt x="462" y="1395" on="0"/>
        <pt x="557" y="1417" on="1"/>
        <pt x="526" y="1445" on="0"/>
        <pt x="492" y="1520" on="0"/>
        <pt x="492" y="1565" on="1"/>
        <pt x="492" y="1605" on="0"/>
        <pt x="523" y="1677" on="0"/>
        <pt x="577" y="1731" on="0"/>
        <pt x="648" y="1763" on="0"/>
        <pt x="688" y="1763" on="1"/>
        <pt x="730" y="1763" on="0"/>
        <pt x="802" y="1731" on="0"/>
        <pt x="856" y="1677" on="0"/>
        <pt x="887" y="1605" on="0"/>
      </contour>
      <contour>
        <pt x="977" y="573" on="1"/>
        <pt x="977" y="860" on="1"/>
        <pt x="977" y="919" on="0"/>
        <pt x="932" y="1024" on="0"/>
        <pt x="854" y="1102" on="0"/>
        <pt x="749" y="1147" on="0"/>
        <pt x="690" y="1147" on="1"/>
        <pt x="631" y="1147" on="0"/>
        <pt x="526" y="1102" on="0"/>
        <pt x="448" y="1024" on="0"/>
        <pt x="403" y="919" on="0"/>
        <pt x="403" y="860" on="1"/>
        <pt x="403" y="573" on="1"/>
      </contour>
      <contour>
        <pt x="754" y="1565" on="1"/>
        <pt x="754" y="1593" on="0"/>
        <pt x="716" y="1632" on="0"/>
        <pt x="688" y="1632" on="1"/>
        <pt x="660" y="1632" on="0"/>
        <pt x="625" y="1593" on="0"/>
        <pt x="625" y="1565" on="1"/>
        <pt x="625" y="1539" on="0"/>
        <pt x="660" y="1501" on="0"/>
        <pt x="688" y="1501" on="1"/>
        <pt x="716" y="1501" on="0"/>
        <pt x="754" y="1539" on="0"/>
      </contour>
    </TTGlyph>
    <TTGlyph name="Atilde" xMin="117" yMin="0" xMax="1264" yMax="1849">
      <component glyphName="A" x="0" y="0" flags="0x204"/>
      <component glyphName="tilde" x="360" y="432" flags="0x4"/>
    </TTGlyph>
    <TTGlyph name="B" xMin="133" yMin="0" xMax="1280" yMax="1434">
      <contour>
        <pt x="1280" y="430" on="1"/>
        <pt x="1280" y="341" on="0"/>
        <pt x="1212" y="185" on="0"/>
        <pt x="1095" y="68" on="0"/>
        <pt x="939" y="0" on="0"/>
        <pt x="850" y="0" on="1"/>
        <pt x="133" y="0" on="1"/>
        <pt x="133" y="1434" on="1"/>
        <pt x="850" y="1434" on="1"/>
        <pt x="939" y="1434" on="0"/>
        <pt x="1095" y="1366" on="0"/>
        <pt x="1212" y="1249" on="0"/>
        <pt x="1280" y="1093" on="0"/>
        <pt x="1280" y="1004" on="1"/>
        <pt x="1280" y="964" on="0"/>
        <pt x="1258" y="880" on="0"/>
        <pt x="1218" y="802" on="0"/>
        <pt x="1162" y="738" on="0"/>
        <pt x="1128" y="717" on="1"/>
        <pt x="1163" y="698" on="0"/>
        <pt x="1219" y="633" on="0"/>
        <pt x="1259" y="555" on="0"/>
        <pt x="1280" y="470" on="0"/>
      </contour>
      <contour>
        <pt x="420" y="287" on="1"/>
        <pt x="850" y="287" on="1"/>
        <pt x="880" y="287" on="0"/>
        <pt x="932" y="309" on="0"/>
        <pt x="971" y="348" on="0"/>
        <pt x="993" y="400" on="0"/>
        <pt x="993" y="430" on="1"/>
        <pt x="993" y="460" on="0"/>
        <pt x="971" y="512" on="0"/>
        <pt x="932" y="551" on="0"/>
        <pt x="880" y="573" on="0"/>
        <pt x="850" y="573" on="1"/>
        <pt x="420" y="573" on="1"/>
      </contour>
      <contour>
        <pt x="420" y="860" on="1"/>
        <pt x="850" y="860" on="1"/>
        <pt x="880" y="860" on="0"/>
        <pt x="932" y="882" on="0"/>
        <pt x="971" y="921" on="0"/>
        <pt x="993" y="974" on="0"/>
        <pt x="993" y="1004" on="1"/>
        <pt x="993" y="1034" on="0"/>
        <pt x="971" y="1086" on="0"/>
        <pt x="932" y="1125" on="0"/>
        <pt x="880" y="1147" on="0"/>
        <pt x="850" y="1147" on="1"/>
        <pt x="420" y="1147" on="1"/>
      </contour>
    </TTGlyph>
    <TTGlyph name="C" xMin="55" yMin="-31" xMax="1278" yMax="1454">
      <contour>
        <pt x="1278" y="147" on="1"/>
        <pt x="1178" y="61" on="0"/>
        <pt x="930" y="-31" on="0"/>
        <pt x="797" y="-31" on="1"/>
        <pt x="695" y="-31" on="0"/>
        <pt x="506" y="22" on="0"/>
        <pt x="341" y="119" on="0"/>
        <pt x="205" y="255" on="0"/>
        <pt x="108" y="420" on="0"/>
        <pt x="55" y="609" on="0"/>
        <pt x="55" y="711" on="1"/>
        <pt x="55" y="813" on="0"/>
        <pt x="108" y="1003" on="0"/>
        <pt x="205" y="1168" on="0"/>
        <pt x="341" y="1304" on="0"/>
        <pt x="506" y="1401" on="0"/>
        <pt x="695" y="1454" on="0"/>
        <pt x="797" y="1454" on="1"/>
        <pt x="930" y="1454" on="0"/>
        <pt x="1178" y="1363" on="0"/>
        <pt x="1278" y="1276" on="1"/>
        <pt x="1126" y="1026" on="1"/>
        <pt x="1063" y="1094" on="0"/>
        <pt x="891" y="1167" on="0"/>
        <pt x="797" y="1167" on="1"/>
        <pt x="702" y="1167" on="0"/>
        <pt x="536" y="1095" on="0"/>
        <pt x="412" y="972" on="0"/>
        <pt x="340" y="805" on="0"/>
        <pt x="340" y="711" on="1"/>
        <pt x="340" y="617" on="0"/>
        <pt x="412" y="452" on="0"/>
        <pt x="536" y="328" on="0"/>
        <pt x="702" y="256" on="0"/>
        <pt x="797" y="256" on="1"/>
        <pt x="891" y="256" on="0"/>
        <pt x="1063" y="329" on="0"/>
        <pt x="1126" y="397" on="1"/>
      </contour>
    </TTGlyph>
    <TTGlyph name="Cacute" xMin="55" yMin="-31" xMax="1278" yMax="1952">
      <component glyphName="C" x="0" y="0" flags="0x204"/>
      <component glyphName="acute" x="645" y="520" flags="0x4"/>
    </TTGlyph>
    <TTGlyph name="Ccaron" xMin="55" yMin="-31" xMax="1278" yMax="1925">
      <component glyphName="C" x="0" y="0" flags="0x204"/>
      <component glyphName="caron" x="510" y="479" flags="0x4"/>
    </TTGlyph>
    <TTGlyph name="Ccedilla" xMin="55" yMin="-461" xMax="1278" yMax="1454">
      <contour>
        <pt x="637" y="-461" on="1"/>
        <pt x="601" y="-459" on="0"/>
        <pt x="535" y="-433" on="0"/>
        <pt x="509" y="-418" on="1"/>
        <pt x="479" y="-400" on="0"/>
        <pt x="453" y="-379" on="1"/>
        <pt x="508" y="-229" on="1"/>
        <pt x="531" y="-246" on="0"/>
        <pt x="554" y="-258" on="1"/>
        <pt x="574" y="-269" on="0"/>
        <pt x="616" y="-287" on="0"/>
        <pt x="633" y="-287" on="1"/>
        <pt x="655" y="-287" on="0"/>
        <pt x="684" y="-259" on="0"/>
        <pt x="684" y="-236" on="1"/>
        <pt x="684" y="-208" on="0"/>
        <pt x="641" y="-184" on="0"/>
        <pt x="616" y="-184" on="1"/>
        <pt x="584" y="-184" on="0"/>
        <pt x="559" y="-201" on="1"/>
        <pt x="627" y="-10" on="1"/>
        <pt x="504" y="18" on="0"/>
        <pt x="294" y="152" on="0"/>
        <pt x="141" y="343" on="0"/>
        <pt x="55" y="579" on="0"/>
        <pt x="55" y="711" on="1"/>
        <pt x="55" y="813" on="0"/>
        <pt x="108" y="1003" on="0"/>
        <pt x="205" y="1168" on="0"/>
        <pt x="341" y="1304" on="0"/>
        <pt x="506" y="1401" on="0"/>
        <pt x="695" y="1454" on="0"/>
        <pt x="797" y="1454" on="1"/>
        <pt x="930" y="1454" on="0"/>
        <pt x="1178" y="1363" on="0"/>
        <pt x="1278" y="1276" on="1"/>
        <pt x="1126" y="1026" on="1"/>
        <pt x="1063" y="1094" on="0"/>
        <pt x="891" y="1167" on="0"/>
        <pt x="797" y="1167" on="1"/>
        <pt x="702" y="1167" on="0"/>
        <pt x="536" y="1095" on="0"/>
        <pt x="412" y="972" on="0"/>
        <pt x="340" y="805" on="0"/>
        <pt x="340" y="711" on="1"/>
        <pt x="340" y="617" on="0"/>
        <pt x="412" y="452" on="0"/>
        <pt x="536" y="328" on="0"/>
        <pt x="702" y="256" on="0"/>
        <pt x="797" y="256" on="1"/>
        <pt x="891" y="256" on="0"/>
        <pt x="1063" y="329" on="0"/>
        <pt x="1126" y="397" on="1"/>
        <pt x="1278" y="147" on="1"/>
        <pt x="1178" y="61" on="0"/>
        <pt x="930" y="-31" on="0"/>
        <pt x="797" y="-31" on="1"/>
        <pt x="783" y="-31" on="0"/>
        <pt x="757" y="-29" on="0"/>
        <pt x="743" y="-29" on="1"/>
        <pt x="727" y="-78" on="1"/>
        <pt x="758" y="-82" on="0"/>
        <pt x="814" y="-110" on="0"/>
        <pt x="855" y="-155" on="0"/>
        <pt x="879" y="-216" on="0"/>
        <pt x="879" y="-252" on="1"/>
        <pt x="879" y="-302" on="0"/>
        <pt x="845" y="-380" on="0"/>
        <pt x="785" y="-433" on="0"/>
        <pt x="702" y="-461" on="0"/>
        <pt x="653" y="-461" on="1"/>
      </contour>
    </TTGlyph>
    <TTGlyph name="Ccircumflex" xMin="55" yMin="-31" xMax="1278" yMax="1925">
      <component glyphName="C" x="0" y="0" flags="0x204"/>
      <component glyphName="circumflex" x="481" y="500" flags="0x4"/>
    </TTGlyph>
    <TTGlyph name="Cdotaccent" xMin="55" yMin="-31" xMax="1278" yMax="1794">
      <component glyphName="C" x="0" y="0" flags="0x204"/>
      <component glyphName="dotaccent" x="655" y="438" flags="0x4"/>
    </TTGlyph>
    <TTGlyph name="D" xMin="133" yMin="0" xMax="1282" yMax="1434">
      <contour>
        <pt x="1282" y="717" on="1"/>
        <pt x="1282" y="618" on="0"/>
        <pt x="1231" y="435" on="0"/>
        <pt x="1137" y="276" on="0"/>
        <pt x="1007" y="145" on="0"/>
        <pt x="847" y="51" on="0"/>
        <pt x="664" y="0" on="0"/>
        <pt x="565" y="0" on="1"/>
        <pt x="133" y="0" on="1"/>
        <pt x="133" y="1434" on="1"/>
        <pt x="565" y="1434" on="1"/>
        <pt x="664" y="1434" on="0"/>
        <pt x="847" y="1383" on="0"/>
        <pt x="1007" y="1289" on="0"/>
        <pt x="1137" y="1158" on="0"/>
        <pt x="1231" y="999" on="0"/>
        <pt x="1282" y="816" on="0"/>
      </contour>
      <contour>
        <pt x="995" y="717" on="1"/>
        <pt x="995" y="806" on="0"/>
        <pt x="928" y="962" on="0"/>
        <pt x="811" y="1079" on="0"/>
        <pt x="654" y="1147" on="0"/>
        <pt x="565" y="1147" on="1"/>
        <pt x="422" y="1147" on="1"/>
        <pt x="422" y="287" on="1"/>
        <pt x="565" y="287" on="1"/>
        <pt x="654" y="287" on="0"/>
        <pt x="811" y="354" on="0"/>
        <pt x="928" y="471" on="0"/>
        <pt x="995" y="628" on="0"/>
      </contour>
    </TTGlyph>
    <TTGlyph name="Dcaron" xMin="133" yMin="0" xMax="1282" yMax="1905">
      <component glyphName="D" x="0" y="0" flags="0x204"/>
      <component glyphName="caron" x="395" y="459" flags="0x4"/>
    </TTGlyph>
    <TTGlyph name="Dcroat" xMin="8" yMin="0" xMax="1321" yMax="1434">
      <component glyphName="Eth" x="0" y="0" flags="0x204"/>
    </TTGlyph>
    <TTGlyph name="E" xMin="133" yMin="0" xMax="1116" yMax="1434">
      <contour>
        <pt x="1116" y="0" on="1"/>
        <pt x="133" y="0" on="1"/>
        <pt x="133" y="1434" on="1"/>
        <pt x="1116" y="1434" on="1"/>
        <pt x="1116" y="1147" on="1"/>
        <pt x="420" y="1147" on="1"/>
        <pt x="420" y="860" on="1"/>
        <pt x="891" y="860" on="1"/>
        <pt x="891" y="573" on="1"/>
        <pt x="420" y="573" on="1"/>
        <pt x="420" y="287" on="1"/>
        <pt x="1116" y="287" on="1"/>
      </contour>
    </TTGlyph>
    <TTGlyph name="Eacute" xMin="133" yMin="0" xMax="1116" yMax="1944">
      <component glyphName="E" x="0" y="0" flags="0x204"/>
      <component glyphName="acute" x="522" y="512" flags="0x4"/>
    </TTGlyph>
    <TTGlyph name="Ebreve" xMin="133" yMin="0" xMax="1116" yMax="1805">
      <component glyphName="E" x="0" y="0" flags="0x204"/>
      <component glyphName="breve" x="395" y="416" flags="0x4"/>
    </TTGlyph>
    <TTGlyph name="Ecaron" xMin="133" yMin="0" xMax="1116" yMax="1905">
      <component glyphName="E" x="0" y="0" flags="0x204"/>
      <component glyphName="caron" x="358" y="459" flags="0x4"/>
    </TTGlyph>
    <TTGlyph name="Ecircumflex" xMin="133" yMin="0" xMax="1116" yMax="1914">
      <component glyphName="E" x="0" y="0" flags="0x204"/>
      <component glyphName="circumflex" x="350" y="489" flags="0x4"/>
    </TTGlyph>
    <TTGlyph name="Edieresis" xMin="133" yMin="0" xMax="1116" yMax="1771">
      <component glyphName="E" x="0" y="0" flags="0x204"/>
      <component glyphName="dieresis" x="315" y="432" flags="0x4"/>
    </TTGlyph>
    <TTGlyph name="Edotaccent" xMin="133" yMin="0" xMax="1116" yMax="1774">
      <component glyphName="E" x="0" y="0" flags="0x204"/>
      <component glyphName="dotaccent" x="504" y="418" flags="0x4"/>
    </TTGlyph>
    <TTGlyph name="Egrave" xMin="133" yMin="0" xMax="1116" yMax="1942">
      <component glyphName="E" x="0" y="0" flags="0x204"/>
      <component glyphName="grave" x="293" y="510" flags="0x4"/>
    </TTGlyph>
    <TTGlyph name="Emacron" xMin="133" yMin="0" xMax="1116" yMax="1725">
      <component glyphName="E" x="0" y="0" flags="0x204"/>
      <component glyphName="macron" x="399" y="418" flags="0x4"/>
    </TTGlyph>
    <TTGlyph name="Eng" xMin="133" yMin="-410" xMax="1280" yMax="1434">
      <contour>
        <pt x="1280" y="164" on="1"/>
        <pt x="1280" y="45" on="0"/>
        <pt x="1190" y="-164" on="0"/>
        <pt x="1035" y="-320" on="0"/>
        <pt x="826" y="-410" on="0"/>
        <pt x="707" y="-410" on="1"/>
        <pt x="669" y="-410" on="0"/>
        <pt x="598" y="-400" on="0"/>
        <pt x="563" y="-391" on="1"/>
        <pt x="563" y="-84" on="1"/>
        <pt x="595" y="-103" on="0"/>
        <pt x="668" y="-123" on="0"/>
        <pt x="707" y="-123" on="1"/>
        <pt x="747" y="-123" on="0"/>
        <pt x="821" y="-101" on="0"/>
        <pt x="885" y="-62" on="0"/>
        <pt x="938" y="-7" on="0"/>
        <pt x="956" y="25" on="1"/>
        <pt x="420" y="944" on="1"/>
        <pt x="420" y="0" on="1"/>
        <pt x="133" y="0" on="1"/>
        <pt x="133" y="1434" on="1"/>
        <pt x="440" y="1434" on="1"/>
        <pt x="993" y="489" on="1"/>
        <pt x="993" y="1434" on="1"/>
        <pt x="1280" y="1434" on="1"/>
      </contour>
    </TTGlyph>
    <TTGlyph name="Eogonek" xMin="133" yMin="-365" xMax="1116" yMax="1434">
      <contour>
        <pt x="879" y="-365" on="1"/>
        <pt x="850" y="-365" on="0"/>
        <pt x="780" y="-341" on="0"/>
        <pt x="720" y="-295" on="0"/>
        <pt x="680" y="-225" on="0"/>
        <pt x="680" y="-180" on="1"/>
        <pt x="680" y="-127" on="0"/>
        <pt x="743" y="-37" on="0"/>
        <pt x="786" y="0" on="1"/>
        <pt x="133" y="0" on="1"/>
        <pt x="133" y="1434" on="1"/>
        <pt x="1116" y="1434" on="1"/>
        <pt x="1116" y="1147" on="1"/>
        <pt x="420" y="1147" on="1"/>
        <pt x="420" y="860" on="1"/>
        <pt x="891" y="860" on="1"/>
        <pt x="891" y="573" on="1"/>
        <pt x="420" y="573" on="1"/>
        <pt x="420" y="287" on="1"/>
        <pt x="1116" y="287" on="1"/>
        <pt x="1116" y="0" on="1"/>
        <pt x="942" y="0" on="1"/>
        <pt x="928" y="-17" on="0"/>
        <pt x="902" y="-54" on="0"/>
        <pt x="882" y="-90" on="0"/>
        <pt x="870" y="-123" on="0"/>
        <pt x="870" y="-135" on="1"/>
        <pt x="870" y="-151" on="0"/>
        <pt x="890" y="-176" on="0"/>
        <pt x="907" y="-176" on="1"/>
        <pt x="929" y="-176" on="0"/>
        <pt x="967" y="-147" on="0"/>
        <pt x="975" y="-127" on="1"/>
        <pt x="1116" y="-258" on="1"/>
        <pt x="1068" y="-306" on="0"/>
        <pt x="948" y="-365" on="0"/>
      </contour>
    </TTGlyph>
    <TTGlyph name="Eth" xMin="8" yMin="0" xMax="1321" yMax="1434">
      <contour>
        <pt x="1321" y="717" on="1"/>
        <pt x="1321" y="618" on="0"/>
        <pt x="1270" y="435" on="0"/>
        <pt x="1176" y="276" on="0"/>
        <pt x="1045" y="145" on="0"/>
        <pt x="886" y="51" on="0"/>
        <pt x="703" y="0" on="0"/>
        <pt x="604" y="0" on="1"/>
        <pt x="172" y="0" on="1"/>
        <pt x="172" y="588" on="1"/>
        <pt x="8" y="588" on="1"/>
        <pt x="8" y="860" on="1"/>
        <pt x="172" y="860" on="1"/>
        <pt x="172" y="1434" on="1"/>
        <pt x="604" y="1434" on="1"/>
        <pt x="703" y="1434" on="0"/>
        <pt x="886" y="1383" on="0"/>
        <pt x="1045" y="1289" on="0"/>
        <pt x="1176" y="1158" on="0"/>
        <pt x="1270" y="999" on="0"/>
        <pt x="1321" y="816" on="0"/>
      </contour>
      <contour>
        <pt x="627" y="860" on="1"/>
        <pt x="627" y="588" on="1"/>
        <pt x="461" y="588" on="1"/>
        <pt x="461" y="287" on="1"/>
        <pt x="604" y="287" on="1"/>
        <pt x="693" y="287" on="0"/>
        <pt x="850" y="354" on="0"/>
        <pt x="967" y="471" on="0"/>
        <pt x="1034" y="628" on="0"/>
        <pt x="1034" y="717" on="1"/>
        <pt x="1034" y="806" on="0"/>
        <pt x="967" y="962" on="0"/>
        <pt x="850" y="1079" on="0"/>
        <pt x="693" y="1147" on="0"/>
        <pt x="604" y="1147" on="1"/>
        <pt x="461" y="1147" on="1"/>
        <pt x="461" y="860" on="1"/>
      </contour>
    </TTGlyph>
    <TTGlyph name="Euro" xMin="68" yMin="-31" xMax="1563" yMax="1454">
      <contour>
        <pt x="401" y="1008" on="1"/>
        <pt x="444" y="1106" on="0"/>
        <pt x="582" y="1270" on="0"/>
        <pt x="759" y="1388" on="0"/>
        <pt x="967" y="1454" on="0"/>
        <pt x="1081" y="1454" on="1"/>
        <pt x="1214" y="1454" on="0"/>
        <pt x="1463" y="1363" on="0"/>
        <pt x="1563" y="1276" on="1"/>
        <pt x="1411" y="1026" on="1"/>
        <pt x="1348" y="1094" on="0"/>
        <pt x="1175" y="1167" on="0"/>
        <pt x="1081" y="1167" on="1"/>
        <pt x="976" y="1167" on="0"/>
        <pt x="796" y="1080" on="0"/>
        <pt x="733" y="1008" on="1"/>
        <pt x="1036" y="1008" on="1"/>
        <pt x="981" y="756" on="1"/>
        <pt x="627" y="756" on="1"/>
        <pt x="625" y="745" on="0"/>
        <pt x="625" y="722" on="0"/>
        <pt x="625" y="711" on="1"/>
        <pt x="625" y="697" on="0"/>
        <pt x="625" y="672" on="0"/>
        <pt x="627" y="659" on="1"/>
        <pt x="961" y="659" on="1"/>
        <pt x="905" y="408" on="1"/>
        <pt x="741" y="408" on="1"/>
        <pt x="804" y="336" on="0"/>
        <pt x="979" y="256" on="0"/>
        <pt x="1081" y="256" on="1"/>
        <pt x="1175" y="256" on="0"/>
        <pt x="1348" y="329" on="0"/>
        <pt x="1411" y="397" on="1"/>
        <pt x="1563" y="147" on="1"/>
        <pt x="1463" y="61" on="0"/>
        <pt x="1214" y="-31" on="0"/>
        <pt x="1081" y="-31" on="1"/>
        <pt x="968" y="-31" on="0"/>
        <pt x="762" y="34" on="0"/>
        <pt x="587" y="150" on="0"/>
        <pt x="449" y="311" on="0"/>
        <pt x="406" y="408" on="1"/>
        <pt x="68" y="408" on="1"/>
        <pt x="123" y="659" on="1"/>
        <pt x="342" y="659" on="1"/>
        <pt x="340" y="672" on="0"/>
        <pt x="340" y="697" on="0"/>
        <pt x="340" y="711" on="1"/>
        <pt x="340" y="756" on="1"/>
        <pt x="143" y="756" on="1"/>
        <pt x="199" y="1008" on="1"/>
      </contour>
    </TTGlyph>
    <TTGlyph name="F" xMin="133" yMin="0" xMax="1137" yMax="1434">
      <contour>
        <pt x="420" y="0" on="1"/>
        <pt x="133" y="0" on="1"/>
        <pt x="133" y="1434" on="1"/>
        <pt x="1137" y="1434" on="1"/>
        <pt x="1137" y="1147" on="1"/>
        <pt x="420" y="1147" on="1"/>
        <pt x="420" y="860" on="1"/>
        <pt x="850" y="860" on="1"/>
        <pt x="850" y="573" on="1"/>
        <pt x="420" y="573" on="1"/>
      </contour>
    </TTGlyph>
    <TTGlyph name="G" xMin="55" yMin="-31" xMax="1274" yMax="1450">
      <contour>
        <pt x="1274" y="145" on="1"/>
        <pt x="1174" y="60" on="0"/>
        <pt x="928" y="-31" on="0"/>
        <pt x="795" y="-31" on="1"/>
        <pt x="693" y="-31" on="0"/>
        <pt x="504" y="22" on="0"/>
        <pt x="340" y="119" on="0"/>
        <pt x="204" y="254" on="0"/>
        <pt x="108" y="419" on="0"/>
        <pt x="55" y="609" on="0"/>
        <pt x="55" y="711" on="1"/>
        <pt x="55" y="813" on="0"/>
        <pt x="108" y="1001" on="0"/>
        <pt x="204" y="1166" on="0"/>
        <pt x="340" y="1301" on="0"/>
        <pt x="504" y="1397" on="0"/>
        <pt x="693" y="1450" on="0"/>
        <pt x="795" y="1450" on="1"/>
        <pt x="928" y="1450" on="0"/>
        <pt x="1174" y="1359" on="0"/>
        <pt x="1274" y="1274" on="1"/>
        <pt x="1124" y="1024" on="1"/>
        <pt x="1059" y="1090" on="0"/>
        <pt x="889" y="1165" on="0"/>
        <pt x="795" y="1165" on="1"/>
        <pt x="701" y="1165" on="0"/>
        <pt x="536" y="1093" on="0"/>
        <pt x="412" y="970" on="0"/>
        <pt x="340" y="805" on="0"/>
        <pt x="340" y="711" on="1"/>
        <pt x="340" y="616" on="0"/>
        <pt x="412" y="450" on="0"/>
        <pt x="536" y="326" on="0"/>
        <pt x="701" y="254" on="0"/>
        <pt x="795" y="254" on="1"/>
        <pt x="849" y="254" on="0"/>
        <pt x="951" y="280" on="0"/>
        <pt x="997" y="303" on="1"/>
        <pt x="997" y="711" on="1"/>
        <pt x="1274" y="711" on="1"/>
      </contour>
    </TTGlyph>
    <TTGlyph name="Gbreve" xMin="55" yMin="-31" xMax="1274" yMax="1819">
      <component glyphName="G" x="0" y="0" flags="0x204"/>
      <component glyphName="breve" x="545" y="430" flags="0x4"/>
    </TTGlyph>
    <TTGlyph name="Gcircumflex" xMin="55" yMin="-31" xMax="1274" yMax="1904">
      <component glyphName="G" x="0" y="0" flags="0x204"/>
      <component glyphName="circumflex" x="489" y="479" flags="0x4"/>
    </TTGlyph>
    <TTGlyph name="Gcommaaccent" xMin="55" yMin="-526" xMax="1274" yMax="1450">
      <component glyphName="G" x="0" y="0" flags="0x204"/>
      <component glyphName="uni0326" x="563" y="0" flags="0x4"/>
    </TTGlyph>
    <TTGlyph name="Gdotaccent" xMin="55" yMin="-31" xMax="1274" yMax="1794">
      <component glyphName="G" x="0" y="0" flags="0x204"/>
      <component glyphName="dotaccent" x="635" y="438" flags="0x4"/>
    </TTGlyph>
    <TTGlyph name="H" xMin="133" yMin="0" xMax="1280" yMax="1434">
      <contour>
        <pt x="420" y="0" on="1"/>
        <pt x="133" y="0" on="1"/>
        <pt x="133" y="1434" on="1"/>
        <pt x="420" y="1434" on="1"/>
        <pt x="420" y="860" on="1"/>
        <pt x="993" y="860" on="1"/>
        <pt x="993" y="1434" on="1"/>
        <pt x="1280" y="1434" on="1"/>
        <pt x="1280" y="0" on="1"/>
        <pt x="993" y="0" on="1"/>
        <pt x="993" y="573" on="1"/>
        <pt x="420" y="573" on="1"/>
      </contour>
    </TTGlyph>
    <TTGlyph name="Hbar" xMin="31" yMin="0" xMax="1382" yMax="1434">
      <contour>
        <pt x="420" y="0" on="1"/>
        <pt x="133" y="0" on="1"/>
        <pt x="133" y="985" on="1"/>
        <pt x="31" y="985" on="1"/>
        <pt x="31" y="1257" on="1"/>
        <pt x="133" y="1257" on="1"/>
        <pt x="133" y="1434" on="1"/>
        <pt x="420" y="1434" on="1"/>
        <pt x="420" y="1257" on="1"/>
        <pt x="993" y="1257" on="1"/>
        <pt x="993" y="1434" on="1"/>
        <pt x="1280" y="1434" on="1"/>
        <pt x="1280" y="1257" on="1"/>
        <pt x="1382" y="1257" on="1"/>
        <pt x="1382" y="985" on="1"/>
        <pt x="1280" y="985" on="1"/>
        <pt x="1280" y="0" on="1"/>
        <pt x="993" y="0" on="1"/>
        <pt x="993" y="573" on="1"/>
        <pt x="420" y="573" on="1"/>
      </contour>
      <contour>
        <pt x="993" y="860" on="1"/>
        <pt x="993" y="985" on="1"/>
        <pt x="420" y="985" on="1"/>
        <pt x="420" y="860" on="1"/>
      </contour>
    </TTGlyph>
    <TTGlyph name="Hcircumflex" xMin="133" yMin="0" xMax="1280" yMax="1863">
      <component glyphName="H" x="0" y="0" flags="0x204"/>
      <component glyphName="circumflex" x="432" y="438" flags="0x4"/>
    </TTGlyph>
    <TTGlyph name="I" xMin="133" yMin="0" xMax="420" yMax="1434">
      <contour>
        <pt x="420" y="0" on="1"/>
        <pt x="133" y="0" on="1"/>
        <pt x="133" y="1434" on="1"/>
        <pt x="420" y="1434" on="1"/>
      </contour>
    </TTGlyph>
    <TTGlyph name="IJ" xMin="133" yMin="0" xMax="1290" yMax="1434">
      <component glyphName="I" x="0" y="0" flags="0x4"/>
      <component glyphName="J" x="553" y="0" flags="0x4"/>
    </TTGlyph>
    <TTGlyph name="Iacute" xMin="133" yMin="0" xMax="625" yMax="1944">
      <component glyphName="I" x="0" y="0" flags="0x204"/>
      <component glyphName="acute" x="164" y="512" flags="0x4"/>
    </TTGlyph>
    <TTGlyph name="Ibreve" xMin="55" yMin="0" xMax="506" yMax="1805">
      <component glyphName="I" x="0" y="0" flags="0x204"/>
      <component glyphName="breve" x="55" y="416" flags="0x4"/>
    </TTGlyph>
    <TTGlyph name="Icircumflex" xMin="4" yMin="0" xMax="551" yMax="1912">
      <component glyphName="I" x="0" y="0" flags="0x204"/>
      <component glyphName="circumflex" x="4" y="487" flags="0x4"/>
    </TTGlyph>
    <TTGlyph name="Idieresis" xMin="-30" yMin="0" xMax="586" yMax="1771">
      <component glyphName="I" x="0" y="0" flags="0x204"/>
      <component glyphName="dieresis" x="-30" y="432" flags="0x4"/>
    </TTGlyph>
    <TTGlyph name="Idotaccent" xMin="133" yMin="0" xMax="420" yMax="1774">
      <component glyphName="I" x="0" y="0" flags="0x204"/>
      <component glyphName="dotaccent" x="147" y="418" flags="0x4"/>
    </TTGlyph>
    <TTGlyph name="Igrave" xMin="-75" yMin="0" xMax="420" yMax="1942">
      <component glyphName="I" x="0" y="0" flags="0x204"/>
      <component glyphName="grave" x="-75" y="510" flags="0x4"/>
    </TTGlyph>
    <TTGlyph name="Imacron" xMin="23" yMin="0" xMax="529" yMax="1725">
      <component glyphName="I" x="0" y="0" flags="0x204"/>
      <component glyphName="macron" x="23" y="418" flags="0x4"/>
    </TTGlyph>
    <TTGlyph name="Iogonek" xMin="66" yMin="-365" xMax="502" yMax="1434">
      <contour>
        <pt x="264" y="-365" on="1"/>
        <pt x="235" y="-365" on="0"/>
        <pt x="166" y="-341" on="0"/>
        <pt x="106" y="-295" on="0"/>
        <pt x="66" y="-225" on="0"/>
        <pt x="66" y="-180" on="1"/>
        <pt x="66" y="-127" on="0"/>
        <pt x="129" y="-37" on="0"/>
        <pt x="172" y="0" on="1"/>
        <pt x="133" y="0" on="1"/>
        <pt x="133" y="1434" on="1"/>
        <pt x="420" y="1434" on="1"/>
        <pt x="420" y="0" on="1"/>
        <pt x="328" y="0" on="1"/>
        <pt x="314" y="-17" on="0"/>
        <pt x="288" y="-54" on="0"/>
        <pt x="268" y="-90" on="0"/>
        <pt x="256" y="-123" on="0"/>
        <pt x="256" y="-135" on="1"/>
        <pt x="256" y="-151" on="0"/>
        <pt x="276" y="-176" on="0"/>
        <pt x="293" y="-176" on="1"/>
        <pt x="315" y="-176" on="0"/>
        <pt x="352" y="-147" on="0"/>
        <pt x="360" y="-127" on="1"/>
        <pt x="502" y="-258" on="1"/>
        <pt x="454" y="-306" on="0"/>
        <pt x="333" y="-365" on="0"/>
      </contour>
    </TTGlyph>
    <TTGlyph name="Itilde" xMin="-52" yMin="0" xMax="607" yMax="1855">
      <component glyphName="I" x="0" y="0" flags="0x204"/>
      <component glyphName="tilde" x="-52" y="438" flags="0x4"/>
    </TTGlyph>
    <TTGlyph name="J" xMin="20" yMin="0" xMax="737" yMax="1434">
      <contour>
        <pt x="737" y="573" on="1"/>
        <pt x="737" y="454" on="0"/>
        <pt x="647" y="245" on="0"/>
        <pt x="492" y="90" on="0"/>
        <pt x="283" y="0" on="0"/>
        <pt x="164" y="0" on="1"/>
        <pt x="92" y="0" on="0"/>
        <pt x="20" y="18" on="1"/>
        <pt x="20" y="326" on="1"/>
        <pt x="52" y="307" on="0"/>
        <pt x="126" y="287" on="0"/>
        <pt x="164" y="287" on="1"/>
        <pt x="223" y="287" on="0"/>
        <pt x="328" y="332" on="0"/>
        <pt x="406" y="410" on="0"/>
        <pt x="451" y="514" on="0"/>
        <pt x="451" y="573" on="1"/>
        <pt x="451" y="1434" on="1"/>
        <pt x="737" y="1434" on="1"/>
      </contour>
    </TTGlyph>
    <TTGlyph name="Jcircumflex" xMin="20" yMin="0" xMax="862" yMax="1904">
      <component glyphName="J" x="0" y="0" flags="0x204"/>
      <component glyphName="circumflex" x="315" y="479" flags="0x4"/>
    </TTGlyph>
    <TTGlyph name="K" xMin="133" yMin="0" xMax="1280" yMax="1434">
      <contour>
        <pt x="420" y="0" on="1"/>
        <pt x="133" y="0" on="1"/>
        <pt x="133" y="1434" on="1"/>
        <pt x="420" y="1434" on="1"/>
        <pt x="420" y="717" on="1"/>
        <pt x="954" y="1434" on="1"/>
        <pt x="1280" y="1434" on="1"/>
        <pt x="827" y="829" on="1"/>
        <pt x="1280" y="0" on="1"/>
        <pt x="954" y="0" on="1"/>
        <pt x="639" y="580" on="1"/>
        <pt x="420" y="287" on="1"/>
      </contour>
    </TTGlyph>
    <TTGlyph name="Kcommaaccent" xMin="133" yMin="-526" xMax="1280" yMax="1434">
      <component glyphName="K" x="0" y="0" flags="0x204"/>
      <component glyphName="uni0326" x="440" y="0" flags="0x4"/>
    </TTGlyph>
    <TTGlyph name="L" xMin="133" yMin="0" xMax="1137" yMax="1434">
      <contour>
        <pt x="1137" y="0" on="1"/>
        <pt x="133" y="0" on="1"/>
        <pt x="133" y="1434" on="1"/>
        <pt x="420" y="1434" on="1"/>
        <pt x="420" y="287" on="1"/>
        <pt x="1137" y="287" on="1"/>
      </contour>
    </TTGlyph>
    <TTGlyph name="Lacute" xMin="133" yMin="0" xMax="1137" yMax="1829">
      <component glyphName="L" x="0" y="0" flags="0x204"/>
      <component glyphName="acute" x="428" y="397" flags="0x4"/>
    </TTGlyph>
    <TTGlyph name="Lcaron" xMin="133" yMin="0" xMax="1137" yMax="1436">
      <component glyphName="L" x="0" y="0" flags="0x204"/>
      <component glyphName="uni0315" x="543" y="0" flags="0x4"/>
    </TTGlyph>
    <TTGlyph name="Lcommaaccent" xMin="133" yMin="-526" xMax="1137" yMax="1434">
      <component glyphName="L" x="0" y="0" flags="0x204"/>
      <component glyphName="uni0326" x="377" y="0" flags="0x4"/>
    </TTGlyph>
    <TTGlyph name="Ldot" xMin="133" yMin="0" xMax="1429" yMax="1434">
      <component glyphName="L" x="0" y="0" flags="0x4"/>
      <component glyphName="periodcentered" x="991" y="0" flags="0x4"/>
    </TTGlyph>
    <TTGlyph name="Lslash" xMin="16" yMin="0" xMax="1184" yMax="1434">
      <contour>
        <pt x="180" y="782" on="1"/>
        <pt x="180" y="1434" on="1"/>
        <pt x="467" y="1434" on="1"/>
        <pt x="467" y="936" on="1"/>
        <pt x="631" y="1024" on="1"/>
        <pt x="631" y="752" on="1"/>
        <pt x="467" y="664" on="1"/>
        <pt x="467" y="287" on="1"/>
        <pt x="1184" y="287" on="1"/>
        <pt x="1184" y="0" on="1"/>
        <pt x="180" y="0" on="1"/>
        <pt x="180" y="510" on="1"/>
        <pt x="16" y="424" on="1"/>
        <pt x="16" y="696" on="1"/>
      </contour>
    </TTGlyph>
    <TTGlyph name="M" xMin="123" yMin="0" xMax="1556" yMax="1454">
      <contour>
        <pt x="1556" y="0" on="1"/>
        <pt x="1270" y="0" on="1"/>
        <pt x="1270" y="1024" on="1"/>
        <pt x="1270" y="1054" on="0"/>
        <pt x="1247" y="1106" on="0"/>
        <pt x="1208" y="1145" on="0"/>
        <pt x="1156" y="1167" on="0"/>
        <pt x="1126" y="1167" on="1"/>
        <pt x="1096" y="1167" on="0"/>
        <pt x="1044" y="1145" on="0"/>
        <pt x="1005" y="1106" on="0"/>
        <pt x="983" y="1054" on="0"/>
        <pt x="983" y="1024" on="1"/>
        <pt x="983" y="0" on="1"/>
        <pt x="696" y="0" on="1"/>
        <pt x="696" y="1024" on="1"/>
        <pt x="696" y="1054" on="0"/>
        <pt x="674" y="1106" on="0"/>
        <pt x="635" y="1145" on="0"/>
        <pt x="583" y="1167" on="0"/>
        <pt x="553" y="1167" on="1"/>
        <pt x="523" y="1167" on="0"/>
        <pt x="471" y="1145" on="0"/>
        <pt x="432" y="1106" on="0"/>
        <pt x="410" y="1054" on="0"/>
        <pt x="410" y="1024" on="1"/>
        <pt x="410" y="0" on="1"/>
        <pt x="123" y="0" on="1"/>
        <pt x="123" y="1024" on="1"/>
        <pt x="123" y="1113" on="0"/>
        <pt x="190" y="1270" on="0"/>
        <pt x="307" y="1387" on="0"/>
        <pt x="464" y="1454" on="0"/>
        <pt x="553" y="1454" on="1"/>
        <pt x="633" y="1454" on="0"/>
        <pt x="781" y="1397" on="0"/>
        <pt x="840" y="1343" on="1"/>
        <pt x="899" y="1397" on="0"/>
        <pt x="1046" y="1454" on="0"/>
        <pt x="1126" y="1454" on="1"/>
        <pt x="1215" y="1454" on="0"/>
        <pt x="1372" y="1387" on="0"/>
        <pt x="1489" y="1270" on="0"/>
        <pt x="1556" y="1113" on="0"/>
        <pt x="1556" y="1024" on="1"/>
      </contour>
    </TTGlyph>
    <TTGlyph name="N" xMin="133" yMin="0" xMax="1280" yMax="1434">
      <contour>
        <pt x="1280" y="0" on="1"/>
        <pt x="973" y="0" on="1"/>
        <pt x="420" y="944" on="1"/>
        <pt x="420" y="0" on="1"/>
        <pt x="133" y="0" on="1"/>
        <pt x="133" y="1434" on="1"/>
        <pt x="440" y="1434" on="1"/>
        <pt x="993" y="489" on="1"/>
        <pt x="993" y="1434" on="1"/>
        <pt x="1280" y="1434" on="1"/>
      </contour>
    </TTGlyph>
    <TTGlyph name="Nacute" xMin="133" yMin="0" xMax="1280" yMax="1891">
      <component glyphName="N" x="0" y="0" flags="0x204"/>
      <component glyphName="acute" x="588" y="459" flags="0x4"/>
    </TTGlyph>
    <TTGlyph name="Ncaron" xMin="133" yMin="0" xMax="1280" yMax="1884">
      <component glyphName="N" x="0" y="0" flags="0x204"/>
      <component glyphName="caron" x="432" y="438" flags="0x4"/>
    </TTGlyph>
    <TTGlyph name="Ncommaaccent" xMin="133" yMin="-526" xMax="1280" yMax="1434">
      <component glyphName="N" x="0" y="0" flags="0x204"/>
      <component glyphName="uni0326" x="508" y="0" flags="0x4"/>
    </TTGlyph>
    <TTGlyph name="Ntilde" xMin="133" yMin="0" xMax="1280" yMax="1870">
      <component glyphName="N" x="0" y="0" flags="0x204"/>
      <component glyphName="tilde" x="377" y="453" flags="0x4"/>
    </TTGlyph>
    <TTGlyph name="O" xMin="55" yMin="-31" xMax="1538" yMax="1452">
      <contour>
        <pt x="1538" y="711" on="1"/>
        <pt x="1538" y="609" on="0"/>
        <pt x="1485" y="420" on="0"/>
        <pt x="1389" y="255" on="0"/>
        <pt x="1253" y="119" on="0"/>
        <pt x="1089" y="22" on="0"/>
        <pt x="899" y="-31" on="0"/>
        <pt x="797" y="-31" on="1"/>
        <pt x="695" y="-31" on="0"/>
        <pt x="506" y="22" on="0"/>
        <pt x="341" y="119" on="0"/>
        <pt x="205" y="255" on="0"/>
        <pt x="108" y="420" on="0"/>
        <pt x="55" y="609" on="0"/>
        <pt x="55" y="711" on="1"/>
        <pt x="55" y="813" on="0"/>
        <pt x="108" y="1003" on="0"/>
        <pt x="205" y="1167" on="0"/>
        <pt x="341" y="1303" on="0"/>
        <pt x="506" y="1399" on="0"/>
        <pt x="695" y="1452" on="0"/>
        <pt x="797" y="1452" on="1"/>
        <pt x="899" y="1452" on="0"/>
        <pt x="1089" y="1399" on="0"/>
        <pt x="1253" y="1303" on="0"/>
        <pt x="1389" y="1167" on="0"/>
        <pt x="1485" y="1003" on="0"/>
        <pt x="1538" y="813" on="0"/>
      </contour>
      <contour>
        <pt x="1253" y="711" on="1"/>
        <pt x="1253" y="805" on="0"/>
        <pt x="1181" y="972" on="0"/>
        <pt x="1058" y="1095" on="0"/>
        <pt x="891" y="1167" on="0"/>
        <pt x="797" y="1167" on="1"/>
        <pt x="702" y="1167" on="0"/>
        <pt x="536" y="1095" on="0"/>
        <pt x="412" y="972" on="0"/>
        <pt x="340" y="805" on="0"/>
        <pt x="340" y="711" on="1"/>
        <pt x="340" y="617" on="0"/>
        <pt x="412" y="452" on="0"/>
        <pt x="536" y="328" on="0"/>
        <pt x="702" y="256" on="0"/>
        <pt x="797" y="256" on="1"/>
        <pt x="891" y="256" on="0"/>
        <pt x="1058" y="328" on="0"/>
        <pt x="1181" y="452" on="0"/>
        <pt x="1253" y="617" on="0"/>
      </contour>
    </TTGlyph>
    <TTGlyph name="OE" xMin="55" yMin="-31" xMax="2238" yMax="1452">
      <contour>
        <pt x="2238" y="0" on="1"/>
        <pt x="1255" y="0" on="1"/>
        <pt x="1255" y="127" on="1"/>
        <pt x="1159" y="53" on="0"/>
        <pt x="927" y="-31" on="0"/>
        <pt x="797" y="-31" on="1"/>
        <pt x="695" y="-31" on="0"/>
        <pt x="506" y="22" on="0"/>
        <pt x="341" y="119" on="0"/>
        <pt x="205" y="255" on="0"/>
        <pt x="108" y="420" on="0"/>
        <pt x="55" y="609" on="0"/>
        <pt x="55" y="711" on="1"/>
        <pt x="55" y="813" on="0"/>
        <pt x="108" y="1003" on="0"/>
        <pt x="205" y="1167" on="0"/>
        <pt x="341" y="1303" on="0"/>
        <pt x="506" y="1399" on="0"/>
        <pt x="695" y="1452" on="0"/>
        <pt x="797" y="1452" on="1"/>
        <pt x="927" y="1452" on="0"/>
        <pt x="1159" y="1368" on="0"/>
        <pt x="1255" y="1292" on="1"/>
        <pt x="1255" y="1434" on="1"/>
        <pt x="2238" y="1434" on="1"/>
        <pt x="2238" y="1147" on="1"/>
        <pt x="1542" y="1147" on="1"/>
        <pt x="1542" y="860" on="1"/>
        <pt x="2013" y="860" on="1"/>
        <pt x="2013" y="573" on="1"/>
        <pt x="1542" y="573" on="1"/>
        <pt x="1542" y="287" on="1"/>
        <pt x="2238" y="287" on="1"/>
      </contour>
      <contour>
        <pt x="1253" y="711" on="1"/>
        <pt x="1253" y="805" on="0"/>
        <pt x="1181" y="972" on="0"/>
        <pt x="1058" y="1095" on="0"/>
        <pt x="891" y="1167" on="0"/>
        <pt x="797" y="1167" on="1"/>
        <pt x="702" y="1167" on="0"/>
        <pt x="536" y="1095" on="0"/>
        <pt x="412" y="972" on="0"/>
        <pt x="340" y="805" on="0"/>
        <pt x="340" y="711" on="1"/>
        <pt x="340" y="617" on="0"/>
        <pt x="412" y="452" on="0"/>
        <pt x="536" y="328" on="0"/>
        <pt x="702" y="256" on="0"/>
        <pt x="797" y="256" on="1"/>
        <pt x="891" y="256" on="0"/>
        <pt x="1058" y="328" on="0"/>
        <pt x="1181" y="452" on="0"/>
        <pt x="1253" y="617" on="0"/>
      </contour>
    </TTGlyph>
    <TTGlyph name="Oacute" xMin="55" yMin="-31" xMax="1538" yMax="1960">
      <component glyphName="O" x="0" y="0" flags="0x204"/>
      <component glyphName="acute" x="696" y="528" flags="0x4"/>
    </TTGlyph>
    <TTGlyph name="Obreve" xMin="55" yMin="-31" xMax="1538" yMax="1827">
      <component glyphName="O" x="0" y="0" flags="0x204"/>
      <component glyphName="breve" x="575" y="438" flags="0x4"/>
    </TTGlyph>
    <TTGlyph name="Ocircumflex" xMin="55" yMin="-31" xMax="1538" yMax="1914">
      <component glyphName="O" x="0" y="0" flags="0x204"/>
      <component glyphName="circumflex" x="522" y="489" flags="0x4"/>
    </TTGlyph>
    <TTGlyph name="Odieresis" xMin="55" yMin="-31" xMax="1538" yMax="1769">
      <component glyphName="O" x="0" y="0" flags="0x204"/>
      <component glyphName="dieresis" x="487" y="430" flags="0x4"/>
    </TTGlyph>
    <TTGlyph name="Ograve" xMin="55" yMin="-31" xMax="1538" yMax="1960">
      <component glyphName="O" x="0" y="0" flags="0x204"/>
      <component glyphName="grave" x="440" y="528" flags="0x4"/>
    </TTGlyph>
    <TTGlyph name="Ohungarumlaut" xMin="55" yMin="-31" xMax="1538" yMax="2017">
      <component glyphName="O" x="0" y="0" flags="0x204"/>
      <component glyphName="hungarumlaut" x="498" y="479" flags="0x4"/>
    </TTGlyph>
    <TTGlyph name="Omacron" xMin="55" yMin="-31" xMax="1538" yMax="1745">
      <component glyphName="O" x="0" y="0" flags="0x204"/>
      <component glyphName="macron" x="543" y="438" flags="0x4"/>
    </TTGlyph>
    <TTGlyph name="Oslash" xMin="55" yMin="-31" xMax="1538" yMax="1452">
      <contour>
        <pt x="1315" y="1239" on="1"/>
        <pt x="1366" y="1189" on="0"/>
        <pt x="1449" y="1070" on="0"/>
        <pt x="1507" y="936" on="0"/>
        <pt x="1538" y="789" on="0"/>
        <pt x="1538" y="711" on="1"/>
        <pt x="1538" y="609" on="0"/>
        <pt x="1485" y="420" on="0"/>
        <pt x="1389" y="255" on="0"/>
        <pt x="1253" y="119" on="0"/>
        <pt x="1089" y="22" on="0"/>
        <pt x="899" y="-31" on="0"/>
        <pt x="797" y="-31" on="1"/>
        <pt x="703" y="-31" on="0"/>
        <pt x="529" y="13" on="0"/>
        <pt x="451" y="55" on="1"/>
        <pt x="412" y="0" on="1"/>
        <pt x="137" y="0" on="1"/>
        <pt x="272" y="186" on="1"/>
        <pt x="172" y="289" on="0"/>
        <pt x="55" y="556" on="0"/>
        <pt x="55" y="711" on="1"/>
        <pt x="55" y="813" on="0"/>
        <pt x="108" y="1003" on="0"/>
        <pt x="205" y="1167" on="0"/>
        <pt x="341" y="1303" on="0"/>
        <pt x="506" y="1399" on="0"/>
        <pt x="695" y="1452" on="0"/>
        <pt x="797" y="1452" on="1"/>
        <pt x="888" y="1452" on="0"/>
        <pt x="1059" y="1408" on="0"/>
        <pt x="1135" y="1370" on="1"/>
        <pt x="1182" y="1434" on="1"/>
        <pt x="1456" y="1434" on="1"/>
      </contour>
      <contour>
        <pt x="1253" y="711" on="1"/>
        <pt x="1253" y="796" on="0"/>
        <pt x="1196" y="946" on="0"/>
        <pt x="1145" y="1006" on="1"/>
        <pt x="623" y="291" on="1"/>
        <pt x="704" y="256" on="0"/>
        <pt x="797" y="256" on="1"/>
        <pt x="891" y="256" on="0"/>
        <pt x="1058" y="328" on="0"/>
        <pt x="1181" y="452" on="0"/>
        <pt x="1253" y="617" on="0"/>
      </contour>
      <contour>
        <pt x="340" y="711" on="1"/>
        <pt x="340" y="627" on="0"/>
        <pt x="395" y="481" on="0"/>
        <pt x="444" y="422" on="1"/>
        <pt x="965" y="1135" on="1"/>
        <pt x="924" y="1150" on="0"/>
        <pt x="842" y="1167" on="0"/>
        <pt x="797" y="1167" on="1"/>
        <pt x="702" y="1167" on="0"/>
        <pt x="536" y="1095" on="0"/>
        <pt x="412" y="972" on="0"/>
        <pt x="340" y="805" on="0"/>
      </contour>
    </TTGlyph>
    <TTGlyph name="Oslashacute" xMin="55" yMin="-31" xMax="1538" yMax="1952">
      <component glyphName="Oslash" x="0" y="0" flags="0x204"/>
      <component glyphName="acute" x="690" y="520" flags="0x4"/>
    </TTGlyph>
    <TTGlyph name="Otilde" xMin="55" yMin="-31" xMax="1538" yMax="1872">
      <component glyphName="O" x="0" y="0" flags="0x204"/>
      <component glyphName="tilde" x="467" y="455" flags="0x4"/>
    </TTGlyph>
    <TTGlyph name="P" xMin="133" yMin="0" xMax="1280" yMax="1434">
      <contour>
        <pt x="420" y="1147" on="1"/>
        <pt x="420" y="573" on="1"/>
        <pt x="707" y="573" on="1"/>
        <pt x="766" y="573" on="0"/>
        <pt x="870" y="618" on="0"/>
        <pt x="948" y="696" on="0"/>
        <pt x="993" y="801" on="0"/>
        <pt x="993" y="860" on="1"/>
        <pt x="993" y="919" on="0"/>
        <pt x="948" y="1024" on="0"/>
        <pt x="870" y="1102" on="0"/>
        <pt x="766" y="1147" on="0"/>
        <pt x="707" y="1147" on="1"/>
      </contour>
      <contour>
        <pt x="420" y="0" on="1"/>
        <pt x="133" y="0" on="1"/>
        <pt x="133" y="1434" on="1"/>
        <pt x="707" y="1434" on="1"/>
        <pt x="786" y="1434" on="0"/>
        <pt x="932" y="1393" on="0"/>
        <pt x="1059" y="1318" on="0"/>
        <pt x="1164" y="1213" on="0"/>
        <pt x="1239" y="1085" on="0"/>
        <pt x="1280" y="939" on="0"/>
        <pt x="1280" y="860" on="1"/>
        <pt x="1280" y="742" on="0"/>
        <pt x="1190" y="533" on="0"/>
        <pt x="1034" y="377" on="0"/>
        <pt x="825" y="287" on="0"/>
        <pt x="707" y="287" on="1"/>
        <pt x="420" y="287" on="1"/>
      </contour>
    </TTGlyph>
    <TTGlyph name="Q" xMin="55" yMin="-287" xMax="1538" yMax="1452">
      <contour>
        <pt x="1346" y="-287" on="1"/>
        <pt x="1020" y="-287" on="1"/>
        <pt x="848" y="-29" on="1"/>
        <pt x="834" y="-31" on="0"/>
        <pt x="809" y="-31" on="0"/>
        <pt x="797" y="-31" on="1"/>
        <pt x="695" y="-31" on="0"/>
        <pt x="506" y="22" on="0"/>
        <pt x="341" y="119" on="0"/>
        <pt x="205" y="255" on="0"/>
        <pt x="108" y="420" on="0"/>
        <pt x="55" y="609" on="0"/>
        <pt x="55" y="711" on="1"/>
        <pt x="55" y="813" on="0"/>
        <pt x="108" y="1003" on="0"/>
        <pt x="205" y="1167" on="0"/>
        <pt x="341" y="1303" on="0"/>
        <pt x="506" y="1399" on="0"/>
        <pt x="695" y="1452" on="0"/>
        <pt x="797" y="1452" on="1"/>
        <pt x="899" y="1452" on="0"/>
        <pt x="1089" y="1399" on="0"/>
        <pt x="1253" y="1303" on="0"/>
        <pt x="1389" y="1167" on="0"/>
        <pt x="1485" y="1003" on="0"/>
        <pt x="1538" y="813" on="0"/>
        <pt x="1538" y="711" on="1"/>
        <pt x="1538" y="605" on="0"/>
        <pt x="1479" y="405" on="0"/>
        <pt x="1371" y="232" on="0"/>
        <pt x="1218" y="92" on="0"/>
        <pt x="1124" y="45" on="1"/>
      </contour>
      <contour>
        <pt x="1253" y="711" on="1"/>
        <pt x="1253" y="805" on="0"/>
        <pt x="1181" y="972" on="0"/>
        <pt x="1058" y="1095" on="0"/>
        <pt x="891" y="1167" on="0"/>
        <pt x="797" y="1167" on="1"/>
        <pt x="702" y="1167" on="0"/>
        <pt x="536" y="1095" on="0"/>
        <pt x="412" y="972" on="0"/>
        <pt x="340" y="805" on="0"/>
        <pt x="340" y="711" on="1"/>
        <pt x="340" y="617" on="0"/>
        <pt x="412" y="452" on="0"/>
        <pt x="536" y="328" on="0"/>
        <pt x="702" y="256" on="0"/>
        <pt x="797" y="256" on="1"/>
        <pt x="891" y="256" on="0"/>
        <pt x="1058" y="328" on="0"/>
        <pt x="1181" y="452" on="0"/>
        <pt x="1253" y="617" on="0"/>
      </contour>
    </TTGlyph>
    <TTGlyph name="R" xMin="133" yMin="0" xMax="1280" yMax="1434">
      <contour>
        <pt x="420" y="1147" on="1"/>
        <pt x="420" y="573" on="1"/>
        <pt x="707" y="573" on="1"/>
        <pt x="766" y="573" on="0"/>
        <pt x="870" y="618" on="0"/>
        <pt x="948" y="696" on="0"/>
        <pt x="993" y="801" on="0"/>
        <pt x="993" y="860" on="1"/>
        <pt x="993" y="919" on="0"/>
        <pt x="948" y="1024" on="0"/>
        <pt x="870" y="1102" on="0"/>
        <pt x="766" y="1147" on="0"/>
        <pt x="707" y="1147" on="1"/>
      </contour>
      <contour>
        <pt x="420" y="0" on="1"/>
        <pt x="133" y="0" on="1"/>
        <pt x="133" y="1434" on="1"/>
        <pt x="707" y="1434" on="1"/>
        <pt x="786" y="1434" on="0"/>
        <pt x="932" y="1393" on="0"/>
        <pt x="1059" y="1318" on="0"/>
        <pt x="1164" y="1213" on="0"/>
        <pt x="1239" y="1085" on="0"/>
        <pt x="1280" y="939" on="0"/>
        <pt x="1280" y="860" on="1"/>
        <pt x="1280" y="786" on="0"/>
        <pt x="1243" y="646" on="0"/>
        <pt x="1174" y="520" on="0"/>
        <pt x="1074" y="414" on="0"/>
        <pt x="1012" y="375" on="1"/>
        <pt x="1171" y="0" on="1"/>
        <pt x="866" y="0" on="1"/>
        <pt x="741" y="289" on="1"/>
        <pt x="420" y="287" on="1"/>
      </contour>
    </TTGlyph>
    <TTGlyph name="Racute" xMin="133" yMin="0" xMax="1280" yMax="1932">
      <component glyphName="R" x="0" y="0" flags="0x204"/>
      <component glyphName="acute" x="539" y="500" flags="0x4"/>
    </TTGlyph>
    <TTGlyph name="Rcaron" xMin="133" yMin="0" xMax="1280" yMax="1905">
      <component glyphName="R" x="0" y="0" flags="0x204"/>
      <component glyphName="caron" x="393" y="459" flags="0x4"/>
    </TTGlyph>
    <TTGlyph name="Rcommaaccent" xMin="133" yMin="-526" xMax="1280" yMax="1434">
      <component glyphName="R" x="0" y="0" flags="0x204"/>
      <component glyphName="uni0326" x="469" y="0" flags="0x4"/>
    </TTGlyph>
    <TTGlyph name="S" xMin="49" yMin="0" xMax="1196" yMax="1434">
      <contour>
        <pt x="49" y="1004" on="1"/>
        <pt x="49" y="1093" on="0"/>
        <pt x="117" y="1249" on="0"/>
        <pt x="234" y="1366" on="0"/>
        <pt x="390" y="1434" on="0"/>
        <pt x="479" y="1434" on="1"/>
        <pt x="1137" y="1434" on="1"/>
        <pt x="1137" y="1147" on="1"/>
        <pt x="479" y="1147" on="1"/>
        <pt x="449" y="1147" on="0"/>
        <pt x="397" y="1125" on="0"/>
        <pt x="358" y="1086" on="0"/>
        <pt x="336" y="1034" on="0"/>
        <pt x="336" y="1004" on="1"/>
        <pt x="336" y="974" on="0"/>
        <pt x="358" y="921" on="0"/>
        <pt x="397" y="882" on="0"/>
        <pt x="449" y="860" on="0"/>
        <pt x="479" y="860" on="1"/>
        <pt x="766" y="860" on="1"/>
        <pt x="855" y="860" on="0"/>
        <pt x="1012" y="793" on="0"/>
        <pt x="1129" y="676" on="0"/>
        <pt x="1196" y="519" on="0"/>
        <pt x="1196" y="430" on="1"/>
        <pt x="1196" y="341" on="0"/>
        <pt x="1129" y="185" on="0"/>
        <pt x="1012" y="68" on="0"/>
        <pt x="855" y="0" on="0"/>
        <pt x="766" y="0" on="1"/>
        <pt x="129" y="0" on="1"/>
        <pt x="129" y="287" on="1"/>
        <pt x="766" y="287" on="1"/>
        <pt x="796" y="287" on="0"/>
        <pt x="848" y="309" on="0"/>
        <pt x="887" y="348" on="0"/>
        <pt x="909" y="400" on="0"/>
        <pt x="909" y="430" on="1"/>
        <pt x="909" y="460" on="0"/>
        <pt x="887" y="512" on="0"/>
        <pt x="848" y="551" on="0"/>
        <pt x="796" y="573" on="0"/>
        <pt x="766" y="573" on="1"/>
        <pt x="479" y="573" on="1"/>
        <pt x="390" y="573" on="0"/>
        <pt x="234" y="641" on="0"/>
        <pt x="117" y="758" on="0"/>
        <pt x="49" y="915" on="0"/>
      </contour>
    </TTGlyph>
    <TTGlyph name="Sacute" xMin="49" yMin="0" xMax="1196" yMax="1952">
      <component glyphName="S" x="0" y="0" flags="0x204"/>
      <component glyphName="acute" x="539" y="520" flags="0x4"/>
    </TTGlyph>
    <TTGlyph name="Scaron" xMin="49" yMin="0" xMax="1196" yMax="1917">
      <component glyphName="S" x="0" y="0" flags="0x204"/>
      <component glyphName="caron" x="348" y="471" flags="0x4"/>
    </TTGlyph>
    <TTGlyph name="Scedilla" xMin="49" yMin="-461" xMax="1196" yMax="1434">
      <contour>
        <pt x="596" y="-461" on="1"/>
        <pt x="560" y="-459" on="0"/>
        <pt x="494" y="-433" on="0"/>
        <pt x="468" y="-418" on="1"/>
        <pt x="438" y="-400" on="0"/>
        <pt x="412" y="-379" on="1"/>
        <pt x="467" y="-229" on="1"/>
        <pt x="490" y="-246" on="0"/>
        <pt x="513" y="-258" on="1"/>
        <pt x="533" y="-269" on="0"/>
        <pt x="575" y="-287" on="0"/>
        <pt x="592" y="-287" on="1"/>
        <pt x="614" y="-287" on="0"/>
        <pt x="643" y="-259" on="0"/>
        <pt x="643" y="-236" on="1"/>
        <pt x="643" y="-208" on="0"/>
        <pt x="600" y="-184" on="0"/>
        <pt x="575" y="-184" on="1"/>
        <pt x="544" y="-184" on="0"/>
        <pt x="518" y="-201" on="1"/>
        <pt x="590" y="0" on="1"/>
        <pt x="129" y="0" on="1"/>
        <pt x="129" y="287" on="1"/>
        <pt x="766" y="287" on="1"/>
        <pt x="796" y="287" on="0"/>
        <pt x="848" y="309" on="0"/>
        <pt x="887" y="348" on="0"/>
        <pt x="909" y="400" on="0"/>
        <pt x="909" y="430" on="1"/>
        <pt x="909" y="460" on="0"/>
        <pt x="887" y="512" on="0"/>
        <pt x="848" y="551" on="0"/>
        <pt x="796" y="573" on="0"/>
        <pt x="766" y="573" on="1"/>
        <pt x="479" y="573" on="1"/>
        <pt x="390" y="573" on="0"/>
        <pt x="234" y="641" on="0"/>
        <pt x="117" y="758" on="0"/>
        <pt x="49" y="915" on="0"/>
        <pt x="49" y="1004" on="1"/>
        <pt x="49" y="1093" on="0"/>
        <pt x="117" y="1249" on="0"/>
        <pt x="234" y="1366" on="0"/>
        <pt x="390" y="1434" on="0"/>
        <pt x="479" y="1434" on="1"/>
        <pt x="1137" y="1434" on="1"/>
        <pt x="1137" y="1147" on="1"/>
        <pt x="479" y="1147" on="1"/>
        <pt x="449" y="1147" on="0"/>
        <pt x="397" y="1125" on="0"/>
        <pt x="358" y="1086" on="0"/>
        <pt x="336" y="1034" on="0"/>
        <pt x="336" y="1004" on="1"/>
        <pt x="336" y="974" on="0"/>
        <pt x="358" y="921" on="0"/>
        <pt x="397" y="882" on="0"/>
        <pt x="449" y="860" on="0"/>
        <pt x="479" y="860" on="1"/>
        <pt x="766" y="860" on="1"/>
        <pt x="855" y="860" on="0"/>
        <pt x="1012" y="793" on="0"/>
        <pt x="1129" y="676" on="0"/>
        <pt x="1196" y="519" on="0"/>
        <pt x="1196" y="430" on="1"/>
        <pt x="1196" y="341" on="0"/>
        <pt x="1129" y="185" on="0"/>
        <pt x="1012" y="68" on="0"/>
        <pt x="855" y="0" on="0"/>
        <pt x="766" y="0" on="1"/>
        <pt x="713" y="0" on="1"/>
        <pt x="686" y="-78" on="1"/>
        <pt x="717" y="-82" on="0"/>
        <pt x="773" y="-110" on="0"/>
        <pt x="814" y="-155" on="0"/>
        <pt x="838" y="-216" on="0"/>
        <pt x="838" y="-252" on="1"/>
        <pt x="838" y="-302" on="0"/>
        <pt x="804" y="-380" on="0"/>
        <pt x="744" y="-433" on="0"/>
        <pt x="661" y="-461" on="0"/>
        <pt x="612" y="-461" on="1"/>
      </contour>
    </TTGlyph>
    <TTGlyph name="Scircumflex" xMin="49" yMin="0" xMax="1196" yMax="1904">
      <component glyphName="S" x="0" y="0" flags="0x204"/>
      <component glyphName="circumflex" x="352" y="479" flags="0x4"/>
    </TTGlyph>
    <TTGlyph name="T" xMin="18" yMin="0" xMax="1165" yMax="1434">
      <contour>
        <pt x="735" y="0" on="1"/>
        <pt x="449" y="0" on="1"/>
        <pt x="449" y="1147" on="1"/>
        <pt x="18" y="1147" on="1"/>
        <pt x="18" y="1434" on="1"/>
        <pt x="1165" y="1434" on="1"/>
        <pt x="1165" y="1147" on="1"/>
        <pt x="735" y="1147" on="1"/>
      </contour>
    </TTGlyph>
    <TTGlyph name="Tbar" xMin="18" yMin="0" xMax="1165" yMax="1434">
      <contour>
        <pt x="449" y="745" on="1"/>
        <pt x="449" y="1147" on="1"/>
        <pt x="18" y="1147" on="1"/>
        <pt x="18" y="1434" on="1"/>
        <pt x="1165" y="1434" on="1"/>
        <pt x="1165" y="1147" on="1"/>
        <pt x="735" y="1147" on="1"/>
        <pt x="735" y="745" on="1"/>
        <pt x="899" y="745" on="1"/>
        <pt x="899" y="473" on="1"/>
        <pt x="735" y="473" on="1"/>
        <pt x="735" y="0" on="1"/>
        <pt x="449" y="0" on="1"/>
        <pt x="449" y="473" on="1"/>
        <pt x="285" y="473" on="1"/>
        <pt x="285" y="745" on="1"/>
      </contour>
    </TTGlyph>
    <TTGlyph name="Tcaron" xMin="18" yMin="0" xMax="1165" yMax="1905">
      <component glyphName="T" x="0" y="0" flags="0x204"/>
      <component glyphName="caron" x="317" y="459" flags="0x4"/>
    </TTGlyph>
    <TTGlyph name="Tcommaaccent" xMin="18" yMin="-526" xMax="1165" yMax="1434">
      <component glyphName="T" x="0" y="0" flags="0x204"/>
      <component glyphName="uni0326" x="393" y="0" flags="0x4"/>
    </TTGlyph>
    <TTGlyph name="Thorn" xMin="133" yMin="-61" xMax="1280" yMax="1495">
      <contour>
        <pt x="420" y="1004" on="1"/>
        <pt x="420" y="430" on="1"/>
        <pt x="707" y="430" on="1"/>
        <pt x="766" y="430" on="0"/>
        <pt x="870" y="475" on="0"/>
        <pt x="948" y="553" on="0"/>
        <pt x="993" y="658" on="0"/>
        <pt x="993" y="717" on="1"/>
        <pt x="993" y="776" on="0"/>
        <pt x="948" y="880" on="0"/>
        <pt x="870" y="958" on="0"/>
        <pt x="766" y="1004" on="0"/>
        <pt x="707" y="1004" on="1"/>
      </contour>
      <contour>
        <pt x="133" y="1495" on="1"/>
        <pt x="420" y="1495" on="1"/>
        <pt x="420" y="1290" on="1"/>
        <pt x="707" y="1290" on="1"/>
        <pt x="825" y="1290" on="0"/>
        <pt x="1034" y="1200" on="0"/>
        <pt x="1190" y="1044" on="0"/>
        <pt x="1280" y="835" on="0"/>
        <pt x="1280" y="717" on="1"/>
        <pt x="1280" y="598" on="0"/>
        <pt x="1190" y="389" on="0"/>
        <pt x="1034" y="233" on="0"/>
        <pt x="825" y="143" on="0"/>
        <pt x="707" y="143" on="1"/>
        <pt x="420" y="143" on="1"/>
        <pt x="420" y="-61" on="1"/>
        <pt x="133" y="-61" on="1"/>
      </contour>
    </TTGlyph>
    <TTGlyph name="U" xMin="117" yMin="0" xMax="1264" yMax="1434">
      <contour>
        <pt x="1264" y="573" on="1"/>
        <pt x="1264" y="454" on="0"/>
        <pt x="1174" y="245" on="0"/>
        <pt x="1018" y="90" on="0"/>
        <pt x="809" y="0" on="0"/>
        <pt x="690" y="0" on="1"/>
        <pt x="571" y="0" on="0"/>
        <pt x="362" y="90" on="0"/>
        <pt x="207" y="245" on="0"/>
        <pt x="117" y="454" on="0"/>
        <pt x="117" y="573" on="1"/>
        <pt x="117" y="1434" on="1"/>
        <pt x="403" y="1434" on="1"/>
        <pt x="403" y="573" on="1"/>
        <pt x="403" y="514" on="0"/>
        <pt x="448" y="410" on="0"/>
        <pt x="526" y="332" on="0"/>
        <pt x="631" y="287" on="0"/>
        <pt x="690" y="287" on="1"/>
        <pt x="749" y="287" on="0"/>
        <pt x="854" y="332" on="0"/>
        <pt x="932" y="410" on="0"/>
        <pt x="977" y="514" on="0"/>
        <pt x="977" y="573" on="1"/>
        <pt x="977" y="1434" on="1"/>
        <pt x="1264" y="1434" on="1"/>
      </contour>
    </TTGlyph>
    <TTGlyph name="Uacute" xMin="117" yMin="0" xMax="1264" yMax="1944">
      <component glyphName="U" x="0" y="0" flags="0x204"/>
      <component glyphName="acute" x="592" y="512" flags="0x4"/>
    </TTGlyph>
    <TTGlyph name="Ubreve" xMin="117" yMin="0" xMax="1264" yMax="1786">
      <component glyphName="U" x="0" y="0" flags="0x204"/>
      <component glyphName="breve" x="469" y="397" flags="0x4"/>
    </TTGlyph>
    <TTGlyph name="Ucircumflex" xMin="117" yMin="0" xMax="1264" yMax="1890">
      <component glyphName="U" x="0" y="0" flags="0x204"/>
      <component glyphName="circumflex" x="416" y="465" flags="0x4"/>
    </TTGlyph>
    <TTGlyph name="Udieresis" xMin="117" yMin="0" xMax="1264" yMax="1753">
      <component glyphName="U" x="0" y="0" flags="0x204"/>
      <component glyphName="dieresis" x="381" y="414" flags="0x4"/>
    </TTGlyph>
    <TTGlyph name="Ugrave" xMin="117" yMin="0" xMax="1264" yMax="1924">
      <component glyphName="U" x="0" y="0" flags="0x204"/>
      <component glyphName="grave" x="348" y="492" flags="0x4"/>
    </TTGlyph>
    <TTGlyph name="Uhungarumlaut" xMin="117" yMin="0" xMax="1264" yMax="1976">
      <component glyphName="U" x="0" y="0" flags="0x204"/>
      <component glyphName="hungarumlaut" x="397" y="438" flags="0x4"/>
    </TTGlyph>
    <TTGlyph name="Umacron" xMin="117" yMin="0" xMax="1264" yMax="1725">
      <component glyphName="U" x="0" y="0" flags="0x204"/>
      <component glyphName="macron" x="436" y="418" flags="0x4"/>
    </TTGlyph>
    <TTGlyph name="Uogonek" xMin="117" yMin="-365" xMax="1264" yMax="1434">
      <contour>
        <pt x="662" y="-365" on="1"/>
        <pt x="633" y="-365" on="0"/>
        <pt x="563" y="-341" on="0"/>
        <pt x="503" y="-295" on="0"/>
        <pt x="463" y="-225" on="0"/>
        <pt x="463" y="-180" on="1"/>
        <pt x="463" y="-151" on="0"/>
        <pt x="482" y="-98" on="0"/>
        <pt x="514" y="-51" on="0"/>
        <pt x="557" y="-9" on="0"/>
        <pt x="580" y="10" on="1"/>
        <pt x="481" y="29" on="0"/>
        <pt x="311" y="131" on="0"/>
        <pt x="187" y="280" on="0"/>
        <pt x="117" y="468" on="0"/>
        <pt x="117" y="573" on="1"/>
        <pt x="117" y="1434" on="1"/>
        <pt x="403" y="1434" on="1"/>
        <pt x="403" y="573" on="1"/>
        <pt x="403" y="514" on="0"/>
        <pt x="448" y="410" on="0"/>
        <pt x="526" y="332" on="0"/>
        <pt x="631" y="287" on="0"/>
        <pt x="690" y="287" on="1"/>
        <pt x="749" y="287" on="0"/>
        <pt x="854" y="332" on="0"/>
        <pt x="932" y="410" on="0"/>
        <pt x="977" y="514" on="0"/>
        <pt x="977" y="573" on="1"/>
        <pt x="977" y="1434" on="1"/>
        <pt x="1264" y="1434" on="1"/>
        <pt x="1264" y="573" on="1"/>
        <pt x="1264" y="497" on="0"/>
        <pt x="1226" y="355" on="0"/>
        <pt x="1156" y="231" on="0"/>
        <pt x="1058" y="127" on="0"/>
        <pt x="939" y="51" on="0"/>
        <pt x="800" y="4" on="0"/>
        <pt x="725" y="0" on="1"/>
        <pt x="712" y="-17" on="0"/>
        <pt x="686" y="-54" on="0"/>
        <pt x="666" y="-90" on="0"/>
        <pt x="653" y="-123" on="0"/>
        <pt x="653" y="-135" on="1"/>
        <pt x="653" y="-151" on="0"/>
        <pt x="673" y="-176" on="0"/>
        <pt x="690" y="-176" on="1"/>
        <pt x="712" y="-176" on="0"/>
        <pt x="750" y="-147" on="0"/>
        <pt x="758" y="-127" on="1"/>
        <pt x="899" y="-258" on="1"/>
        <pt x="851" y="-306" on="0"/>
        <pt x="731" y="-365" on="0"/>
      </contour>
    </TTGlyph>
    <TTGlyph name="Uring" xMin="117" yMin="0" xMax="1264" yMax="1886">
      <component glyphName="U" x="0" y="0" flags="0x204"/>
      <component glyphName="ring" x="492" y="438" flags="0x4"/>
    </TTGlyph>
    <TTGlyph name="Utilde" xMin="117" yMin="0" xMax="1264" yMax="1855">
      <component glyphName="U" x="0" y="0" flags="0x204"/>
      <component glyphName="tilde" x="360" y="438" flags="0x4"/>
    </TTGlyph>
    <TTGlyph name="V" xMin="2" yMin="0" xMax="1229" yMax="1434">
      <contour>
        <pt x="1229" y="1434" on="1"/>
        <pt x="758" y="0" on="1"/>
        <pt x="471" y="0" on="1"/>
        <pt x="2" y="1434" on="1"/>
        <pt x="328" y="1434" on="1"/>
        <pt x="614" y="477" on="1"/>
        <pt x="901" y="1434" on="1"/>
      </contour>
    </TTGlyph>
    <TTGlyph name="W" xMin="123" yMin="-20" xMax="1556" yMax="1434">
      <contour>
        <pt x="1556" y="410" on="1"/>
        <pt x="1556" y="321" on="0"/>
        <pt x="1489" y="164" on="0"/>
        <pt x="1372" y="47" on="0"/>
        <pt x="1215" y="-20" on="0"/>
        <pt x="1126" y="-20" on="1"/>
        <pt x="1046" y="-20" on="0"/>
        <pt x="899" y="36" on="0"/>
        <pt x="840" y="90" on="1"/>
        <pt x="781" y="36" on="0"/>
        <pt x="633" y="-20" on="0"/>
        <pt x="553" y="-20" on="1"/>
        <pt x="464" y="-20" on="0"/>
        <pt x="307" y="47" on="0"/>
        <pt x="190" y="164" on="0"/>
        <pt x="123" y="321" on="0"/>
        <pt x="123" y="410" on="1"/>
        <pt x="123" y="1434" on="1"/>
        <pt x="410" y="1434" on="1"/>
        <pt x="410" y="410" on="1"/>
        <pt x="410" y="380" on="0"/>
        <pt x="432" y="327" on="0"/>
        <pt x="471" y="288" on="0"/>
        <pt x="523" y="266" on="0"/>
        <pt x="553" y="266" on="1"/>
        <pt x="583" y="266" on="0"/>
        <pt x="635" y="288" on="0"/>
        <pt x="674" y="327" on="0"/>
        <pt x="696" y="380" on="0"/>
        <pt x="696" y="410" on="1"/>
        <pt x="696" y="1434" on="1"/>
        <pt x="983" y="1434" on="1"/>
        <pt x="983" y="410" on="1"/>
        <pt x="983" y="380" on="0"/>
        <pt x="1005" y="327" on="0"/>
        <pt x="1044" y="288" on="0"/>
        <pt x="1096" y="266" on="0"/>
        <pt x="1126" y="266" on="1"/>
        <pt x="1156" y="266" on="0"/>
        <pt x="1208" y="288" on="0"/>
        <pt x="1247" y="327" on="0"/>
        <pt x="1270" y="380" on="0"/>
        <pt x="1270" y="410" on="1"/>
        <pt x="1270" y="1434" on="1"/>
        <pt x="1556" y="1434" on="1"/>
      </contour>
    </TTGlyph>
    <TTGlyph name="Wacute" xMin="123" yMin="-20" xMax="1556" yMax="1932">
      <component glyphName="W" x="0" y="0" flags="0x204"/>
      <component glyphName="acute" x="752" y="500" flags="0x4"/>
    </TTGlyph>
    <TTGlyph name="Wcircumflex" xMin="123" yMin="-20" xMax="1556" yMax="1904">
      <component glyphName="W" x="0" y="0" flags="0x204"/>
      <component glyphName="circumflex" x="565" y="479" flags="0x4"/>
    </TTGlyph>
    <TTGlyph name="Wdieresis" xMin="123" yMin="-20" xMax="1556" yMax="1777">
      <component glyphName="W" x="0" y="0" flags="0x204"/>
      <component glyphName="dieresis" x="530" y="438" flags="0x4"/>
    </TTGlyph>
    <TTGlyph name="Wgrave" xMin="123" yMin="-20" xMax="1556" yMax="1932">
      <component glyphName="W" x="0" y="0" flags="0x204"/>
      <component glyphName="grave" x="453" y="500" flags="0x4"/>
    </TTGlyph>
    <TTGlyph name="X" xMin="0" yMin="0" xMax="1247" yMax="1434">
      <contour>
        <pt x="1247" y="0" on="1"/>
        <pt x="899" y="0" on="1"/>
        <pt x="623" y="463" on="1"/>
        <pt x="346" y="0" on="1"/>
        <pt x="0" y="0" on="1"/>
        <pt x="440" y="717" on="1"/>
        <pt x="0" y="1434" on="1"/>
        <pt x="346" y="1434" on="1"/>
        <pt x="623" y="971" on="1"/>
        <pt x="899" y="1434" on="1"/>
        <pt x="1247" y="1434" on="1"/>
        <pt x="807" y="717" on="1"/>
      </contour>
    </TTGlyph>
    <TTGlyph name="Y" xMin="61" yMin="0" xMax="1208" yMax="1434">
      <contour>
        <pt x="778" y="0" on="1"/>
        <pt x="492" y="0" on="1"/>
        <pt x="492" y="449" on="1"/>
        <pt x="397" y="473" on="0"/>
        <pt x="238" y="579" on="0"/>
        <pt x="124" y="726" on="0"/>
        <pt x="61" y="905" on="0"/>
        <pt x="61" y="1004" on="1"/>
        <pt x="61" y="1434" on="1"/>
        <pt x="348" y="1434" on="1"/>
        <pt x="348" y="1004" on="1"/>
        <pt x="348" y="945" on="0"/>
        <pt x="393" y="840" on="0"/>
        <pt x="471" y="762" on="0"/>
        <pt x="576" y="717" on="0"/>
        <pt x="635" y="717" on="1"/>
        <pt x="694" y="717" on="0"/>
        <pt x="799" y="762" on="0"/>
        <pt x="877" y="840" on="0"/>
        <pt x="922" y="945" on="0"/>
        <pt x="922" y="1004" on="1"/>
        <pt x="922" y="1434" on="1"/>
        <pt x="1208" y="1434" on="1"/>
        <pt x="1208" y="1004" on="1"/>
        <pt x="1208" y="905" on="0"/>
        <pt x="1145" y="726" on="0"/>
        <pt x="1031" y="579" on="0"/>
        <pt x="873" y="473" on="0"/>
        <pt x="778" y="449" on="1"/>
      </contour>
    </TTGlyph>
    <TTGlyph name="Yacute" xMin="61" yMin="0" xMax="1208" yMax="1919">
      <component glyphName="Y" x="0" y="0" flags="0x204"/>
      <component glyphName="acute" x="528" y="487" flags="0x4"/>
    </TTGlyph>
    <TTGlyph name="Ycircumflex" xMin="61" yMin="0" xMax="1208" yMax="1863">
      <component glyphName="Y" x="0" y="0" flags="0x204"/>
      <component glyphName="circumflex" x="360" y="438" flags="0x4"/>
    </TTGlyph>
    <TTGlyph name="Ydieresis" xMin="61" yMin="0" xMax="1208" yMax="1773">
      <component glyphName="Y" x="0" y="0" flags="0x204"/>
      <component glyphName="dieresis" x="326" y="434" flags="0x4"/>
    </TTGlyph>
    <TTGlyph name="Ygrave" xMin="61" yMin="0" xMax="1208" yMax="1932">
      <component glyphName="Y" x="0" y="0" flags="0x204"/>
      <component glyphName="grave" x="209" y="500" flags="0x4"/>
    </TTGlyph>
    <TTGlyph name="Z" xMin="47" yMin="0" xMax="1157" yMax="1434">
      <contour>
        <pt x="1157" y="0" on="1"/>
        <pt x="47" y="0" on="1"/>
        <pt x="659" y="1147" on="1"/>
        <pt x="47" y="1147" on="1"/>
        <pt x="47" y="1434" on="1"/>
        <pt x="1157" y="1434" on="1"/>
        <pt x="547" y="287" on="1"/>
        <pt x="1157" y="287" on="1"/>
      </contour>
    </TTGlyph>
    <TTGlyph name="Zacute" xMin="47" yMin="0" xMax="1157" yMax="1932">
      <component glyphName="Z" x="0" y="0" flags="0x204"/>
      <component glyphName="acute" x="516" y="500" flags="0x4"/>
    </TTGlyph>
    <TTGlyph name="Zcaron" xMin="47" yMin="0" xMax="1157" yMax="1911">
      <component glyphName="Z" x="0" y="0" flags="0x204"/>
      <component glyphName="caron" x="328" y="465" flags="0x4"/>
    </TTGlyph>
    <TTGlyph name="Zdotaccent" xMin="47" yMin="0" xMax="1157" yMax="1774">
      <component glyphName="Z" x="0" y="0" flags="0x204"/>
      <component glyphName="dotaccent" x="473" y="418" flags="0x4"/>
    </TTGlyph>
    <TTGlyph name="a" xMin="47" yMin="-20" xMax="1141" yMax="1112">
      <contour>
        <pt x="1141" y="0" on="1"/>
        <pt x="1075" y="0" on="1"/>
        <pt x="969" y="147" on="1"/>
        <pt x="930" y="112" on="0"/>
        <pt x="843" y="51" on="0"/>
        <pt x="747" y="6" on="0"/>
        <pt x="646" y="-20" on="0"/>
        <pt x="594" y="-20" on="1"/>
        <pt x="481" y="-20" on="0"/>
        <pt x="282" y="56" on="0"/>
        <pt x="133" y="201" on="0"/>
        <pt x="47" y="411" on="0"/>
        <pt x="47" y="545" on="1"/>
        <pt x="47" y="670" on="0"/>
        <pt x="133" y="879" on="0"/>
        <pt x="282" y="1029" on="0"/>
        <pt x="481" y="1112" on="0"/>
        <pt x="594" y="1112" on="1"/>
        <pt x="646" y="1112" on="0"/>
        <pt x="748" y="1086" on="0"/>
        <pt x="844" y="1040" on="0"/>
        <pt x="931" y="978" on="0"/>
        <pt x="969" y="942" on="1"/>
        <pt x="1075" y="1069" on="1"/>
        <pt x="1141" y="1069" on="1"/>
      </contour>
      <contour>
        <pt x="866" y="545" on="1"/>
        <pt x="866" y="601" on="0"/>
        <pt x="823" y="706" on="0"/>
        <pt x="749" y="787" on="0"/>
        <pt x="650" y="836" on="0"/>
        <pt x="594" y="836" on="1"/>
        <pt x="538" y="836" on="0"/>
        <pt x="439" y="798" on="0"/>
        <pt x="366" y="724" on="0"/>
        <pt x="324" y="615" on="0"/>
        <pt x="324" y="545" on="1"/>
        <pt x="324" y="475" on="0"/>
        <pt x="366" y="366" on="0"/>
        <pt x="439" y="292" on="0"/>
        <pt x="538" y="254" on="0"/>
        <pt x="594" y="254" on="1"/>
        <pt x="650" y="254" on="0"/>
        <pt x="749" y="303" on="0"/>
        <pt x="823" y="384" on="0"/>
        <pt x="866" y="489" on="0"/>
      </contour>
    </TTGlyph>
    <TTGlyph name="aacute" xMin="47" yMin="-20" xMax="1141" yMax="1618">
      <component glyphName="a" x="0" y="0" flags="0x204"/>
      <component glyphName="acute" x="477" y="186" flags="0x4"/>
    </TTGlyph>
    <TTGlyph name="abreve" xMin="47" yMin="-20" xMax="1141" yMax="1479">
      <component glyphName="a" x="0" y="0" flags="0x204"/>
      <component glyphName="breve" x="344" y="90" flags="0x4"/>
    </TTGlyph>
    <TTGlyph name="acircumflex" xMin="47" yMin="-20" xMax="1141" yMax="1566">
      <component glyphName="a" x="0" y="0" flags="0x204"/>
      <component glyphName="circumflex" x="319" y="141" flags="0x4"/>
    </TTGlyph>
    <TTGlyph name="acute" xMin="0" yMin="1006" xMax="461" yMax="1432">
      <contour>
        <pt x="113" y="1006" on="1"/>
        <pt x="0" y="1155" on="1"/>
        <pt x="297" y="1432" on="1"/>
        <pt x="461" y="1223" on="1"/>
      </contour>
    </TTGlyph>
    <TTGlyph name="adieresis" xMin="47" yMin="-20" xMax="1141" yMax="1427">
      <component glyphName="a" x="0" y="0" flags="0x204"/>
      <component glyphName="dieresis" x="285" y="88" flags="0x4"/>
    </TTGlyph>
    <TTGlyph name="ae" xMin="47" yMin="-20" xMax="1966" yMax="1112">
      <contour>
        <pt x="1454" y="262" on="1"/>
        <pt x="1470" y="257" on="0"/>
        <pt x="1502" y="254" on="0"/>
        <pt x="1518" y="254" on="1"/>
        <pt x="1558" y="254" on="0"/>
        <pt x="1632" y="276" on="0"/>
        <pt x="1696" y="317" on="0"/>
        <pt x="1747" y="376" on="0"/>
        <pt x="1763" y="412" on="1"/>
        <pt x="1964" y="211" on="1"/>
        <pt x="1926" y="157" on="0"/>
        <pt x="1827" y="71" on="0"/>
        <pt x="1712" y="11" on="0"/>
        <pt x="1585" y="-20" on="0"/>
        <pt x="1518" y="-20" on="1"/>
        <pt x="1406" y="-20" on="0"/>
        <pt x="1215" y="58" on="0"/>
        <pt x="1141" y="129" on="1"/>
        <pt x="1141" y="0" on="1"/>
        <pt x="1075" y="0" on="1"/>
        <pt x="969" y="147" on="1"/>
        <pt x="930" y="112" on="0"/>
        <pt x="843" y="51" on="0"/>
        <pt x="747" y="6" on="0"/>
        <pt x="646" y="-20" on="0"/>
        <pt x="594" y="-20" on="1"/>
        <pt x="481" y="-20" on="0"/>
        <pt x="282" y="56" on="0"/>
        <pt x="133" y="201" on="0"/>
        <pt x="47" y="411" on="0"/>
        <pt x="47" y="545" on="1"/>
        <pt x="47" y="670" on="0"/>
        <pt x="133" y="879" on="0"/>
        <pt x="282" y="1029" on="0"/>
        <pt x="481" y="1112" on="0"/>
        <pt x="594" y="1112" on="1"/>
        <pt x="646" y="1112" on="0"/>
        <pt x="748" y="1086" on="0"/>
        <pt x="844" y="1040" on="0"/>
        <pt x="931" y="978" on="0"/>
        <pt x="969" y="942" on="1"/>
        <pt x="1075" y="1069" on="1"/>
        <pt x="1141" y="1069" on="1"/>
        <pt x="1141" y="965" on="1"/>
        <pt x="1215" y="1036" on="0"/>
        <pt x="1406" y="1112" on="0"/>
        <pt x="1518" y="1112" on="1"/>
        <pt x="1585" y="1112" on="0"/>
        <pt x="1713" y="1080" on="0"/>
        <pt x="1828" y="1020" on="0"/>
        <pt x="1928" y="933" on="0"/>
        <pt x="1966" y="879" on="1"/>
      </contour>
      <contour>
        <pt x="866" y="545" on="1"/>
        <pt x="866" y="601" on="0"/>
        <pt x="823" y="706" on="0"/>
        <pt x="749" y="787" on="0"/>
        <pt x="650" y="836" on="0"/>
        <pt x="594" y="836" on="1"/>
        <pt x="538" y="836" on="0"/>
        <pt x="439" y="798" on="0"/>
        <pt x="366" y="724" on="0"/>
        <pt x="324" y="615" on="0"/>
        <pt x="324" y="545" on="1"/>
        <pt x="324" y="475" on="0"/>
        <pt x="366" y="366" on="0"/>
        <pt x="439" y="292" on="0"/>
        <pt x="538" y="254" on="0"/>
        <pt x="594" y="254" on="1"/>
        <pt x="650" y="254" on="0"/>
        <pt x="749" y="303" on="0"/>
        <pt x="823" y="384" on="0"/>
        <pt x="866" y="489" on="0"/>
      </contour>
      <contour>
        <pt x="1593" y="825" on="1"/>
        <pt x="1575" y="832" on="0"/>
        <pt x="1538" y="836" on="0"/>
        <pt x="1518" y="836" on="1"/>
        <pt x="1462" y="836" on="0"/>
        <pt x="1363" y="795" on="0"/>
        <pt x="1289" y="719" on="0"/>
        <pt x="1247" y="612" on="0"/>
        <pt x="1247" y="545" on="1"/>
        <pt x="1247" y="530" on="0"/>
        <pt x="1250" y="492" on="0"/>
        <pt x="1257" y="453" on="0"/>
        <pt x="1268" y="417" on="0"/>
        <pt x="1276" y="403" on="1"/>
      </contour>
    </TTGlyph>
    <TTGlyph name="aeacute" xMin="47" yMin="-20" xMax="1966" yMax="1575">
      <component glyphName="ae" x="0" y="0" flags="0x204"/>
      <component glyphName="acute" x="973" y="143" flags="0x4"/>
    </TTGlyph>
    <TTGlyph name="agrave" xMin="47" yMin="-20" xMax="1141" yMax="1620">
      <component glyphName="a" x="0" y="0" flags="0x204"/>
      <component glyphName="grave" x="242" y="188" flags="0x4"/>
    </TTGlyph>
    <TTGlyph name="amacron" xMin="47" yMin="-20" xMax="1141" yMax="1409">
      <component glyphName="a" x="0" y="0" flags="0x204"/>
      <component glyphName="macron" x="328" y="102" flags="0x4"/>
    </TTGlyph>
    <TTGlyph name="ampersand" xMin="121" yMin="0" xMax="870" yMax="1436">
      <contour>
        <pt x="651" y="1253" on="1"/>
        <pt x="870" y="1253" on="1"/>
        <pt x="870" y="1036" on="1"/>
        <pt x="446" y="1036" on="1"/>
        <pt x="424" y="1036" on="0"/>
        <pt x="385" y="1019" on="0"/>
        <pt x="355" y="989" on="0"/>
        <pt x="338" y="950" on="0"/>
        <pt x="338" y="928" on="1"/>
        <pt x="338" y="905" on="0"/>
        <pt x="355" y="864" on="0"/>
        <pt x="385" y="834" on="0"/>
        <pt x="424" y="817" on="0"/>
        <pt x="446" y="817" on="1"/>
        <pt x="707" y="817" on="1"/>
        <pt x="707" y="600" on="1"/>
        <pt x="446" y="600" on="1"/>
        <pt x="424" y="600" on="0"/>
        <pt x="385" y="583" on="0"/>
        <pt x="355" y="553" on="0"/>
        <pt x="338" y="514" on="0"/>
        <pt x="338" y="492" on="1"/>
        <pt x="338" y="469" on="0"/>
        <pt x="355" y="428" on="0"/>
        <pt x="385" y="398" on="0"/>
        <pt x="424" y="381" on="0"/>
        <pt x="446" y="381" on="1"/>
        <pt x="870" y="381" on="1"/>
        <pt x="870" y="164" on="1"/>
        <pt x="651" y="164" on="1"/>
        <pt x="651" y="0" on="1"/>
        <pt x="467" y="0" on="1"/>
        <pt x="467" y="164" on="1"/>
        <pt x="446" y="164" on="1"/>
        <pt x="378" y="164" on="0"/>
        <pt x="260" y="215" on="0"/>
        <pt x="172" y="304" on="0"/>
        <pt x="121" y="423" on="0"/>
        <pt x="121" y="492" on="1"/>
        <pt x="121" y="552" on="0"/>
        <pt x="163" y="664" on="0"/>
        <pt x="205" y="709" on="1"/>
        <pt x="163" y="754" on="0"/>
        <pt x="121" y="866" on="0"/>
        <pt x="121" y="928" on="1"/>
        <pt x="121" y="995" on="0"/>
        <pt x="172" y="1114" on="0"/>
        <pt x="260" y="1202" on="0"/>
        <pt x="378" y="1253" on="0"/>
        <pt x="446" y="1253" on="1"/>
        <pt x="467" y="1253" on="1"/>
        <pt x="467" y="1436" on="1"/>
        <pt x="651" y="1436" on="1"/>
      </contour>
    </TTGlyph>
    <TTGlyph name="aogonek" xMin="47" yMin="-365" xMax="1309" yMax="1112">
      <contour>
        <pt x="1141" y="0" on="1"/>
        <pt x="1126" y="-17" on="0"/>
        <pt x="1098" y="-54" on="0"/>
        <pt x="1076" y="-90" on="0"/>
        <pt x="1063" y="-123" on="0"/>
        <pt x="1063" y="-135" on="1"/>
        <pt x="1063" y="-151" on="0"/>
        <pt x="1083" y="-176" on="0"/>
        <pt x="1100" y="-176" on="1"/>
        <pt x="1121" y="-176" on="0"/>
        <pt x="1159" y="-147" on="0"/>
        <pt x="1167" y="-127" on="1"/>
        <pt x="1309" y="-258" on="1"/>
        <pt x="1261" y="-306" on="0"/>
        <pt x="1140" y="-365" on="0"/>
        <pt x="1071" y="-365" on="1"/>
        <pt x="1042" y="-365" on="0"/>
        <pt x="972" y="-341" on="0"/>
        <pt x="912" y="-295" on="0"/>
        <pt x="872" y="-225" on="0"/>
        <pt x="872" y="-180" on="1"/>
        <pt x="872" y="-143" on="0"/>
        <pt x="903" y="-79" on="0"/>
        <pt x="951" y="-22" on="0"/>
        <pt x="1010" y="28" on="0"/>
        <pt x="1038" y="49" on="1"/>
        <pt x="969" y="147" on="1"/>
        <pt x="930" y="112" on="0"/>
        <pt x="843" y="51" on="0"/>
        <pt x="747" y="6" on="0"/>
        <pt x="646" y="-20" on="0"/>
        <pt x="594" y="-20" on="1"/>
        <pt x="481" y="-20" on="0"/>
        <pt x="282" y="56" on="0"/>
        <pt x="133" y="201" on="0"/>
        <pt x="47" y="411" on="0"/>
        <pt x="47" y="545" on="1"/>
        <pt x="47" y="670" on="0"/>
        <pt x="133" y="879" on="0"/>
        <pt x="282" y="1029" on="0"/>
        <pt x="481" y="1112" on="0"/>
        <pt x="594" y="1112" on="1"/>
        <pt x="646" y="1112" on="0"/>
        <pt x="748" y="1086" on="0"/>
        <pt x="844" y="1040" on="0"/>
        <pt x="931" y="978" on="0"/>
        <pt x="969" y="942" on="1"/>
        <pt x="1075" y="1069" on="1"/>
        <pt x="1141" y="1069" on="1"/>
      </contour>
      <contour>
        <pt x="866" y="545" on="1"/>
        <pt x="866" y="601" on="0"/>
        <pt x="823" y="706" on="0"/>
        <pt x="749" y="787" on="0"/>
        <pt x="650" y="836" on="0"/>
        <pt x="594" y="836" on="1"/>
        <pt x="538" y="836" on="0"/>
        <pt x="439" y="798" on="0"/>
        <pt x="366" y="724" on="0"/>
        <pt x="324" y="615" on="0"/>
        <pt x="324" y="545" on="1"/>
        <pt x="324" y="475" on="0"/>
        <pt x="366" y="366" on="0"/>
        <pt x="439" y="292" on="0"/>
        <pt x="538" y="254" on="0"/>
        <pt x="594" y="254" on="1"/>
        <pt x="650" y="254" on="0"/>
        <pt x="749" y="303" on="0"/>
        <pt x="823" y="384" on="0"/>
        <pt x="866" y="489" on="0"/>
      </contour>
    </TTGlyph>
    <TTGlyph name="approxequal" xMin="125" yMin="305" xMax="850" yMax="1130">
      <contour>
        <pt x="825" y="1130" on="1"/>
        <pt x="832" y="1110" on="0"/>
        <pt x="837" y="1087" on="1"/>
        <pt x="842" y="1067" on="0"/>
        <pt x="850" y="1017" on="0"/>
        <pt x="850" y="989" on="1"/>
        <pt x="850" y="934" on="0"/>
        <pt x="818" y="847" on="0"/>
        <pt x="761" y="786" on="0"/>
        <pt x="684" y="754" on="0"/>
        <pt x="639" y="754" on="1"/>
        <pt x="589" y="754" on="0"/>
        <pt x="519" y="797" on="0"/>
        <pt x="465" y="850" on="0"/>
        <pt x="418" y="893" on="0"/>
        <pt x="391" y="893" on="1"/>
        <pt x="369" y="893" on="0"/>
        <pt x="344" y="854" on="0"/>
        <pt x="344" y="836" on="1"/>
        <pt x="344" y="795" on="0"/>
        <pt x="371" y="754" on="1"/>
        <pt x="164" y="745" on="1"/>
        <pt x="153" y="766" on="0"/>
        <pt x="144" y="792" on="1"/>
        <pt x="136" y="815" on="0"/>
        <pt x="125" y="877" on="0"/>
        <pt x="125" y="915" on="1"/>
        <pt x="125" y="963" on="0"/>
        <pt x="156" y="1041" on="0"/>
        <pt x="214" y="1095" on="0"/>
        <pt x="295" y="1124" on="0"/>
        <pt x="346" y="1124" on="1"/>
        <pt x="388" y="1124" on="0"/>
        <pt x="449" y="1103" on="0"/>
        <pt x="494" y="1073" on="0"/>
        <pt x="527" y="1036" on="0"/>
        <pt x="555" y="1006" on="0"/>
        <pt x="583" y="985" on="0"/>
        <pt x="600" y="985" on="1"/>
        <pt x="619" y="985" on="0"/>
        <pt x="639" y="1018" on="0"/>
        <pt x="639" y="1042" on="1"/>
        <pt x="639" y="1058" on="0"/>
        <pt x="629" y="1088" on="0"/>
        <pt x="621" y="1102" on="1"/>
      </contour>
      <contour>
        <pt x="825" y="690" on="1"/>
        <pt x="832" y="670" on="0"/>
        <pt x="837" y="647" on="1"/>
        <pt x="842" y="627" on="0"/>
        <pt x="850" y="577" on="0"/>
        <pt x="850" y="549" on="1"/>
        <pt x="850" y="493" on="0"/>
        <pt x="818" y="406" on="0"/>
        <pt x="761" y="345" on="0"/>
        <pt x="684" y="313" on="0"/>
        <pt x="639" y="313" on="1"/>
        <pt x="589" y="313" on="0"/>
        <pt x="519" y="357" on="0"/>
        <pt x="465" y="409" on="0"/>
        <pt x="418" y="453" on="0"/>
        <pt x="391" y="453" on="1"/>
        <pt x="369" y="453" on="0"/>
        <pt x="344" y="414" on="0"/>
        <pt x="344" y="395" on="1"/>
        <pt x="344" y="374" on="0"/>
        <pt x="358" y="333" on="0"/>
        <pt x="371" y="313" on="1"/>
        <pt x="164" y="305" on="1"/>
        <pt x="153" y="326" on="0"/>
        <pt x="144" y="352" on="1"/>
        <pt x="136" y="375" on="0"/>
        <pt x="125" y="437" on="0"/>
        <pt x="125" y="475" on="1"/>
        <pt x="125" y="523" on="0"/>
        <pt x="156" y="601" on="0"/>
        <pt x="214" y="655" on="0"/>
        <pt x="295" y="684" on="0"/>
        <pt x="346" y="684" on="1"/>
        <pt x="388" y="684" on="0"/>
        <pt x="449" y="663" on="0"/>
        <pt x="494" y="633" on="0"/>
        <pt x="527" y="596" on="0"/>
        <pt x="555" y="566" on="0"/>
        <pt x="583" y="545" on="0"/>
        <pt x="600" y="545" on="1"/>
        <pt x="619" y="545" on="0"/>
        <pt x="639" y="577" on="0"/>
        <pt x="639" y="602" on="1"/>
        <pt x="639" y="618" on="0"/>
        <pt x="629" y="648" on="0"/>
        <pt x="621" y="662" on="1"/>
      </contour>
    </TTGlyph>
    <TTGlyph name="aring" xMin="47" yMin="-20" xMax="1141" yMax="1585">
      <component glyphName="a" x="0" y="0" flags="0x204"/>
      <component glyphName="ring" x="395" y="137" flags="0x4"/>
    </TTGlyph>
    <TTGlyph name="asciicircum" xMin="0" yMin="997" xMax="602" yMax="1436">
      <contour>
        <pt x="0" y="1155" on="1"/>
        <pt x="297" y="1436" on="1"/>
        <pt x="602" y="1155" on="1"/>
        <pt x="477" y="997" on="1"/>
        <pt x="301" y="1157" on="1"/>
        <pt x="135" y="1001" on="1"/>
      </contour>
    </TTGlyph>
    <TTGlyph name="asciitilde" xMin="102" yMin="561" xMax="827" yMax="946">
      <contour>
        <pt x="803" y="946" on="1"/>
        <pt x="810" y="926" on="0"/>
        <pt x="815" y="903" on="1"/>
        <pt x="820" y="883" on="0"/>
        <pt x="827" y="833" on="0"/>
        <pt x="827" y="805" on="1"/>
        <pt x="827" y="749" on="0"/>
        <pt x="795" y="662" on="0"/>
        <pt x="738" y="601" on="0"/>
        <pt x="661" y="569" on="0"/>
        <pt x="616" y="569" on="1"/>
        <pt x="566" y="569" on="0"/>
        <pt x="496" y="613" on="0"/>
        <pt x="442" y="665" on="0"/>
        <pt x="396" y="709" on="0"/>
        <pt x="369" y="709" on="1"/>
        <pt x="347" y="709" on="0"/>
        <pt x="322" y="670" on="0"/>
        <pt x="322" y="651" on="1"/>
        <pt x="322" y="630" on="0"/>
        <pt x="336" y="589" on="0"/>
        <pt x="348" y="569" on="1"/>
        <pt x="141" y="561" on="1"/>
        <pt x="130" y="582" on="0"/>
        <pt x="121" y="608" on="1"/>
        <pt x="113" y="631" on="0"/>
        <pt x="102" y="693" on="0"/>
        <pt x="102" y="731" on="1"/>
        <pt x="102" y="779" on="0"/>
        <pt x="133" y="857" on="0"/>
        <pt x="191" y="911" on="0"/>
        <pt x="273" y="940" on="0"/>
        <pt x="324" y="940" on="1"/>
        <pt x="366" y="940" on="0"/>
        <pt x="427" y="919" on="0"/>
        <pt x="472" y="889" on="0"/>
        <pt x="505" y="852" on="0"/>
        <pt x="533" y="822" on="0"/>
        <pt x="560" y="801" on="0"/>
        <pt x="578" y="801" on="1"/>
        <pt x="596" y="801" on="0"/>
        <pt x="616" y="833" on="0"/>
        <pt x="616" y="858" on="1"/>
        <pt x="616" y="874" on="0"/>
        <pt x="606" y="904" on="0"/>
        <pt x="598" y="918" on="1"/>
      </contour>
    </TTGlyph>
    <TTGlyph name="asterisk" xMin="72" yMin="627" xMax="1135" yMax="1702">
      <contour>
        <pt x="809" y="1081" on="1"/>
        <pt x="1049" y="825" on="1"/>
        <pt x="825" y="627" on="1"/>
        <pt x="608" y="911" on="1"/>
        <pt x="383" y="627" on="1"/>
        <pt x="168" y="825" on="1"/>
        <pt x="387" y="1079" on="1"/>
        <pt x="72" y="1260" on="1"/>
        <pt x="205" y="1499" on="1"/>
        <pt x="459" y="1366" on="1"/>
        <pt x="459" y="1702" on="1"/>
        <pt x="745" y="1702" on="1"/>
        <pt x="745" y="1366" on="1"/>
        <pt x="1020" y="1499" on="1"/>
        <pt x="1135" y="1249" on="1"/>
      </contour>
    </TTGlyph>
    <TTGlyph name="at" xMin="78" yMin="-39" xMax="1223" yMax="1106">
      <contour>
        <pt x="1032" y="532" on="1"/>
        <pt x="1032" y="611" on="0"/>
        <pt x="972" y="751" on="0"/>
        <pt x="868" y="855" on="0"/>
        <pt x="729" y="915" on="0"/>
        <pt x="651" y="915" on="1"/>
        <pt x="572" y="915" on="0"/>
        <pt x="433" y="855" on="0"/>
        <pt x="330" y="751" on="0"/>
        <pt x="270" y="611" on="0"/>
        <pt x="270" y="532" on="1"/>
        <pt x="270" y="454" on="0"/>
        <pt x="330" y="316" on="0"/>
        <pt x="433" y="212" on="0"/>
        <pt x="572" y="152" on="0"/>
        <pt x="651" y="152" on="1"/>
        <pt x="674" y="152" on="0"/>
        <pt x="727" y="159" on="0"/>
        <pt x="764" y="170" on="1"/>
        <pt x="809" y="-16" on="1"/>
        <pt x="761" y="-29" on="0"/>
        <pt x="686" y="-39" on="0"/>
        <pt x="651" y="-39" on="1"/>
        <pt x="535" y="-39" on="0"/>
        <pt x="327" y="53" on="0"/>
        <pt x="170" y="210" on="0"/>
        <pt x="78" y="417" on="0"/>
        <pt x="78" y="532" on="1"/>
        <pt x="78" y="656" on="0"/>
        <pt x="165" y="867" on="0"/>
        <pt x="318" y="1020" on="0"/>
        <pt x="528" y="1106" on="0"/>
        <pt x="651" y="1106" on="1"/>
        <pt x="773" y="1106" on="0"/>
        <pt x="983" y="1019" on="0"/>
        <pt x="1136" y="865" on="0"/>
        <pt x="1223" y="655" on="0"/>
        <pt x="1223" y="532" on="1"/>
        <pt x="1223" y="466" on="0"/>
        <pt x="1192" y="350" on="0"/>
        <pt x="1157" y="281" on="1"/>
        <pt x="715" y="281" on="1"/>
        <pt x="715" y="297" on="1"/>
        <pt x="692" y="285" on="0"/>
        <pt x="648" y="276" on="0"/>
        <pt x="633" y="276" on="1"/>
        <pt x="576" y="276" on="0"/>
        <pt x="483" y="313" on="0"/>
        <pt x="417" y="381" on="0"/>
        <pt x="381" y="474" on="0"/>
        <pt x="381" y="530" on="1"/>
        <pt x="381" y="587" on="0"/>
        <pt x="416" y="681" on="0"/>
        <pt x="482" y="749" on="0"/>
        <pt x="575" y="786" on="0"/>
        <pt x="633" y="786" on="1"/>
        <pt x="648" y="786" on="0"/>
        <pt x="692" y="777" on="0"/>
        <pt x="715" y="766" on="1"/>
        <pt x="715" y="811" on="1"/>
        <pt x="901" y="811" on="1"/>
        <pt x="901" y="444" on="1"/>
        <pt x="1022" y="444" on="1"/>
        <pt x="1028" y="467" on="0"/>
        <pt x="1032" y="509" on="0"/>
      </contour>
      <contour>
        <pt x="565" y="530" on="1"/>
        <pt x="565" y="496" on="0"/>
        <pt x="606" y="457" on="0"/>
        <pt x="641" y="457" on="1"/>
        <pt x="675" y="457" on="0"/>
        <pt x="715" y="496" on="0"/>
        <pt x="715" y="530" on="1"/>
        <pt x="715" y="566" on="0"/>
        <pt x="675" y="606" on="0"/>
        <pt x="641" y="606" on="1"/>
        <pt x="606" y="606" on="0"/>
        <pt x="565" y="566" on="0"/>
      </contour>
    </TTGlyph>
    <TTGlyph name="atilde" xMin="47" yMin="-20" xMax="1141" yMax="1523">
      <component glyphName="a" x="0" y="0" flags="0x204"/>
      <component glyphName="tilde" x="264" y="106" flags="0x4"/>
    </TTGlyph>
    <TTGlyph name="b" xMin="82" yMin="-20" xMax="1176" yMax="1497">
      <contour>
        <pt x="1176" y="545" on="1"/>
        <pt x="1176" y="419" on="0"/>
        <pt x="1090" y="211" on="0"/>
        <pt x="942" y="62" on="0"/>
        <pt x="743" y="-20" on="0"/>
        <pt x="629" y="-20" on="1"/>
        <pt x="516" y="-20" on="0"/>
        <pt x="317" y="64" on="0"/>
        <pt x="168" y="214" on="0"/>
        <pt x="82" y="421" on="0"/>
        <pt x="82" y="545" on="1"/>
        <pt x="82" y="1497" on="1"/>
        <pt x="356" y="1497" on="1"/>
        <pt x="356" y="997" on="1"/>
        <pt x="378" y="1025" on="0"/>
        <pt x="441" y="1069" on="0"/>
        <pt x="514" y="1097" on="0"/>
        <pt x="592" y="1112" on="0"/>
        <pt x="629" y="1112" on="1"/>
        <pt x="743" y="1112" on="0"/>
        <pt x="942" y="1027" on="0"/>
        <pt x="1090" y="875" on="0"/>
        <pt x="1176" y="668" on="0"/>
      </contour>
      <contour>
        <pt x="901" y="545" on="1"/>
        <pt x="901" y="607" on="0"/>
        <pt x="858" y="714" on="0"/>
        <pt x="784" y="792" on="0"/>
        <pt x="685" y="836" on="0"/>
        <pt x="629" y="836" on="1"/>
        <pt x="573" y="836" on="0"/>
        <pt x="474" y="787" on="0"/>
        <pt x="400" y="706" on="0"/>
        <pt x="358" y="601" on="0"/>
        <pt x="358" y="545" on="1"/>
        <pt x="358" y="483" on="0"/>
        <pt x="400" y="377" on="0"/>
        <pt x="474" y="299" on="0"/>
        <pt x="573" y="254" on="0"/>
        <pt x="629" y="254" on="1"/>
        <pt x="685" y="254" on="0"/>
        <pt x="784" y="299" on="0"/>
        <pt x="858" y="377" on="0"/>
        <pt x="901" y="483" on="0"/>
      </contour>
    </TTGlyph>
    <TTGlyph name="backslash" xMin="57" yMin="0" xMax="946" yMax="1434">
      <contour>
        <pt x="946" y="0" on="1"/>
        <pt x="651" y="0" on="1"/>
        <pt x="57" y="1434" on="1"/>
        <pt x="352" y="1434" on="1"/>
      </contour>
    </TTGlyph>
    <TTGlyph name="bar" xMin="129" yMin="-205" xMax="418" yMax="1638">
      <contour>
        <pt x="418" y="-205" on="1"/>
        <pt x="129" y="-205" on="1"/>
        <pt x="129" y="1638" on="1"/>
        <pt x="418" y="1638" on="1"/>
      </contour>
    </TTGlyph>
    <TTGlyph name="braceleft" xMin="39" yMin="-205" xMax="881" yMax="1638">
      <contour>
        <pt x="39" y="872" on="1"/>
        <pt x="190" y="872" on="1"/>
        <pt x="233" y="872" on="0"/>
        <pt x="280" y="911" on="0"/>
        <pt x="291" y="935" on="1"/>
        <pt x="303" y="963" on="0"/>
        <pt x="305" y="999" on="1"/>
        <pt x="305" y="1352" on="1"/>
        <pt x="305" y="1413" on="0"/>
        <pt x="351" y="1518" on="0"/>
        <pt x="430" y="1595" on="0"/>
        <pt x="535" y="1638" on="0"/>
        <pt x="594" y="1638" on="1"/>
        <pt x="881" y="1638" on="1"/>
        <pt x="881" y="1352" on="1"/>
        <pt x="594" y="1352" on="1"/>
        <pt x="594" y="993" on="1"/>
        <pt x="594" y="956" on="0"/>
        <pt x="580" y="894" on="0"/>
        <pt x="556" y="843" on="0"/>
        <pt x="526" y="802" on="0"/>
        <pt x="510" y="787" on="1"/>
        <pt x="473" y="750" on="0"/>
        <pt x="426" y="729" on="1"/>
        <pt x="473" y="709" on="0"/>
        <pt x="510" y="670" on="1"/>
        <pt x="526" y="653" on="0"/>
        <pt x="556" y="609" on="0"/>
        <pt x="580" y="552" on="0"/>
        <pt x="594" y="481" on="0"/>
        <pt x="594" y="438" on="1"/>
        <pt x="594" y="82" on="1"/>
        <pt x="881" y="82" on="1"/>
        <pt x="881" y="-205" on="1"/>
        <pt x="594" y="-205" on="1"/>
        <pt x="538" y="-205" on="0"/>
        <pt x="433" y="-161" on="0"/>
        <pt x="353" y="-84" on="0"/>
        <pt x="305" y="21" on="0"/>
        <pt x="305" y="82" on="1"/>
        <pt x="305" y="438" on="1"/>
        <pt x="306" y="493" on="0"/>
        <pt x="271" y="553" on="0"/>
        <pt x="249" y="567" on="1"/>
        <pt x="223" y="583" on="0"/>
        <pt x="190" y="586" on="1"/>
        <pt x="39" y="586" on="1"/>
      </contour>
    </TTGlyph>
    <TTGlyph name="braceright" xMin="76" yMin="-205" xMax="918" yMax="1638">
      <contour>
        <pt x="918" y="586" on="1"/>
        <pt x="766" y="586" on="1"/>
        <pt x="733" y="583" on="0"/>
        <pt x="707" y="567" on="1"/>
        <pt x="696" y="560" on="0"/>
        <pt x="675" y="539" on="0"/>
        <pt x="659" y="508" on="0"/>
        <pt x="650" y="466" on="0"/>
        <pt x="651" y="438" on="1"/>
        <pt x="651" y="82" on="1"/>
        <pt x="651" y="21" on="0"/>
        <pt x="603" y="-84" on="0"/>
        <pt x="523" y="-161" on="0"/>
        <pt x="418" y="-205" on="0"/>
        <pt x="362" y="-205" on="1"/>
        <pt x="76" y="-205" on="1"/>
        <pt x="76" y="82" on="1"/>
        <pt x="362" y="82" on="1"/>
        <pt x="362" y="438" on="1"/>
        <pt x="362" y="481" on="0"/>
        <pt x="376" y="552" on="0"/>
        <pt x="400" y="609" on="0"/>
        <pt x="430" y="653" on="0"/>
        <pt x="446" y="670" on="1"/>
        <pt x="483" y="709" on="0"/>
        <pt x="530" y="729" on="1"/>
        <pt x="483" y="750" on="0"/>
        <pt x="446" y="787" on="1"/>
        <pt x="430" y="802" on="0"/>
        <pt x="400" y="843" on="0"/>
        <pt x="376" y="894" on="0"/>
        <pt x="362" y="956" on="0"/>
        <pt x="362" y="993" on="1"/>
        <pt x="362" y="1352" on="1"/>
        <pt x="76" y="1352" on="1"/>
        <pt x="76" y="1638" on="1"/>
        <pt x="362" y="1638" on="1"/>
        <pt x="421" y="1638" on="0"/>
        <pt x="526" y="1595" on="0"/>
        <pt x="605" y="1518" on="0"/>
        <pt x="651" y="1413" on="0"/>
        <pt x="651" y="1352" on="1"/>
        <pt x="651" y="999" on="1"/>
        <pt x="653" y="963" on="0"/>
        <pt x="665" y="935" on="1"/>
        <pt x="676" y="911" on="0"/>
        <pt x="722" y="872" on="0"/>
        <pt x="766" y="872" on="1"/>
        <pt x="918" y="872" on="1"/>
      </contour>
    </TTGlyph>
    <TTGlyph name="bracketleft" xMin="129" yMin="-205" xMax="705" yMax="1638">
      <contour>
        <pt x="418" y="82" on="1"/>
        <pt x="705" y="82" on="1"/>
        <pt x="705" y="-205" on="1"/>
        <pt x="129" y="-205" on="1"/>
        <pt x="129" y="1638" on="1"/>
        <pt x="705" y="1638" on="1"/>
        <pt x="705" y="1352" on="1"/>
        <pt x="418" y="1352" on="1"/>
      </contour>
    </TTGlyph>
    <TTGlyph name="bracketright" xMin="76" yMin="-205" xMax="651" yMax="1638">
      <contour>
        <pt x="651" y="-205" on="1"/>
        <pt x="76" y="-205" on="1"/>
        <pt x="76" y="82" on="1"/>
        <pt x="362" y="82" on="1"/>
        <pt x="362" y="1352" on="1"/>
        <pt x="76" y="1352" on="1"/>
        <pt x="76" y="1638" on="1"/>
        <pt x="651" y="1638" on="1"/>
      </contour>
    </TTGlyph>
    <TTGlyph name="breve" xMin="0" yMin="1102" xMax="451" yMax="1389">
      <contour>
        <pt x="430" y="1389" on="1"/>
        <pt x="441" y="1364" on="0"/>
        <pt x="451" y="1326" on="0"/>
        <pt x="451" y="1300" on="1"/>
        <pt x="451" y="1249" on="0"/>
        <pt x="416" y="1175" on="0"/>
        <pt x="356" y="1126" on="0"/>
        <pt x="276" y="1102" on="0"/>
        <pt x="231" y="1102" on="1"/>
        <pt x="184" y="1102" on="0"/>
        <pt x="100" y="1131" on="0"/>
        <pt x="37" y="1187" on="0"/>
        <pt x="0" y="1266" on="0"/>
        <pt x="0" y="1317" on="1"/>
        <pt x="0" y="1337" on="0"/>
        <pt x="7" y="1370" on="0"/>
        <pt x="18" y="1389" on="1"/>
        <pt x="190" y="1389" on="1"/>
        <pt x="185" y="1375" on="0"/>
        <pt x="180" y="1345" on="0"/>
        <pt x="180" y="1331" on="1"/>
        <pt x="180" y="1308" on="0"/>
        <pt x="205" y="1276" on="0"/>
        <pt x="229" y="1276" on="1"/>
        <pt x="252" y="1276" on="0"/>
        <pt x="279" y="1312" on="0"/>
        <pt x="279" y="1333" on="1"/>
        <pt x="279" y="1349" on="0"/>
        <pt x="271" y="1373" on="0"/>
        <pt x="266" y="1389" on="1"/>
      </contour>
    </TTGlyph>
    <TTGlyph name="brokenbar" xMin="131" yMin="-205" xMax="420" yMax="1638">
      <contour>
        <pt x="420" y="-205" on="1"/>
        <pt x="131" y="-205" on="1"/>
        <pt x="131" y="614" on="1"/>
        <pt x="420" y="614" on="1"/>
      </contour>
      <contour>
        <pt x="420" y="819" on="1"/>
        <pt x="131" y="819" on="1"/>
        <pt x="131" y="1638" on="1"/>
        <pt x="420" y="1638" on="1"/>
      </contour>
    </TTGlyph>
    <TTGlyph name="bullet" xMin="150" yMin="526" xMax="578" yMax="954">
      <contour>
        <pt x="578" y="741" on="1"/>
        <pt x="578" y="697" on="0"/>
        <pt x="544" y="618" on="0"/>
        <pt x="486" y="560" on="0"/>
        <pt x="408" y="526" on="0"/>
        <pt x="365" y="526" on="1"/>
        <pt x="320" y="526" on="0"/>
        <pt x="242" y="560" on="0"/>
        <pt x="184" y="618" on="0"/>
        <pt x="150" y="697" on="0"/>
        <pt x="150" y="741" on="1"/>
        <pt x="150" y="785" on="0"/>
        <pt x="184" y="862" on="0"/>
        <pt x="242" y="920" on="0"/>
        <pt x="320" y="954" on="0"/>
        <pt x="365" y="954" on="1"/>
        <pt x="408" y="954" on="0"/>
        <pt x="486" y="920" on="0"/>
        <pt x="544" y="862" on="0"/>
        <pt x="578" y="785" on="0"/>
      </contour>
    </TTGlyph>
    <TTGlyph name="c" xMin="45" yMin="-20" xMax="1040" yMax="1112">
      <contour>
        <pt x="1040" y="858" on="1"/>
        <pt x="840" y="657" on="1"/>
        <pt x="825" y="699" on="0"/>
        <pt x="773" y="766" on="0"/>
        <pt x="708" y="812" on="0"/>
        <pt x="632" y="836" on="0"/>
        <pt x="592" y="836" on="1"/>
        <pt x="536" y="836" on="0"/>
        <pt x="437" y="790" on="0"/>
        <pt x="364" y="707" on="0"/>
        <pt x="322" y="593" on="0"/>
        <pt x="322" y="524" on="1"/>
        <pt x="322" y="468" on="0"/>
        <pt x="364" y="370" on="0"/>
        <pt x="437" y="296" on="0"/>
        <pt x="536" y="254" on="0"/>
        <pt x="592" y="254" on="1"/>
        <pt x="632" y="254" on="0"/>
        <pt x="706" y="276" on="0"/>
        <pt x="771" y="317" on="0"/>
        <pt x="822" y="376" on="0"/>
        <pt x="838" y="412" on="1"/>
        <pt x="1038" y="211" on="1"/>
        <pt x="1000" y="157" on="0"/>
        <pt x="901" y="71" on="0"/>
        <pt x="786" y="11" on="0"/>
        <pt x="659" y="-20" on="0"/>
        <pt x="592" y="-20" on="1"/>
        <pt x="479" y="-20" on="0"/>
        <pt x="280" y="65" on="0"/>
        <pt x="131" y="213" on="0"/>
        <pt x="45" y="411" on="0"/>
        <pt x="45" y="524" on="1"/>
        <pt x="45" y="647" on="0"/>
        <pt x="131" y="861" on="0"/>
        <pt x="280" y="1020" on="0"/>
        <pt x="479" y="1112" on="0"/>
        <pt x="592" y="1112" on="1"/>
        <pt x="659" y="1112" on="0"/>
        <pt x="788" y="1078" on="0"/>
        <pt x="905" y="1013" on="0"/>
        <pt x="1004" y="919" on="0"/>
      </contour>
    </TTGlyph>
    <TTGlyph name="cacute" xMin="45" yMin="-20" xMax="1040" yMax="1616">
      <component glyphName="c" x="0" y="0" flags="0x204"/>
      <component glyphName="acute" x="455" y="184" flags="0x4"/>
    </TTGlyph>
    <TTGlyph name="caron" xMin="0" yMin="1049" xMax="547" yMax="1446">
      <contour>
        <pt x="281" y="1049" on="1"/>
        <pt x="0" y="1303" on="1"/>
        <pt x="113" y="1446" on="1"/>
        <pt x="274" y="1300" on="1"/>
        <pt x="424" y="1440" on="1"/>
        <pt x="547" y="1305" on="1"/>
      </contour>
    </TTGlyph>
    <TTGlyph name="ccaron" xMin="45" yMin="-20" xMax="1040" yMax="1589">
      <component glyphName="c" x="0" y="0" flags="0x204"/>
      <component glyphName="caron" x="319" y="143" flags="0x4"/>
    </TTGlyph>
    <TTGlyph name="ccedilla" xMin="45" yMin="-461" xMax="1040" yMax="1112">
      <contour>
        <pt x="514" y="-461" on="1"/>
        <pt x="478" y="-459" on="0"/>
        <pt x="412" y="-433" on="0"/>
        <pt x="386" y="-418" on="1"/>
        <pt x="356" y="-400" on="0"/>
        <pt x="330" y="-379" on="1"/>
        <pt x="385" y="-229" on="1"/>
        <pt x="408" y="-246" on="0"/>
        <pt x="431" y="-258" on="1"/>
        <pt x="451" y="-269" on="0"/>
        <pt x="493" y="-287" on="0"/>
        <pt x="510" y="-287" on="1"/>
        <pt x="532" y="-287" on="0"/>
        <pt x="561" y="-259" on="0"/>
        <pt x="561" y="-236" on="1"/>
        <pt x="561" y="-208" on="0"/>
        <pt x="518" y="-184" on="0"/>
        <pt x="494" y="-184" on="1"/>
        <pt x="462" y="-184" on="0"/>
        <pt x="436" y="-201" on="1"/>
        <pt x="502" y="-12" on="1"/>
        <pt x="405" y="3" on="0"/>
        <pt x="238" y="99" on="0"/>
        <pt x="115" y="241" on="0"/>
        <pt x="45" y="423" on="0"/>
        <pt x="45" y="524" on="1"/>
        <pt x="45" y="647" on="0"/>
        <pt x="131" y="861" on="0"/>
        <pt x="280" y="1020" on="0"/>
        <pt x="479" y="1112" on="0"/>
        <pt x="592" y="1112" on="1"/>
        <pt x="659" y="1112" on="0"/>
        <pt x="788" y="1078" on="0"/>
        <pt x="905" y="1013" on="0"/>
        <pt x="1004" y="919" on="0"/>
        <pt x="1040" y="858" on="1"/>
        <pt x="840" y="657" on="1"/>
        <pt x="825" y="699" on="0"/>
        <pt x="773" y="766" on="0"/>
        <pt x="708" y="812" on="0"/>
        <pt x="632" y="836" on="0"/>
        <pt x="592" y="836" on="1"/>
        <pt x="536" y="836" on="0"/>
        <pt x="437" y="790" on="0"/>
        <pt x="364" y="707" on="0"/>
        <pt x="322" y="593" on="0"/>
        <pt x="322" y="524" on="1"/>
        <pt x="322" y="468" on="0"/>
        <pt x="364" y="370" on="0"/>
        <pt x="437" y="296" on="0"/>
        <pt x="536" y="254" on="0"/>
        <pt x="592" y="254" on="1"/>
        <pt x="632" y="254" on="0"/>
        <pt x="706" y="276" on="0"/>
        <pt x="771" y="317" on="0"/>
        <pt x="822" y="376" on="0"/>
        <pt x="838" y="412" on="1"/>
        <pt x="1038" y="211" on="1"/>
        <pt x="1002" y="160" on="0"/>
        <pt x="911" y="78" on="0"/>
        <pt x="805" y="20" on="0"/>
        <pt x="687" y="-14" on="0"/>
        <pt x="625" y="-18" on="1"/>
        <pt x="604" y="-78" on="1"/>
        <pt x="635" y="-82" on="0"/>
        <pt x="691" y="-110" on="0"/>
        <pt x="732" y="-155" on="0"/>
        <pt x="756" y="-216" on="0"/>
        <pt x="756" y="-252" on="1"/>
        <pt x="756" y="-302" on="0"/>
        <pt x="722" y="-380" on="0"/>
        <pt x="662" y="-433" on="0"/>
        <pt x="579" y="-461" on="0"/>
        <pt x="530" y="-461" on="1"/>
      </contour>
    </TTGlyph>
    <TTGlyph name="ccircumflex" xMin="45" yMin="-20" xMax="1040" yMax="1568">
      <component glyphName="c" x="0" y="0" flags="0x204"/>
      <component glyphName="circumflex" x="311" y="143" flags="0x4"/>
    </TTGlyph>
    <TTGlyph name="cdotaccent" xMin="45" yMin="-20" xMax="1040" yMax="1458">
      <component glyphName="c" x="0" y="0" flags="0x204"/>
      <component glyphName="dotaccent" x="465" y="102" flags="0x4"/>
    </TTGlyph>
    <TTGlyph name="cedilla" xMin="0" yMin="-461" xMax="426" yMax="57">
      <contour>
        <pt x="184" y="-461" on="1"/>
        <pt x="148" y="-459" on="0"/>
        <pt x="82" y="-433" on="0"/>
        <pt x="56" y="-418" on="1"/>
        <pt x="26" y="-400" on="0"/>
        <pt x="0" y="-379" on="1"/>
        <pt x="55" y="-229" on="1"/>
        <pt x="78" y="-246" on="0"/>
        <pt x="101" y="-258" on="1"/>
        <pt x="121" y="-269" on="0"/>
        <pt x="163" y="-287" on="0"/>
        <pt x="180" y="-287" on="1"/>
        <pt x="202" y="-287" on="0"/>
        <pt x="231" y="-259" on="0"/>
        <pt x="231" y="-236" on="1"/>
        <pt x="231" y="-208" on="0"/>
        <pt x="189" y="-184" on="0"/>
        <pt x="164" y="-184" on="1"/>
        <pt x="132" y="-184" on="0"/>
        <pt x="106" y="-201" on="1"/>
        <pt x="199" y="57" on="1"/>
        <pt x="322" y="57" on="1"/>
        <pt x="274" y="-78" on="1"/>
        <pt x="305" y="-82" on="0"/>
        <pt x="361" y="-110" on="0"/>
        <pt x="402" y="-155" on="0"/>
        <pt x="426" y="-216" on="0"/>
        <pt x="426" y="-252" on="1"/>
        <pt x="426" y="-302" on="0"/>
        <pt x="393" y="-380" on="0"/>
        <pt x="333" y="-433" on="0"/>
        <pt x="250" y="-461" on="0"/>
        <pt x="201" y="-461" on="1"/>
      </contour>
    </TTGlyph>
    <TTGlyph name="cent" xMin="80" yMin="0" xMax="877" yMax="1436">
      <contour>
        <pt x="608" y="1186" on="1"/>
        <pt x="690" y="1167" on="0"/>
        <pt x="830" y="1069" on="0"/>
        <pt x="877" y="993" on="1"/>
        <pt x="715" y="834" on="1"/>
        <pt x="703" y="868" on="0"/>
        <pt x="662" y="920" on="0"/>
        <pt x="610" y="956" on="0"/>
        <pt x="549" y="975" on="0"/>
        <pt x="518" y="975" on="1"/>
        <pt x="473" y="975" on="0"/>
        <pt x="393" y="938" on="0"/>
        <pt x="335" y="872" on="0"/>
        <pt x="301" y="781" on="0"/>
        <pt x="301" y="727" on="1"/>
        <pt x="301" y="682" on="0"/>
        <pt x="335" y="602" on="0"/>
        <pt x="393" y="544" on="0"/>
        <pt x="473" y="510" on="0"/>
        <pt x="518" y="510" on="1"/>
        <pt x="581" y="510" on="0"/>
        <pt x="689" y="578" on="0"/>
        <pt x="715" y="637" on="1"/>
        <pt x="874" y="475" on="1"/>
        <pt x="825" y="407" on="0"/>
        <pt x="689" y="316" on="0"/>
        <pt x="608" y="299" on="1"/>
        <pt x="608" y="0" on="1"/>
        <pt x="424" y="0" on="1"/>
        <pt x="424" y="301" on="1"/>
        <pt x="350" y="317" on="0"/>
        <pt x="224" y="395" on="0"/>
        <pt x="132" y="508" on="0"/>
        <pt x="80" y="649" on="0"/>
        <pt x="80" y="727" on="1"/>
        <pt x="80" y="812" on="0"/>
        <pt x="132" y="964" on="0"/>
        <pt x="224" y="1085" on="0"/>
        <pt x="350" y="1169" on="0"/>
        <pt x="424" y="1186" on="1"/>
        <pt x="424" y="1436" on="1"/>
        <pt x="608" y="1436" on="1"/>
      </contour>
    </TTGlyph>
    <TTGlyph name="circumflex" xMin="0" yMin="1028" xMax="547" yMax="1425">
      <contour>
        <pt x="0" y="1171" on="1"/>
        <pt x="270" y="1425" on="1"/>
        <pt x="547" y="1171" on="1"/>
        <pt x="434" y="1028" on="1"/>
        <pt x="274" y="1174" on="1"/>
        <pt x="123" y="1032" on="1"/>
      </contour>
    </TTGlyph>
    <TTGlyph name="colon" xMin="113" yMin="-70" xMax="455" yMax="846">
      <contour>
        <pt x="455" y="676" on="1"/>
        <pt x="455" y="640" on="0"/>
        <pt x="428" y="577" on="0"/>
        <pt x="382" y="531" on="0"/>
        <pt x="320" y="504" on="0"/>
        <pt x="285" y="504" on="1"/>
        <pt x="249" y="504" on="0"/>
        <pt x="187" y="531" on="0"/>
        <pt x="140" y="577" on="0"/>
        <pt x="113" y="640" on="0"/>
        <pt x="113" y="676" on="1"/>
        <pt x="113" y="710" on="0"/>
        <pt x="140" y="772" on="0"/>
        <pt x="187" y="819" on="0"/>
        <pt x="249" y="846" on="0"/>
        <pt x="285" y="846" on="1"/>
        <pt x="320" y="846" on="0"/>
        <pt x="382" y="819" on="0"/>
        <pt x="428" y="772" on="0"/>
        <pt x="455" y="710" on="0"/>
      </contour>
      <contour>
        <pt x="455" y="102" on="1"/>
        <pt x="455" y="66" on="0"/>
        <pt x="428" y="3" on="0"/>
        <pt x="382" y="-43" on="0"/>
        <pt x="320" y="-70" on="0"/>
        <pt x="285" y="-70" on="1"/>
        <pt x="249" y="-70" on="0"/>
        <pt x="187" y="-43" on="0"/>
        <pt x="140" y="3" on="0"/>
        <pt x="113" y="66" on="0"/>
        <pt x="113" y="102" on="1"/>
        <pt x="113" y="137" on="0"/>
        <pt x="140" y="199" on="0"/>
        <pt x="187" y="245" on="0"/>
        <pt x="249" y="272" on="0"/>
        <pt x="285" y="272" on="1"/>
        <pt x="320" y="272" on="0"/>
        <pt x="382" y="245" on="0"/>
        <pt x="428" y="199" on="0"/>
        <pt x="455" y="137" on="0"/>
      </contour>
    </TTGlyph>
    <TTGlyph name="comma" xMin="98" yMin="-262" xMax="440" yMax="272">
      <contour>
        <pt x="440" y="102" on="1"/>
        <pt x="440" y="58" on="0"/>
        <pt x="423" y="-43" on="0"/>
        <pt x="386" y="-142" on="0"/>
        <pt x="327" y="-231" on="0"/>
        <pt x="285" y="-262" on="1"/>
        <pt x="176" y="-186" on="1"/>
        <pt x="204" y="-154" on="0"/>
        <pt x="232" y="-97" on="0"/>
        <pt x="240" y="-68" on="1"/>
        <pt x="210" y="-62" on="0"/>
        <pt x="158" y="-32" on="0"/>
        <pt x="120" y="13" on="0"/>
        <pt x="98" y="70" on="0"/>
        <pt x="98" y="102" on="1"/>
        <pt x="98" y="137" on="0"/>
        <pt x="125" y="199" on="0"/>
        <pt x="172" y="245" on="0"/>
        <pt x="233" y="272" on="0"/>
        <pt x="268" y="272" on="1"/>
        <pt x="304" y="272" on="0"/>
        <pt x="367" y="245" on="0"/>
        <pt x="414" y="199" on="0"/>
        <pt x="440" y="137" on="0"/>
      </contour>
    </TTGlyph>
    <TTGlyph name="copyright" xMin="90" yMin="135" xMax="1253" yMax="1298">
      <contour>
        <pt x="905" y="440" on="1"/>
        <pt x="857" y="398" on="0"/>
        <pt x="739" y="354" on="0"/>
        <pt x="676" y="354" on="1"/>
        <pt x="602" y="354" on="0"/>
        <pt x="472" y="411" on="0"/>
        <pt x="375" y="508" on="0"/>
        <pt x="319" y="638" on="0"/>
        <pt x="319" y="711" on="1"/>
        <pt x="319" y="784" on="0"/>
        <pt x="375" y="914" on="0"/>
        <pt x="472" y="1011" on="0"/>
        <pt x="602" y="1067" on="0"/>
        <pt x="676" y="1067" on="1"/>
        <pt x="739" y="1067" on="0"/>
        <pt x="857" y="1023" on="0"/>
        <pt x="905" y="983" on="1"/>
        <pt x="834" y="862" on="1"/>
        <pt x="803" y="894" on="0"/>
        <pt x="721" y="930" on="0"/>
        <pt x="676" y="930" on="1"/>
        <pt x="630" y="930" on="0"/>
        <pt x="549" y="895" on="0"/>
        <pt x="489" y="836" on="0"/>
        <pt x="455" y="756" on="0"/>
        <pt x="455" y="711" on="1"/>
        <pt x="455" y="666" on="0"/>
        <pt x="489" y="586" on="0"/>
        <pt x="549" y="526" on="0"/>
        <pt x="630" y="492" on="0"/>
        <pt x="676" y="492" on="1"/>
        <pt x="721" y="492" on="0"/>
        <pt x="803" y="527" on="0"/>
        <pt x="834" y="559" on="1"/>
      </contour>
      <contour>
        <pt x="1253" y="717" on="1"/>
        <pt x="1253" y="597" on="0"/>
        <pt x="1162" y="385" on="0"/>
        <pt x="1004" y="227" on="0"/>
        <pt x="792" y="135" on="0"/>
        <pt x="672" y="135" on="1"/>
        <pt x="552" y="135" on="0"/>
        <pt x="340" y="227" on="0"/>
        <pt x="182" y="385" on="0"/>
        <pt x="90" y="597" on="0"/>
        <pt x="90" y="717" on="1"/>
        <pt x="90" y="837" on="0"/>
        <pt x="182" y="1049" on="0"/>
        <pt x="340" y="1207" on="0"/>
        <pt x="552" y="1298" on="0"/>
        <pt x="672" y="1298" on="1"/>
        <pt x="792" y="1298" on="0"/>
        <pt x="1004" y="1207" on="0"/>
        <pt x="1162" y="1049" on="0"/>
        <pt x="1253" y="837" on="0"/>
      </contour>
      <contour>
        <pt x="1110" y="715" on="1"/>
        <pt x="1110" y="805" on="0"/>
        <pt x="1041" y="965" on="0"/>
        <pt x="922" y="1084" on="0"/>
        <pt x="762" y="1153" on="0"/>
        <pt x="672" y="1153" on="1"/>
        <pt x="581" y="1153" on="0"/>
        <pt x="421" y="1084" on="0"/>
        <pt x="302" y="965" on="0"/>
        <pt x="233" y="805" on="0"/>
        <pt x="233" y="715" on="1"/>
        <pt x="233" y="625" on="0"/>
        <pt x="302" y="466" on="0"/>
        <pt x="421" y="348" on="0"/>
        <pt x="581" y="279" on="0"/>
        <pt x="672" y="279" on="1"/>
        <pt x="762" y="279" on="0"/>
        <pt x="922" y="348" on="0"/>
        <pt x="1041" y="466" on="0"/>
        <pt x="1110" y="625" on="0"/>
      </contour>
    </TTGlyph>
    <TTGlyph name="currency" xMin="51" yMin="283" xMax="879" yMax="1110">
      <contour>
        <pt x="627" y="690" on="1"/>
        <pt x="627" y="729" on="0"/>
        <pt x="601" y="794" on="0"/>
        <pt x="556" y="839" on="0"/>
        <pt x="497" y="864" on="0"/>
        <pt x="463" y="864" on="1"/>
        <pt x="429" y="864" on="0"/>
        <pt x="370" y="839" on="0"/>
        <pt x="326" y="794" on="0"/>
        <pt x="301" y="729" on="0"/>
        <pt x="301" y="690" on="1"/>
        <pt x="301" y="653" on="0"/>
        <pt x="326" y="589" on="0"/>
        <pt x="370" y="541" on="0"/>
        <pt x="429" y="514" on="0"/>
        <pt x="463" y="514" on="1"/>
        <pt x="497" y="514" on="0"/>
        <pt x="556" y="540" on="0"/>
        <pt x="601" y="586" on="0"/>
        <pt x="627" y="651" on="0"/>
      </contour>
      <contour>
        <pt x="791" y="690" on="1"/>
        <pt x="791" y="604" on="0"/>
        <pt x="754" y="530" on="1"/>
        <pt x="872" y="414" on="1"/>
        <pt x="741" y="283" on="1"/>
        <pt x="629" y="395" on="1"/>
        <pt x="592" y="374" on="0"/>
        <pt x="508" y="350" on="0"/>
        <pt x="463" y="350" on="1"/>
        <pt x="416" y="350" on="0"/>
        <pt x="332" y="374" on="0"/>
        <pt x="295" y="395" on="1"/>
        <pt x="186" y="287" on="1"/>
        <pt x="57" y="418" on="1"/>
        <pt x="170" y="532" on="1"/>
        <pt x="135" y="605" on="0"/>
        <pt x="135" y="690" on="1"/>
        <pt x="135" y="734" on="0"/>
        <pt x="153" y="815" on="0"/>
        <pt x="172" y="850" on="1"/>
        <pt x="51" y="973" on="1"/>
        <pt x="182" y="1104" on="1"/>
        <pt x="299" y="985" on="1"/>
        <pt x="334" y="1007" on="0"/>
        <pt x="418" y="1030" on="0"/>
        <pt x="463" y="1030" on="1"/>
        <pt x="553" y="1030" on="0"/>
        <pt x="627" y="989" on="1"/>
        <pt x="748" y="1110" on="1"/>
        <pt x="879" y="977" on="1"/>
        <pt x="754" y="854" on="1"/>
        <pt x="791" y="782" on="0"/>
      </contour>
    </TTGlyph>
    <TTGlyph name="d" xMin="45" yMin="-20" xMax="1139" yMax="1497">
      <contour>
        <pt x="1139" y="0" on="1"/>
        <pt x="1073" y="0" on="1"/>
        <pt x="967" y="147" on="1"/>
        <pt x="928" y="112" on="0"/>
        <pt x="841" y="51" on="0"/>
        <pt x="745" y="6" on="0"/>
        <pt x="644" y="-20" on="0"/>
        <pt x="592" y="-20" on="1"/>
        <pt x="479" y="-20" on="0"/>
        <pt x="280" y="65" on="0"/>
        <pt x="131" y="216" on="0"/>
        <pt x="45" y="423" on="0"/>
        <pt x="45" y="545" on="1"/>
        <pt x="45" y="666" on="0"/>
        <pt x="131" y="874" on="0"/>
        <pt x="280" y="1026" on="0"/>
        <pt x="479" y="1112" on="0"/>
        <pt x="592" y="1112" on="1"/>
        <pt x="628" y="1112" on="0"/>
        <pt x="705" y="1100" on="0"/>
        <pt x="778" y="1073" on="0"/>
        <pt x="842" y="1029" on="0"/>
        <pt x="864" y="997" on="1"/>
        <pt x="864" y="1497" on="1"/>
        <pt x="1139" y="1497" on="1"/>
      </contour>
      <contour>
        <pt x="864" y="545" on="1"/>
        <pt x="864" y="601" on="0"/>
        <pt x="821" y="706" on="0"/>
        <pt x="747" y="787" on="0"/>
        <pt x="648" y="836" on="0"/>
        <pt x="592" y="836" on="1"/>
        <pt x="536" y="836" on="0"/>
        <pt x="437" y="796" on="0"/>
        <pt x="364" y="721" on="0"/>
        <pt x="322" y="613" on="0"/>
        <pt x="322" y="545" on="1"/>
        <pt x="322" y="486" on="0"/>
        <pt x="364" y="380" on="0"/>
        <pt x="437" y="300" on="0"/>
        <pt x="536" y="254" on="0"/>
        <pt x="592" y="254" on="1"/>
        <pt x="648" y="254" on="0"/>
        <pt x="747" y="303" on="0"/>
        <pt x="821" y="384" on="0"/>
        <pt x="864" y="489" on="0"/>
      </contour>
    </TTGlyph>
    <TTGlyph name="dagger" xMin="66" yMin="-205" xMax="823" yMax="1638">
      <contour>
        <pt x="823" y="997" on="1"/>
        <pt x="590" y="997" on="1"/>
        <pt x="590" y="-205" on="1"/>
        <pt x="301" y="-205" on="1"/>
        <pt x="301" y="997" on="1"/>
        <pt x="66" y="997" on="1"/>
        <pt x="66" y="1270" on="1"/>
        <pt x="301" y="1270" on="1"/>
        <pt x="301" y="1638" on="1"/>
        <pt x="590" y="1638" on="1"/>
        <pt x="590" y="1270" on="1"/>
        <pt x="823" y="1270" on="1"/>
      </contour>
    </TTGlyph>
    <TTGlyph name="daggerdbl" xMin="84" yMin="-205" xMax="842" yMax="1638">
      <contour>
        <pt x="842" y="178" on="1"/>
        <pt x="608" y="178" on="1"/>
        <pt x="608" y="-205" on="1"/>
        <pt x="319" y="-205" on="1"/>
        <pt x="319" y="178" on="1"/>
        <pt x="84" y="178" on="1"/>
        <pt x="84" y="451" on="1"/>
        <pt x="319" y="451" on="1"/>
        <pt x="319" y="997" on="1"/>
        <pt x="84" y="997" on="1"/>
        <pt x="84" y="1270" on="1"/>
        <pt x="319" y="1270" on="1"/>
        <pt x="319" y="1638" on="1"/>
        <pt x="608" y="1638" on="1"/>
        <pt x="608" y="1270" on="1"/>
        <pt x="842" y="1270" on="1"/>
        <pt x="842" y="997" on="1"/>
        <pt x="608" y="997" on="1"/>
        <pt x="608" y="451" on="1"/>
        <pt x="842" y="451" on="1"/>
      </contour>
    </TTGlyph>
    <TTGlyph name="dcaron" xMin="45" yMin="-20" xMax="1515" yMax="1497">
      <component glyphName="d" x="0" y="0" flags="0x4"/>
      <component glyphName="uni0315" x="1243" y="0" flags="0x4"/>
    </TTGlyph>
    <TTGlyph name="dcroat" xMin="45" yMin="-20" xMax="1243" yMax="1497">
      <contour>
        <pt x="1139" y="1438" on="1"/>
        <pt x="1243" y="1438" on="1"/>
        <pt x="1243" y="1165" on="1"/>
        <pt x="1139" y="1165" on="1"/>
        <pt x="1139" y="0" on="1"/>
        <pt x="1073" y="0" on="1"/>
        <pt x="967" y="147" on="1"/>
        <pt x="928" y="112" on="0"/>
        <pt x="841" y="51" on="0"/>
        <pt x="745" y="6" on="0"/>
        <pt x="644" y="-20" on="0"/>
        <pt x="592" y="-20" on="1"/>
        <pt x="479" y="-20" on="0"/>
        <pt x="280" y="65" on="0"/>
        <pt x="131" y="216" on="0"/>
        <pt x="45" y="423" on="0"/>
        <pt x="45" y="545" on="1"/>
        <pt x="45" y="666" on="0"/>
        <pt x="131" y="874" on="0"/>
        <pt x="280" y="1026" on="0"/>
        <pt x="479" y="1112" on="0"/>
        <pt x="592" y="1112" on="1"/>
        <pt x="628" y="1112" on="0"/>
        <pt x="705" y="1100" on="0"/>
        <pt x="778" y="1073" on="0"/>
        <pt x="842" y="1029" on="0"/>
        <pt x="864" y="997" on="1"/>
        <pt x="864" y="1165" on="1"/>
        <pt x="754" y="1165" on="1"/>
        <pt x="754" y="1438" on="1"/>
        <pt x="864" y="1438" on="1"/>
        <pt x="864" y="1497" on="1"/>
        <pt x="1139" y="1497" on="1"/>
      </contour>
      <contour>
        <pt x="864" y="545" on="1"/>
        <pt x="864" y="601" on="0"/>
        <pt x="821" y="706" on="0"/>
        <pt x="747" y="787" on="0"/>
        <pt x="648" y="836" on="0"/>
        <pt x="592" y="836" on="1"/>
        <pt x="536" y="836" on="0"/>
        <pt x="437" y="796" on="0"/>
        <pt x="364" y="721" on="0"/>
        <pt x="322" y="613" on="0"/>
        <pt x="322" y="545" on="1"/>
        <pt x="322" y="486" on="0"/>
        <pt x="364" y="380" on="0"/>
        <pt x="437" y="300" on="0"/>
        <pt x="536" y="254" on="0"/>
        <pt x="592" y="254" on="1"/>
        <pt x="648" y="254" on="0"/>
        <pt x="747" y="303" on="0"/>
        <pt x="821" y="384" on="0"/>
        <pt x="864" y="489" on="0"/>
      </contour>
    </TTGlyph>
    <TTGlyph name="degree" xMin="74" yMin="766" xMax="709" yMax="1401">
      <contour>
        <pt x="709" y="1083" on="1"/>
        <pt x="709" y="1018" on="0"/>
        <pt x="659" y="902" on="0"/>
        <pt x="572" y="816" on="0"/>
        <pt x="456" y="766" on="0"/>
        <pt x="391" y="766" on="1"/>
        <pt x="325" y="766" on="0"/>
        <pt x="209" y="816" on="0"/>
        <pt x="124" y="902" on="0"/>
        <pt x="74" y="1018" on="0"/>
        <pt x="74" y="1083" on="1"/>
        <pt x="74" y="1149" on="0"/>
        <pt x="124" y="1265" on="0"/>
        <pt x="209" y="1351" on="0"/>
        <pt x="325" y="1401" on="0"/>
        <pt x="391" y="1401" on="1"/>
        <pt x="456" y="1401" on="0"/>
        <pt x="572" y="1351" on="0"/>
        <pt x="659" y="1265" on="0"/>
        <pt x="709" y="1149" on="0"/>
      </contour>
      <contour>
        <pt x="494" y="1083" on="1"/>
        <pt x="494" y="1105" on="0"/>
        <pt x="477" y="1143" on="0"/>
        <pt x="449" y="1171" on="0"/>
        <pt x="410" y="1188" on="0"/>
        <pt x="389" y="1188" on="1"/>
        <pt x="368" y="1188" on="0"/>
        <pt x="330" y="1171" on="0"/>
        <pt x="301" y="1143" on="0"/>
        <pt x="285" y="1105" on="0"/>
        <pt x="285" y="1083" on="1"/>
        <pt x="285" y="1062" on="0"/>
        <pt x="301" y="1024" on="0"/>
        <pt x="330" y="995" on="0"/>
        <pt x="368" y="979" on="0"/>
        <pt x="389" y="979" on="1"/>
        <pt x="410" y="979" on="0"/>
        <pt x="449" y="995" on="0"/>
        <pt x="477" y="1024" on="0"/>
        <pt x="494" y="1062" on="0"/>
      </contour>
    </TTGlyph>
    <TTGlyph name="dieresis" xMin="0" yMin="1083" xMax="616" yMax="1339">
      <contour>
        <pt x="616" y="1210" on="1"/>
        <pt x="616" y="1184" on="0"/>
        <pt x="597" y="1138" on="0"/>
        <pt x="564" y="1103" on="0"/>
        <pt x="519" y="1083" on="0"/>
        <pt x="494" y="1083" on="1"/>
        <pt x="468" y="1083" on="0"/>
        <pt x="421" y="1103" on="0"/>
        <pt x="387" y="1138" on="0"/>
        <pt x="367" y="1184" on="0"/>
        <pt x="367" y="1210" on="1"/>
        <pt x="367" y="1235" on="0"/>
        <pt x="387" y="1281" on="0"/>
        <pt x="421" y="1315" on="0"/>
        <pt x="468" y="1335" on="0"/>
        <pt x="494" y="1335" on="1"/>
        <pt x="519" y="1335" on="0"/>
        <pt x="564" y="1315" on="0"/>
        <pt x="597" y="1281" on="0"/>
        <pt x="616" y="1235" on="0"/>
      </contour>
      <contour>
        <pt x="256" y="1212" on="1"/>
        <pt x="256" y="1185" on="0"/>
        <pt x="236" y="1138" on="0"/>
        <pt x="201" y="1103" on="0"/>
        <pt x="155" y="1083" on="0"/>
        <pt x="129" y="1083" on="1"/>
        <pt x="103" y="1083" on="0"/>
        <pt x="56" y="1103" on="0"/>
        <pt x="21" y="1138" on="0"/>
        <pt x="0" y="1185" on="0"/>
        <pt x="0" y="1212" on="1"/>
        <pt x="0" y="1238" on="0"/>
        <pt x="21" y="1284" on="0"/>
        <pt x="56" y="1319" on="0"/>
        <pt x="103" y="1339" on="0"/>
        <pt x="129" y="1339" on="1"/>
        <pt x="155" y="1339" on="0"/>
        <pt x="201" y="1319" on="0"/>
        <pt x="236" y="1284" on="0"/>
        <pt x="256" y="1238" on="0"/>
      </contour>
    </TTGlyph>
    <TTGlyph name="divide" xMin="86" yMin="238" xMax="926" yMax="1225">
      <contour>
        <pt x="926" y="860" on="1"/>
        <pt x="926" y="588" on="1"/>
        <pt x="86" y="588" on="1"/>
        <pt x="86" y="860" on="1"/>
      </contour>
      <contour>
        <pt x="653" y="383" on="1"/>
        <pt x="653" y="353" on="0"/>
        <pt x="631" y="300" on="0"/>
        <pt x="592" y="261" on="0"/>
        <pt x="540" y="238" on="0"/>
        <pt x="510" y="238" on="1"/>
        <pt x="479" y="238" on="0"/>
        <pt x="425" y="261" on="0"/>
        <pt x="385" y="300" on="0"/>
        <pt x="362" y="353" on="0"/>
        <pt x="362" y="383" on="1"/>
        <pt x="362" y="413" on="0"/>
        <pt x="385" y="466" on="0"/>
        <pt x="425" y="505" on="0"/>
        <pt x="479" y="528" on="0"/>
        <pt x="510" y="528" on="1"/>
        <pt x="540" y="528" on="0"/>
        <pt x="592" y="505" on="0"/>
        <pt x="631" y="466" on="0"/>
        <pt x="653" y="413" on="0"/>
      </contour>
      <contour>
        <pt x="653" y="1079" on="1"/>
        <pt x="653" y="1049" on="0"/>
        <pt x="631" y="996" on="0"/>
        <pt x="592" y="957" on="0"/>
        <pt x="540" y="934" on="0"/>
        <pt x="510" y="934" on="1"/>
        <pt x="479" y="934" on="0"/>
        <pt x="425" y="957" on="0"/>
        <pt x="385" y="996" on="0"/>
        <pt x="362" y="1049" on="0"/>
        <pt x="362" y="1079" on="1"/>
        <pt x="362" y="1109" on="0"/>
        <pt x="385" y="1162" on="0"/>
        <pt x="425" y="1202" on="0"/>
        <pt x="479" y="1225" on="0"/>
        <pt x="510" y="1225" on="1"/>
        <pt x="540" y="1225" on="0"/>
        <pt x="592" y="1202" on="0"/>
        <pt x="631" y="1162" on="0"/>
        <pt x="653" y="1109" on="0"/>
      </contour>
    </TTGlyph>
    <TTGlyph name="dollar" xMin="90" yMin="0" xMax="862" yMax="1434">
      <contour>
        <pt x="571" y="1163" on="1"/>
        <pt x="805" y="1163" on="1"/>
        <pt x="805" y="944" on="1"/>
        <pt x="362" y="944" on="1"/>
        <pt x="339" y="944" on="0"/>
        <pt x="307" y="913" on="0"/>
        <pt x="307" y="891" on="1"/>
        <pt x="307" y="868" on="0"/>
        <pt x="339" y="836" on="0"/>
        <pt x="362" y="836" on="1"/>
        <pt x="590" y="836" on="1"/>
        <pt x="646" y="836" on="0"/>
        <pt x="745" y="798" on="0"/>
        <pt x="819" y="730" on="0"/>
        <pt x="862" y="636" on="0"/>
        <pt x="862" y="580" on="1"/>
        <pt x="862" y="523" on="0"/>
        <pt x="819" y="423" on="0"/>
        <pt x="745" y="350" on="0"/>
        <pt x="646" y="307" on="0"/>
        <pt x="590" y="307" on="1"/>
        <pt x="571" y="307" on="1"/>
        <pt x="571" y="0" on="1"/>
        <pt x="387" y="0" on="1"/>
        <pt x="387" y="307" on="1"/>
        <pt x="90" y="307" on="1"/>
        <pt x="90" y="524" on="1"/>
        <pt x="590" y="524" on="1"/>
        <pt x="611" y="524" on="0"/>
        <pt x="643" y="557" on="0"/>
        <pt x="643" y="580" on="1"/>
        <pt x="643" y="603" on="0"/>
        <pt x="611" y="616" on="0"/>
        <pt x="590" y="616" on="1"/>
        <pt x="362" y="616" on="1"/>
        <pt x="305" y="616" on="0"/>
        <pt x="206" y="659" on="0"/>
        <pt x="133" y="734" on="0"/>
        <pt x="90" y="834" on="0"/>
        <pt x="90" y="891" on="1"/>
        <pt x="90" y="947" on="0"/>
        <pt x="133" y="1046" on="0"/>
        <pt x="206" y="1120" on="0"/>
        <pt x="305" y="1163" on="0"/>
        <pt x="362" y="1163" on="1"/>
        <pt x="387" y="1163" on="1"/>
        <pt x="387" y="1434" on="1"/>
        <pt x="571" y="1434" on="1"/>
      </contour>
    </TTGlyph>
    <TTGlyph name="dotaccent" xMin="0" yMin="1098" xMax="256" yMax="1356">
      <contour>
        <pt x="256" y="1227" on="1"/>
        <pt x="256" y="1200" on="0"/>
        <pt x="236" y="1153" on="0"/>
        <pt x="201" y="1118" on="0"/>
        <pt x="155" y="1098" on="0"/>
        <pt x="129" y="1098" on="1"/>
        <pt x="103" y="1098" on="0"/>
        <pt x="56" y="1118" on="0"/>
        <pt x="21" y="1153" on="0"/>
        <pt x="0" y="1200" on="0"/>
        <pt x="0" y="1227" on="1"/>
        <pt x="0" y="1253" on="0"/>
        <pt x="21" y="1300" on="0"/>
        <pt x="56" y="1335" on="0"/>
        <pt x="103" y="1356" on="0"/>
        <pt x="129" y="1356" on="1"/>
        <pt x="155" y="1356" on="0"/>
        <pt x="201" y="1335" on="0"/>
        <pt x="236" y="1300" on="0"/>
        <pt x="256" y="1253" on="0"/>
      </contour>
    </TTGlyph>
    <TTGlyph name="dotlessi" xMin="104" yMin="0" xMax="379" yMax="1071">
      <contour>
        <pt x="379" y="0" on="1"/>
        <pt x="104" y="0" on="1"/>
        <pt x="104" y="1071" on="1"/>
        <pt x="379" y="1071" on="1"/>
      </contour>
    </TTGlyph>
    <TTGlyph name="dotlessj" xMin="-303" yMin="-408" xMax="385" yMax="1071">
      <contour>
        <pt x="-303" y="-408" on="1"/>
        <pt x="-303" y="-133" on="1"/>
        <pt x="-152" y="-135" on="1"/>
        <pt x="-97" y="-135" on="0"/>
        <pt x="-3" y="-90" on="0"/>
        <pt x="66" y="-15" on="0"/>
        <pt x="106" y="83" on="0"/>
        <pt x="106" y="137" on="1"/>
        <pt x="106" y="1071" on="1"/>
        <pt x="385" y="1071" on="1"/>
        <pt x="385" y="137" on="1"/>
        <pt x="383" y="137" on="1"/>
        <pt x="382" y="62" on="0"/>
        <pt x="343" y="-78" on="0"/>
        <pt x="271" y="-199" on="0"/>
        <pt x="171" y="-298" on="0"/>
        <pt x="50" y="-369" on="0"/>
        <pt x="-89" y="-408" on="0"/>
        <pt x="-164" y="-408" on="1"/>
      </contour>
    </TTGlyph>
    <TTGlyph name="e" xMin="47" yMin="-20" xMax="1042" yMax="1112">
      <contour>
        <pt x="530" y="262" on="1"/>
        <pt x="546" y="257" on="0"/>
        <pt x="578" y="254" on="0"/>
        <pt x="594" y="254" on="1"/>
        <pt x="634" y="254" on="0"/>
        <pt x="708" y="276" on="0"/>
        <pt x="773" y="317" on="0"/>
        <pt x="824" y="376" on="0"/>
        <pt x="840" y="412" on="1"/>
        <pt x="1040" y="211" on="1"/>
        <pt x="1002" y="157" on="0"/>
        <pt x="903" y="71" on="0"/>
        <pt x="788" y="11" on="0"/>
        <pt x="661" y="-20" on="0"/>
        <pt x="594" y="-20" on="1"/>
        <pt x="481" y="-20" on="0"/>
        <pt x="282" y="64" on="0"/>
        <pt x="133" y="214" on="0"/>
        <pt x="47" y="421" on="0"/>
        <pt x="47" y="545" on="1"/>
        <pt x="47" y="672" on="0"/>
        <pt x="133" y="882" on="0"/>
        <pt x="282" y="1030" on="0"/>
        <pt x="481" y="1112" on="0"/>
        <pt x="594" y="1112" on="1"/>
        <pt x="661" y="1112" on="0"/>
        <pt x="789" y="1080" on="0"/>
        <pt x="904" y="1020" on="0"/>
        <pt x="1004" y="933" on="0"/>
        <pt x="1042" y="879" on="1"/>
      </contour>
      <contour>
        <pt x="670" y="825" on="1"/>
        <pt x="651" y="832" on="0"/>
        <pt x="614" y="836" on="0"/>
        <pt x="594" y="836" on="1"/>
        <pt x="538" y="836" on="0"/>
        <pt x="439" y="795" on="0"/>
        <pt x="366" y="719" on="0"/>
        <pt x="324" y="612" on="0"/>
        <pt x="324" y="545" on="1"/>
        <pt x="324" y="530" on="0"/>
        <pt x="327" y="492" on="0"/>
        <pt x="334" y="453" on="0"/>
        <pt x="344" y="417" on="0"/>
        <pt x="352" y="403" on="1"/>
      </contour>
    </TTGlyph>
    <TTGlyph name="eacute" xMin="47" yMin="-20" xMax="1042" yMax="1620">
      <component glyphName="e" x="0" y="0" flags="0x204"/>
      <component glyphName="acute" x="473" y="188" flags="0x4"/>
    </TTGlyph>
    <TTGlyph name="ebreve" xMin="47" yMin="-20" xMax="1042" yMax="1479">
      <component glyphName="e" x="0" y="0" flags="0x204"/>
      <component glyphName="breve" x="336" y="90" flags="0x4"/>
    </TTGlyph>
    <TTGlyph name="ecaron" xMin="47" yMin="-20" xMax="1042" yMax="1589">
      <component glyphName="e" x="0" y="0" flags="0x204"/>
      <component glyphName="caron" x="305" y="143" flags="0x4"/>
    </TTGlyph>
    <TTGlyph name="ecircumflex" xMin="47" yMin="-20" xMax="1042" yMax="1579">
      <component glyphName="e" x="0" y="0" flags="0x204"/>
      <component glyphName="circumflex" x="270" y="154" flags="0x4"/>
    </TTGlyph>
    <TTGlyph name="edieresis" xMin="47" yMin="-20" xMax="1042" yMax="1441">
      <component glyphName="e" x="0" y="0" flags="0x204"/>
      <component glyphName="dieresis" x="236" y="102" flags="0x4"/>
    </TTGlyph>
    <TTGlyph name="edotaccent" xMin="47" yMin="-20" xMax="1042" yMax="1458">
      <component glyphName="e" x="0" y="0" flags="0x204"/>
      <component glyphName="dotaccent" x="451" y="102" flags="0x4"/>
    </TTGlyph>
    <TTGlyph name="egrave" xMin="47" yMin="-20" xMax="1042" yMax="1618">
      <component glyphName="e" x="0" y="0" flags="0x204"/>
      <component glyphName="grave" x="221" y="186" flags="0x4"/>
    </TTGlyph>
    <TTGlyph name="eight" xMin="72" yMin="-37" xMax="1194" yMax="1479">
      <contour>
        <pt x="1194" y="410" on="1"/>
        <pt x="1194" y="313" on="0"/>
        <pt x="1106" y="149" on="0"/>
        <pt x="953" y="30" on="0"/>
        <pt x="749" y="-37" on="0"/>
        <pt x="633" y="-37" on="1"/>
        <pt x="517" y="-37" on="0"/>
        <pt x="313" y="30" on="0"/>
        <pt x="160" y="149" on="0"/>
        <pt x="72" y="313" on="0"/>
        <pt x="72" y="410" on="1"/>
        <pt x="72" y="466" on="0"/>
        <pt x="102" y="573" on="0"/>
        <pt x="159" y="667" on="0"/>
        <pt x="239" y="746" on="0"/>
        <pt x="289" y="774" on="1"/>
        <pt x="258" y="801" on="0"/>
        <pt x="209" y="871" on="0"/>
        <pt x="174" y="949" on="0"/>
        <pt x="156" y="1032" on="0"/>
        <pt x="156" y="1073" on="1"/>
        <pt x="156" y="1157" on="0"/>
        <pt x="231" y="1304" on="0"/>
        <pt x="361" y="1415" on="0"/>
        <pt x="535" y="1479" on="0"/>
        <pt x="633" y="1479" on="1"/>
        <pt x="732" y="1479" on="0"/>
        <pt x="906" y="1415" on="0"/>
        <pt x="1037" y="1304" on="0"/>
        <pt x="1112" y="1157" on="0"/>
        <pt x="1112" y="1073" on="1"/>
        <pt x="1112" y="1032" on="0"/>
        <pt x="1093" y="949" on="0"/>
        <pt x="1059" y="870" on="0"/>
        <pt x="1010" y="800" on="0"/>
        <pt x="979" y="772" on="1"/>
        <pt x="1028" y="744" on="0"/>
        <pt x="1108" y="666" on="0"/>
        <pt x="1164" y="572" on="0"/>
        <pt x="1194" y="466" on="0"/>
      </contour>
      <contour>
        <pt x="831" y="1042" on="1"/>
        <pt x="831" y="1077" on="0"/>
        <pt x="800" y="1138" on="0"/>
        <pt x="747" y="1184" on="0"/>
        <pt x="675" y="1210" on="0"/>
        <pt x="635" y="1210" on="1"/>
        <pt x="594" y="1210" on="0"/>
        <pt x="522" y="1184" on="0"/>
        <pt x="469" y="1138" on="0"/>
        <pt x="438" y="1077" on="0"/>
        <pt x="438" y="1042" on="1"/>
        <pt x="438" y="1007" on="0"/>
        <pt x="469" y="947" on="0"/>
        <pt x="522" y="903" on="0"/>
        <pt x="594" y="877" on="0"/>
        <pt x="635" y="877" on="1"/>
        <pt x="675" y="877" on="0"/>
        <pt x="747" y="903" on="0"/>
        <pt x="800" y="947" on="0"/>
        <pt x="831" y="1007" on="0"/>
      </contour>
      <contour>
        <pt x="909" y="418" on="1"/>
        <pt x="909" y="466" on="0"/>
        <pt x="866" y="549" on="0"/>
        <pt x="791" y="611" on="0"/>
        <pt x="690" y="647" on="0"/>
        <pt x="633" y="647" on="1"/>
        <pt x="576" y="647" on="0"/>
        <pt x="476" y="611" on="0"/>
        <pt x="401" y="549" on="0"/>
        <pt x="358" y="466" on="0"/>
        <pt x="358" y="418" on="1"/>
        <pt x="358" y="370" on="0"/>
        <pt x="401" y="290" on="0"/>
        <pt x="476" y="232" on="0"/>
        <pt x="576" y="199" on="0"/>
        <pt x="633" y="199" on="1"/>
        <pt x="690" y="199" on="0"/>
        <pt x="791" y="232" on="0"/>
        <pt x="866" y="290" on="0"/>
        <pt x="909" y="370" on="0"/>
      </contour>
    </TTGlyph>
    <TTGlyph name="ellipsis" xMin="98" yMin="-70" xMax="1518" yMax="272">
      <contour>
        <pt x="440" y="102" on="1"/>
        <pt x="440" y="66" on="0"/>
        <pt x="414" y="3" on="0"/>
        <pt x="368" y="-43" on="0"/>
        <pt x="306" y="-70" on="0"/>
        <pt x="270" y="-70" on="1"/>
        <pt x="235" y="-70" on="0"/>
        <pt x="172" y="-43" on="0"/>
        <pt x="125" y="3" on="0"/>
        <pt x="98" y="66" on="0"/>
        <pt x="98" y="102" on="1"/>
        <pt x="98" y="137" on="0"/>
        <pt x="125" y="199" on="0"/>
        <pt x="172" y="245" on="0"/>
        <pt x="235" y="272" on="0"/>
        <pt x="270" y="272" on="1"/>
        <pt x="306" y="272" on="0"/>
        <pt x="368" y="245" on="0"/>
        <pt x="414" y="199" on="0"/>
        <pt x="440" y="137" on="0"/>
      </contour>
      <contour>
        <pt x="979" y="102" on="1"/>
        <pt x="979" y="66" on="0"/>
        <pt x="952" y="3" on="0"/>
        <pt x="906" y="-43" on="0"/>
        <pt x="844" y="-70" on="0"/>
        <pt x="809" y="-70" on="1"/>
        <pt x="774" y="-70" on="0"/>
        <pt x="711" y="-43" on="0"/>
        <pt x="664" y="3" on="0"/>
        <pt x="637" y="66" on="0"/>
        <pt x="637" y="102" on="1"/>
        <pt x="637" y="137" on="0"/>
        <pt x="664" y="199" on="0"/>
        <pt x="711" y="245" on="0"/>
        <pt x="774" y="272" on="0"/>
        <pt x="809" y="272" on="1"/>
        <pt x="844" y="272" on="0"/>
        <pt x="906" y="245" on="0"/>
        <pt x="952" y="199" on="0"/>
        <pt x="979" y="137" on="0"/>
      </contour>
      <contour>
        <pt x="1518" y="102" on="1"/>
        <pt x="1518" y="66" on="0"/>
        <pt x="1491" y="3" on="0"/>
        <pt x="1445" y="-43" on="0"/>
        <pt x="1383" y="-70" on="0"/>
        <pt x="1348" y="-70" on="1"/>
        <pt x="1312" y="-70" on="0"/>
        <pt x="1250" y="-43" on="0"/>
        <pt x="1203" y="3" on="0"/>
        <pt x="1176" y="66" on="0"/>
        <pt x="1176" y="102" on="1"/>
        <pt x="1176" y="137" on="0"/>
        <pt x="1203" y="199" on="0"/>
        <pt x="1250" y="245" on="0"/>
        <pt x="1312" y="272" on="0"/>
        <pt x="1348" y="272" on="1"/>
        <pt x="1383" y="272" on="0"/>
        <pt x="1445" y="245" on="0"/>
        <pt x="1491" y="199" on="0"/>
        <pt x="1518" y="137" on="0"/>
      </contour>
    </TTGlyph>
    <TTGlyph name="emacron" xMin="47" yMin="-20" xMax="1042" yMax="1409">
      <component glyphName="e" x="0" y="0" flags="0x204"/>
      <component glyphName="macron" x="326" y="102" flags="0x4"/>
    </TTGlyph>
    <TTGlyph name="emdash" xMin="123" yMin="588" xMax="1352" yMax="860">
      <contour>
        <pt x="1352" y="860" on="1"/>
        <pt x="1352" y="588" on="1"/>
        <pt x="123" y="588" on="1"/>
        <pt x="123" y="860" on="1"/>
      </contour>
    </TTGlyph>
    <TTGlyph name="endash" xMin="123" yMin="588" xMax="737" yMax="860">
      <contour>
        <pt x="737" y="860" on="1"/>
        <pt x="737" y="588" on="1"/>
        <pt x="123" y="588" on="1"/>
        <pt x="123" y="860" on="1"/>
      </contour>
    </TTGlyph>
    <TTGlyph name="eng" xMin="104" yMin="-408" xMax="1061" yMax="1092">
      <contour>
        <pt x="377" y="0" on="1"/>
        <pt x="104" y="0" on="1"/>
        <pt x="104" y="1071" on="1"/>
        <pt x="170" y="1071" on="1"/>
        <pt x="260" y="967" on="1"/>
        <pt x="326" y="1027" on="0"/>
        <pt x="493" y="1092" on="0"/>
        <pt x="584" y="1092" on="1"/>
        <pt x="682" y="1092" on="0"/>
        <pt x="856" y="1017" on="0"/>
        <pt x="986" y="886" on="0"/>
        <pt x="1061" y="711" on="0"/>
        <pt x="1061" y="612" on="1"/>
        <pt x="1061" y="137" on="1"/>
        <pt x="1061" y="24" on="0"/>
        <pt x="974" y="-174" on="0"/>
        <pt x="825" y="-322" on="0"/>
        <pt x="626" y="-408" on="0"/>
        <pt x="514" y="-408" on="1"/>
        <pt x="375" y="-408" on="1"/>
        <pt x="375" y="-133" on="1"/>
        <pt x="526" y="-135" on="1"/>
        <pt x="581" y="-135" on="0"/>
        <pt x="676" y="-90" on="0"/>
        <pt x="746" y="-15" on="0"/>
        <pt x="786" y="83" on="0"/>
        <pt x="786" y="137" on="1"/>
        <pt x="788" y="612" on="1"/>
        <pt x="788" y="654" on="0"/>
        <pt x="756" y="729" on="0"/>
        <pt x="700" y="785" on="0"/>
        <pt x="626" y="817" on="0"/>
        <pt x="584" y="817" on="1"/>
        <pt x="541" y="817" on="0"/>
        <pt x="465" y="785" on="0"/>
        <pt x="409" y="729" on="0"/>
        <pt x="377" y="654" on="0"/>
        <pt x="377" y="612" on="1"/>
      </contour>
    </TTGlyph>
    <TTGlyph name="eogonek" xMin="47" yMin="-365" xMax="1042" yMax="1112">
      <contour>
        <pt x="743" y="-365" on="1"/>
        <pt x="714" y="-365" on="0"/>
        <pt x="645" y="-341" on="0"/>
        <pt x="585" y="-295" on="0"/>
        <pt x="545" y="-225" on="0"/>
        <pt x="545" y="-180" on="1"/>
        <pt x="545" y="-132" on="0"/>
        <pt x="594" y="-52" on="0"/>
        <pt x="629" y="-18" on="1"/>
        <pt x="619" y="-20" on="0"/>
        <pt x="602" y="-20" on="0"/>
        <pt x="594" y="-20" on="1"/>
        <pt x="481" y="-20" on="0"/>
        <pt x="282" y="64" on="0"/>
        <pt x="133" y="214" on="0"/>
        <pt x="47" y="421" on="0"/>
        <pt x="47" y="545" on="1"/>
        <pt x="47" y="672" on="0"/>
        <pt x="133" y="882" on="0"/>
        <pt x="282" y="1030" on="0"/>
        <pt x="481" y="1112" on="0"/>
        <pt x="594" y="1112" on="1"/>
        <pt x="661" y="1112" on="0"/>
        <pt x="789" y="1080" on="0"/>
        <pt x="904" y="1020" on="0"/>
        <pt x="1004" y="933" on="0"/>
        <pt x="1042" y="879" on="1"/>
        <pt x="530" y="262" on="1"/>
        <pt x="546" y="257" on="0"/>
        <pt x="578" y="254" on="0"/>
        <pt x="594" y="254" on="1"/>
        <pt x="634" y="254" on="0"/>
        <pt x="708" y="276" on="0"/>
        <pt x="773" y="317" on="0"/>
        <pt x="824" y="376" on="0"/>
        <pt x="840" y="412" on="1"/>
        <pt x="1040" y="211" on="1"/>
        <pt x="960" y="97" on="0"/>
        <pt x="838" y="37" on="1"/>
        <pt x="822" y="19" on="0"/>
        <pt x="786" y="-27" on="0"/>
        <pt x="755" y="-75" on="0"/>
        <pt x="735" y="-120" on="0"/>
        <pt x="735" y="-135" on="1"/>
        <pt x="735" y="-151" on="0"/>
        <pt x="755" y="-176" on="0"/>
        <pt x="772" y="-176" on="1"/>
        <pt x="794" y="-176" on="0"/>
        <pt x="832" y="-147" on="0"/>
        <pt x="840" y="-127" on="1"/>
        <pt x="981" y="-258" on="1"/>
        <pt x="933" y="-306" on="0"/>
        <pt x="813" y="-365" on="0"/>
      </contour>
      <contour>
        <pt x="670" y="825" on="1"/>
        <pt x="651" y="832" on="0"/>
        <pt x="614" y="836" on="0"/>
        <pt x="594" y="836" on="1"/>
        <pt x="538" y="836" on="0"/>
        <pt x="439" y="795" on="0"/>
        <pt x="366" y="719" on="0"/>
        <pt x="324" y="612" on="0"/>
        <pt x="324" y="545" on="1"/>
        <pt x="324" y="530" on="0"/>
        <pt x="327" y="492" on="0"/>
        <pt x="334" y="453" on="0"/>
        <pt x="344" y="417" on="0"/>
        <pt x="352" y="403" on="1"/>
      </contour>
    </TTGlyph>
    <TTGlyph name="equal" xMin="131" yMin="383" xMax="971" yMax="1065">
      <contour>
        <pt x="971" y="1065" on="1"/>
        <pt x="971" y="793" on="1"/>
        <pt x="131" y="793" on="1"/>
        <pt x="131" y="1065" on="1"/>
      </contour>
      <contour>
        <pt x="971" y="655" on="1"/>
        <pt x="971" y="383" on="1"/>
        <pt x="131" y="383" on="1"/>
        <pt x="131" y="655" on="1"/>
      </contour>
    </TTGlyph>
    <TTGlyph name="eth" xMin="45" yMin="-20" xMax="1141" yMax="1559">
      <contour>
        <pt x="496" y="1436" on="1"/>
        <pt x="476" y="1467" on="0"/>
        <pt x="433" y="1528" on="0"/>
        <pt x="412" y="1559" on="1"/>
        <pt x="752" y="1559" on="1"/>
        <pt x="760" y="1544" on="0"/>
        <pt x="771" y="1526" on="1"/>
        <pt x="780" y="1510" on="0"/>
        <pt x="806" y="1464" on="0"/>
        <pt x="823" y="1436" on="1"/>
        <pt x="1106" y="1436" on="1"/>
        <pt x="1106" y="1204" on="1"/>
        <pt x="944" y="1204" on="1"/>
        <pt x="981" y="1127" on="0"/>
        <pt x="1051" y="957" on="0"/>
        <pt x="1107" y="785" on="0"/>
        <pt x="1141" y="615" on="0"/>
        <pt x="1141" y="539" on="1"/>
        <pt x="1139" y="539" on="1"/>
        <pt x="1137" y="420" on="0"/>
        <pt x="1051" y="215" on="0"/>
        <pt x="903" y="65" on="0"/>
        <pt x="705" y="-20" on="0"/>
        <pt x="592" y="-20" on="1"/>
        <pt x="479" y="-20" on="0"/>
        <pt x="280" y="67" on="0"/>
        <pt x="131" y="218" on="0"/>
        <pt x="45" y="425" on="0"/>
        <pt x="45" y="545" on="1"/>
        <pt x="45" y="667" on="0"/>
        <pt x="131" y="871" on="0"/>
        <pt x="280" y="1019" on="0"/>
        <pt x="479" y="1102" on="0"/>
        <pt x="592" y="1102" on="1"/>
        <pt x="604" y="1102" on="0"/>
        <pt x="634" y="1101" on="0"/>
        <pt x="665" y="1095" on="0"/>
        <pt x="694" y="1084" on="0"/>
        <pt x="705" y="1075" on="1"/>
        <pt x="637" y="1204" on="1"/>
        <pt x="266" y="1204" on="1"/>
        <pt x="266" y="1436" on="1"/>
      </contour>
      <contour>
        <pt x="864" y="545" on="1"/>
        <pt x="864" y="611" on="0"/>
        <pt x="821" y="718" on="0"/>
        <pt x="747" y="795" on="0"/>
        <pt x="648" y="836" on="0"/>
        <pt x="592" y="836" on="1"/>
        <pt x="536" y="836" on="0"/>
        <pt x="437" y="795" on="0"/>
        <pt x="364" y="718" on="0"/>
        <pt x="322" y="611" on="0"/>
        <pt x="322" y="545" on="1"/>
        <pt x="322" y="483" on="0"/>
        <pt x="364" y="377" on="0"/>
        <pt x="437" y="299" on="0"/>
        <pt x="536" y="254" on="0"/>
        <pt x="592" y="254" on="1"/>
        <pt x="648" y="254" on="0"/>
        <pt x="747" y="296" on="0"/>
        <pt x="821" y="372" on="0"/>
        <pt x="864" y="480" on="0"/>
      </contour>
    </TTGlyph>
    <TTGlyph name="exclam" xMin="109" yMin="-70" xMax="455" yMax="1434">
      <contour>
        <pt x="393" y="354" on="1"/>
        <pt x="170" y="354" on="1"/>
        <pt x="109" y="1434" on="1"/>
        <pt x="455" y="1434" on="1"/>
      </contour>
      <contour>
        <pt x="453" y="102" on="1"/>
        <pt x="453" y="66" on="0"/>
        <pt x="426" y="3" on="0"/>
        <pt x="380" y="-43" on="0"/>
        <pt x="318" y="-70" on="0"/>
        <pt x="283" y="-70" on="1"/>
        <pt x="247" y="-70" on="0"/>
        <pt x="185" y="-43" on="0"/>
        <pt x="138" y="3" on="0"/>
        <pt x="111" y="66" on="0"/>
        <pt x="111" y="102" on="1"/>
        <pt x="111" y="137" on="0"/>
        <pt x="138" y="199" on="0"/>
        <pt x="185" y="245" on="0"/>
        <pt x="247" y="272" on="0"/>
        <pt x="283" y="272" on="1"/>
        <pt x="318" y="272" on="0"/>
        <pt x="380" y="245" on="0"/>
        <pt x="426" y="199" on="0"/>
        <pt x="453" y="137" on="0"/>
      </contour>
    </TTGlyph>
    <TTGlyph name="exclamdown" xMin="109" yMin="-289" xMax="455" yMax="1214">
      <contour>
        <pt x="170" y="791" on="1"/>
        <pt x="393" y="791" on="1"/>
        <pt x="455" y="-289" on="1"/>
        <pt x="109" y="-289" on="1"/>
      </contour>
      <contour>
        <pt x="111" y="1042" on="1"/>
        <pt x="111" y="1078" on="0"/>
        <pt x="137" y="1141" on="0"/>
        <pt x="183" y="1188" on="0"/>
        <pt x="245" y="1214" on="0"/>
        <pt x="281" y="1214" on="1"/>
        <pt x="316" y="1214" on="0"/>
        <pt x="379" y="1188" on="0"/>
        <pt x="426" y="1141" on="0"/>
        <pt x="453" y="1078" on="0"/>
        <pt x="453" y="1042" on="1"/>
        <pt x="453" y="1007" on="0"/>
        <pt x="426" y="946" on="0"/>
        <pt x="379" y="899" on="0"/>
        <pt x="316" y="872" on="0"/>
        <pt x="281" y="872" on="1"/>
        <pt x="245" y="872" on="0"/>
        <pt x="183" y="899" on="0"/>
        <pt x="137" y="946" on="0"/>
        <pt x="111" y="1007" on="0"/>
      </contour>
    </TTGlyph>
    <TTGlyph name="f" xMin="45" yMin="0" xMax="862" yMax="1599">
      <contour>
        <pt x="451" y="0" on="1"/>
        <pt x="178" y="0" on="1"/>
        <pt x="178" y="799" on="1"/>
        <pt x="45" y="799" on="1"/>
        <pt x="45" y="1071" on="1"/>
        <pt x="178" y="1071" on="1"/>
        <pt x="178" y="1122" on="1"/>
        <pt x="178" y="1221" on="0"/>
        <pt x="253" y="1395" on="0"/>
        <pt x="384" y="1524" on="0"/>
        <pt x="558" y="1599" on="0"/>
        <pt x="657" y="1599" on="1"/>
        <pt x="862" y="1599" on="1"/>
        <pt x="862" y="1327" on="1"/>
        <pt x="657" y="1327" on="1"/>
        <pt x="613" y="1327" on="0"/>
        <pt x="538" y="1296" on="0"/>
        <pt x="483" y="1241" on="0"/>
        <pt x="451" y="1166" on="0"/>
        <pt x="451" y="1122" on="1"/>
        <pt x="451" y="1071" on="1"/>
        <pt x="786" y="1071" on="1"/>
        <pt x="786" y="799" on="1"/>
        <pt x="451" y="799" on="1"/>
      </contour>
    </TTGlyph>
    <TTGlyph name="fi" xMin="45" yMin="0" xMax="1276" yMax="1599">
      <contour>
        <pt x="451" y="0" on="1"/>
        <pt x="178" y="0" on="1"/>
        <pt x="178" y="799" on="1"/>
        <pt x="45" y="799" on="1"/>
        <pt x="45" y="1071" on="1"/>
        <pt x="178" y="1071" on="1"/>
        <pt x="178" y="1122" on="1"/>
        <pt x="178" y="1221" on="0"/>
        <pt x="253" y="1395" on="0"/>
        <pt x="384" y="1524" on="0"/>
        <pt x="558" y="1599" on="0"/>
        <pt x="657" y="1599" on="1"/>
        <pt x="862" y="1599" on="1"/>
        <pt x="862" y="1327" on="1"/>
        <pt x="657" y="1327" on="1"/>
        <pt x="613" y="1327" on="0"/>
        <pt x="538" y="1296" on="0"/>
        <pt x="483" y="1241" on="0"/>
        <pt x="451" y="1166" on="0"/>
        <pt x="451" y="1122" on="1"/>
        <pt x="451" y="1071" on="1"/>
        <pt x="1229" y="1071" on="1"/>
        <pt x="1229" y="0" on="1"/>
        <pt x="954" y="0" on="1"/>
        <pt x="954" y="799" on="1"/>
        <pt x="451" y="799" on="1"/>
      </contour>
      <contour>
        <pt x="1276" y="1362" on="1"/>
        <pt x="1276" y="1324" on="0"/>
        <pt x="1247" y="1258" on="0"/>
        <pt x="1197" y="1209" on="0"/>
        <pt x="1130" y="1180" on="0"/>
        <pt x="1092" y="1180" on="1"/>
        <pt x="1054" y="1180" on="0"/>
        <pt x="987" y="1209" on="0"/>
        <pt x="938" y="1258" on="0"/>
        <pt x="909" y="1324" on="0"/>
        <pt x="909" y="1362" on="1"/>
        <pt x="909" y="1399" on="0"/>
        <pt x="938" y="1466" on="0"/>
        <pt x="987" y="1515" on="0"/>
        <pt x="1054" y="1544" on="0"/>
        <pt x="1092" y="1544" on="1"/>
        <pt x="1130" y="1544" on="0"/>
        <pt x="1197" y="1515" on="0"/>
        <pt x="1247" y="1466" on="0"/>
        <pt x="1276" y="1399" on="0"/>
      </contour>
    </TTGlyph>
    <TTGlyph name="five" xMin="100" yMin="0" xMax="1128" yMax="1434">
      <contour>
        <pt x="1128" y="451" on="1"/>
        <pt x="1128" y="346" on="0"/>
        <pt x="1054" y="178" on="0"/>
        <pt x="930" y="62" on="0"/>
        <pt x="767" y="0" on="0"/>
        <pt x="678" y="0" on="1"/>
        <pt x="100" y="0" on="1"/>
        <pt x="100" y="287" on="1"/>
        <pt x="678" y="287" on="1"/>
        <pt x="707" y="287" on="0"/>
        <pt x="766" y="305" on="0"/>
        <pt x="813" y="345" on="0"/>
        <pt x="842" y="407" on="0"/>
        <pt x="842" y="451" on="1"/>
        <pt x="842" y="491" on="0"/>
        <pt x="813" y="552" on="0"/>
        <pt x="766" y="593" on="0"/>
        <pt x="707" y="614" on="0"/>
        <pt x="678" y="614" on="1"/>
        <pt x="100" y="614" on="1"/>
        <pt x="184" y="1434" on="1"/>
        <pt x="1069" y="1434" on="1"/>
        <pt x="1069" y="1147" on="1"/>
        <pt x="442" y="1147" on="1"/>
        <pt x="416" y="901" on="1"/>
        <pt x="678" y="901" on="1"/>
        <pt x="767" y="901" on="0"/>
        <pt x="930" y="839" on="0"/>
        <pt x="1054" y="722" on="0"/>
        <pt x="1128" y="555" on="0"/>
      </contour>
    </TTGlyph>
    <TTGlyph name="fl" xMin="45" yMin="0" xMax="1192" yMax="1599">
      <contour>
        <pt x="451" y="0" on="1"/>
        <pt x="178" y="0" on="1"/>
        <pt x="178" y="799" on="1"/>
        <pt x="45" y="799" on="1"/>
        <pt x="45" y="1071" on="1"/>
        <pt x="178" y="1071" on="1"/>
        <pt x="178" y="1122" on="1"/>
        <pt x="178" y="1221" on="0"/>
        <pt x="253" y="1395" on="0"/>
        <pt x="384" y="1524" on="0"/>
        <pt x="558" y="1599" on="0"/>
        <pt x="657" y="1599" on="1"/>
        <pt x="1192" y="1599" on="1"/>
        <pt x="1190" y="0" on="1"/>
        <pt x="915" y="0" on="1"/>
        <pt x="915" y="1327" on="1"/>
        <pt x="657" y="1327" on="1"/>
        <pt x="613" y="1327" on="0"/>
        <pt x="538" y="1296" on="0"/>
        <pt x="483" y="1241" on="0"/>
        <pt x="451" y="1166" on="0"/>
        <pt x="451" y="1122" on="1"/>
        <pt x="451" y="1071" on="1"/>
        <pt x="786" y="1071" on="1"/>
        <pt x="786" y="799" on="1"/>
        <pt x="451" y="799" on="1"/>
      </contour>
    </TTGlyph>
    <TTGlyph name="four" xMin="59" yMin="0" xMax="1206" yMax="1434">
      <contour>
        <pt x="1206" y="287" on="1"/>
        <pt x="1063" y="287" on="1"/>
        <pt x="1063" y="0" on="1"/>
        <pt x="776" y="0" on="1"/>
        <pt x="776" y="287" on="1"/>
        <pt x="59" y="287" on="1"/>
        <pt x="219" y="1434" on="1"/>
        <pt x="506" y="1434" on="1"/>
        <pt x="381" y="573" on="1"/>
        <pt x="776" y="573" on="1"/>
        <pt x="776" y="1290" on="1"/>
        <pt x="1063" y="1290" on="1"/>
        <pt x="1063" y="573" on="1"/>
        <pt x="1206" y="573" on="1"/>
      </contour>
    </TTGlyph>
    <TTGlyph name="fraction" xMin="-14" yMin="0" xMax="991" yMax="1434">
      <contour>
        <pt x="203" y="0" on="1"/>
        <pt x="-14" y="0" on="1"/>
        <pt x="774" y="1434" on="1"/>
        <pt x="991" y="1434" on="1"/>
      </contour>
    </TTGlyph>
    <TTGlyph name="g" xMin="47" yMin="-410" xMax="1141" yMax="1112">
      <contour>
        <pt x="866" y="545" on="1"/>
        <pt x="866" y="601" on="0"/>
        <pt x="823" y="706" on="0"/>
        <pt x="749" y="787" on="0"/>
        <pt x="650" y="836" on="0"/>
        <pt x="594" y="836" on="1"/>
        <pt x="538" y="836" on="0"/>
        <pt x="439" y="798" on="0"/>
        <pt x="366" y="724" on="0"/>
        <pt x="324" y="615" on="0"/>
        <pt x="324" y="545" on="1"/>
        <pt x="324" y="478" on="0"/>
        <pt x="366" y="371" on="0"/>
        <pt x="439" y="295" on="0"/>
        <pt x="538" y="254" on="0"/>
        <pt x="594" y="254" on="1"/>
        <pt x="650" y="254" on="0"/>
        <pt x="749" y="303" on="0"/>
        <pt x="823" y="384" on="0"/>
        <pt x="866" y="489" on="0"/>
      </contour>
      <contour>
        <pt x="1141" y="135" on="1"/>
        <pt x="1141" y="22" on="0"/>
        <pt x="1055" y="-176" on="0"/>
        <pt x="906" y="-324" on="0"/>
        <pt x="707" y="-410" on="0"/>
        <pt x="594" y="-410" on="1"/>
        <pt x="457" y="-408" on="1"/>
        <pt x="457" y="-135" on="1"/>
        <pt x="592" y="-137" on="1"/>
        <pt x="656" y="-137" on="0"/>
        <pt x="746" y="-104" on="0"/>
        <pt x="808" y="-47" on="0"/>
        <pt x="845" y="27" on="0"/>
        <pt x="856" y="68" on="1"/>
        <pt x="840" y="42" on="0"/>
        <pt x="780" y="9" on="0"/>
        <pt x="707" y="-12" on="0"/>
        <pt x="628" y="-20" on="0"/>
        <pt x="594" y="-20" on="1"/>
        <pt x="481" y="-20" on="0"/>
        <pt x="282" y="58" on="0"/>
        <pt x="133" y="203" on="0"/>
        <pt x="47" y="413" on="0"/>
        <pt x="47" y="545" on="1"/>
        <pt x="47" y="666" on="0"/>
        <pt x="133" y="874" on="0"/>
        <pt x="282" y="1026" on="0"/>
        <pt x="481" y="1112" on="0"/>
        <pt x="594" y="1112" on="1"/>
        <pt x="646" y="1112" on="0"/>
        <pt x="748" y="1086" on="0"/>
        <pt x="844" y="1040" on="0"/>
        <pt x="931" y="978" on="0"/>
        <pt x="969" y="942" on="1"/>
        <pt x="1075" y="1069" on="1"/>
        <pt x="1141" y="1069" on="1"/>
      </contour>
    </TTGlyph>
    <TTGlyph name="gbreve" xMin="47" yMin="-410" xMax="1141" yMax="1481">
      <component glyphName="g" x="0" y="0" flags="0x204"/>
      <component glyphName="breve" x="358" y="92" flags="0x4"/>
    </TTGlyph>
    <TTGlyph name="gcircumflex" xMin="47" yMin="-410" xMax="1141" yMax="1568">
      <component glyphName="g" x="0" y="0" flags="0x204"/>
      <component glyphName="circumflex" x="313" y="143" flags="0x4"/>
    </TTGlyph>
    <TTGlyph name="gcommaaccent" xMin="47" yMin="-410" xMax="1141" yMax="1620">
      <component glyphName="g" x="0" y="0" flags="0x204"/>
      <component glyphName="uni0312" x="383" y="102" flags="0x4"/>
    </TTGlyph>
    <TTGlyph name="gdotaccent" xMin="47" yMin="-410" xMax="1141" yMax="1448">
      <component glyphName="g" x="0" y="0" flags="0x204"/>
      <component glyphName="dotaccent" x="453" y="92" flags="0x4"/>
    </TTGlyph>
    <TTGlyph name="germandbls" xMin="45" yMin="0" xMax="1651" yMax="1599">
      <contour>
        <pt x="666" y="0" on="1"/>
        <pt x="666" y="272" on="1"/>
        <pt x="1311" y="272" on="1"/>
        <pt x="1339" y="272" on="0"/>
        <pt x="1378" y="312" on="0"/>
        <pt x="1378" y="340" on="1"/>
        <pt x="1378" y="369" on="0"/>
        <pt x="1339" y="387" on="0"/>
        <pt x="1311" y="387" on="1"/>
        <pt x="924" y="387" on="1"/>
        <pt x="853" y="387" on="0"/>
        <pt x="729" y="441" on="0"/>
        <pt x="637" y="534" on="0"/>
        <pt x="584" y="658" on="0"/>
        <pt x="584" y="729" on="1"/>
        <pt x="584" y="800" on="0"/>
        <pt x="637" y="924" on="0"/>
        <pt x="729" y="1016" on="0"/>
        <pt x="853" y="1069" on="0"/>
        <pt x="924" y="1069" on="1"/>
        <pt x="938" y="1069" on="0"/>
        <pt x="982" y="1078" on="0"/>
        <pt x="1023" y="1105" on="0"/>
        <pt x="1053" y="1156" on="0"/>
        <pt x="1053" y="1198" on="1"/>
        <pt x="1053" y="1235" on="0"/>
        <pt x="1023" y="1284" on="0"/>
        <pt x="982" y="1314" on="0"/>
        <pt x="938" y="1327" on="0"/>
        <pt x="924" y="1327" on="1"/>
        <pt x="657" y="1327" on="1"/>
        <pt x="613" y="1327" on="0"/>
        <pt x="538" y="1296" on="0"/>
        <pt x="483" y="1241" on="0"/>
        <pt x="451" y="1166" on="0"/>
        <pt x="451" y="1122" on="1"/>
        <pt x="451" y="0" on="1"/>
        <pt x="178" y="0" on="1"/>
        <pt x="178" y="799" on="1"/>
        <pt x="45" y="799" on="1"/>
        <pt x="45" y="1071" on="1"/>
        <pt x="178" y="1071" on="1"/>
        <pt x="178" y="1122" on="1"/>
        <pt x="178" y="1221" on="0"/>
        <pt x="253" y="1395" on="0"/>
        <pt x="384" y="1524" on="0"/>
        <pt x="558" y="1599" on="0"/>
        <pt x="657" y="1599" on="1"/>
        <pt x="924" y="1599" on="1"/>
        <pt x="964" y="1599" on="0"/>
        <pt x="1054" y="1579" on="0"/>
        <pt x="1143" y="1538" on="0"/>
        <pt x="1225" y="1473" on="0"/>
        <pt x="1288" y="1384" on="0"/>
        <pt x="1325" y="1269" on="0"/>
        <pt x="1325" y="1198" on="1"/>
        <pt x="1325" y="1123" on="0"/>
        <pt x="1288" y="1005" on="0"/>
        <pt x="1225" y="916" on="0"/>
        <pt x="1143" y="854" on="0"/>
        <pt x="1054" y="815" on="0"/>
        <pt x="964" y="797" on="0"/>
        <pt x="924" y="797" on="1"/>
        <pt x="896" y="797" on="0"/>
        <pt x="856" y="757" on="0"/>
        <pt x="856" y="729" on="1"/>
        <pt x="856" y="700" on="0"/>
        <pt x="896" y="659" on="0"/>
        <pt x="924" y="659" on="1"/>
        <pt x="1311" y="659" on="1"/>
        <pt x="1381" y="659" on="0"/>
        <pt x="1504" y="612" on="0"/>
        <pt x="1597" y="528" on="0"/>
        <pt x="1651" y="410" on="0"/>
        <pt x="1651" y="340" on="1"/>
        <pt x="1651" y="269" on="0"/>
        <pt x="1597" y="146" on="0"/>
        <pt x="1504" y="53" on="0"/>
        <pt x="1381" y="0" on="0"/>
        <pt x="1311" y="0" on="1"/>
      </contour>
    </TTGlyph>
    <TTGlyph name="grave" xMin="0" yMin="1006" xMax="461" yMax="1432">
      <contour>
        <pt x="350" y="1006" on="1"/>
        <pt x="0" y="1223" on="1"/>
        <pt x="166" y="1432" on="1"/>
        <pt x="461" y="1155" on="1"/>
      </contour>
    </TTGlyph>
    <TTGlyph name="greater" xMin="100" yMin="188" xMax="918" yMax="1395">
      <contour>
        <pt x="100" y="1192" on="1"/>
        <pt x="315" y="1395" on="1"/>
        <pt x="918" y="768" on="1"/>
        <pt x="301" y="188" on="1"/>
        <pt x="102" y="410" on="1"/>
        <pt x="510" y="780" on="1"/>
      </contour>
    </TTGlyph>
    <TTGlyph name="guillemotleft" xMin="49" yMin="16" xMax="1360" yMax="1042">
      <contour>
        <pt x="397" y="520" on="1"/>
        <pt x="743" y="205" on="1"/>
        <pt x="573" y="16" on="1"/>
        <pt x="49" y="510" on="1"/>
        <pt x="561" y="1042" on="1"/>
        <pt x="745" y="870" on="1"/>
      </contour>
      <contour>
        <pt x="1012" y="520" on="1"/>
        <pt x="1358" y="205" on="1"/>
        <pt x="1188" y="16" on="1"/>
        <pt x="664" y="510" on="1"/>
        <pt x="1176" y="1042" on="1"/>
        <pt x="1360" y="870" on="1"/>
      </contour>
    </TTGlyph>
    <TTGlyph name="guillemotright" xMin="82" yMin="16" xMax="1391" yMax="1042">
      <contour>
        <pt x="82" y="870" on="1"/>
        <pt x="264" y="1042" on="1"/>
        <pt x="776" y="510" on="1"/>
        <pt x="252" y="16" on="1"/>
        <pt x="84" y="205" on="1"/>
        <pt x="430" y="520" on="1"/>
      </contour>
      <contour>
        <pt x="696" y="870" on="1"/>
        <pt x="879" y="1042" on="1"/>
        <pt x="1391" y="510" on="1"/>
        <pt x="866" y="16" on="1"/>
        <pt x="698" y="205" on="1"/>
        <pt x="1044" y="520" on="1"/>
      </contour>
    </TTGlyph>
    <TTGlyph name="guilsinglleft" xMin="49" yMin="16" xMax="745" yMax="1042">
      <contour>
        <pt x="397" y="520" on="1"/>
        <pt x="743" y="205" on="1"/>
        <pt x="573" y="16" on="1"/>
        <pt x="49" y="510" on="1"/>
        <pt x="561" y="1042" on="1"/>
        <pt x="745" y="870" on="1"/>
      </contour>
    </TTGlyph>
    <TTGlyph name="guilsinglright" xMin="82" yMin="16" xMax="776" yMax="1042">
      <contour>
        <pt x="82" y="870" on="1"/>
        <pt x="264" y="1042" on="1"/>
        <pt x="776" y="510" on="1"/>
        <pt x="252" y="16" on="1"/>
        <pt x="84" y="205" on="1"/>
        <pt x="430" y="520" on="1"/>
      </contour>
    </TTGlyph>
    <TTGlyph name="h" xMin="104" yMin="0" xMax="1061" yMax="1497">
      <contour>
        <pt x="377" y="0" on="1"/>
        <pt x="104" y="0" on="1"/>
        <pt x="104" y="1497" on="1"/>
        <pt x="377" y="1497" on="1"/>
        <pt x="377" y="1024" on="1"/>
        <pt x="426" y="1061" on="0"/>
        <pt x="530" y="1092" on="0"/>
        <pt x="584" y="1092" on="1"/>
        <pt x="683" y="1092" on="0"/>
        <pt x="857" y="1017" on="0"/>
        <pt x="986" y="886" on="0"/>
        <pt x="1061" y="711" on="0"/>
        <pt x="1061" y="612" on="1"/>
        <pt x="1061" y="0" on="1"/>
        <pt x="786" y="0" on="1"/>
        <pt x="786" y="612" on="1"/>
        <pt x="788" y="612" on="1"/>
        <pt x="788" y="654" on="0"/>
        <pt x="756" y="729" on="0"/>
        <pt x="700" y="785" on="0"/>
        <pt x="626" y="817" on="0"/>
        <pt x="584" y="817" on="1"/>
        <pt x="541" y="817" on="0"/>
        <pt x="465" y="785" on="0"/>
        <pt x="409" y="729" on="0"/>
        <pt x="377" y="654" on="0"/>
        <pt x="377" y="612" on="1"/>
      </contour>
    </TTGlyph>
    <TTGlyph name="hbar" xMin="2" yMin="0" xMax="1061" yMax="1497">
      <contour>
        <pt x="377" y="0" on="1"/>
        <pt x="104" y="0" on="1"/>
        <pt x="104" y="1182" on="1"/>
        <pt x="2" y="1182" on="1"/>
        <pt x="2" y="1434" on="1"/>
        <pt x="104" y="1434" on="1"/>
        <pt x="104" y="1497" on="1"/>
        <pt x="377" y="1497" on="1"/>
        <pt x="377" y="1434" on="1"/>
        <pt x="473" y="1434" on="1"/>
        <pt x="473" y="1182" on="1"/>
        <pt x="377" y="1182" on="1"/>
        <pt x="377" y="1024" on="1"/>
        <pt x="426" y="1061" on="0"/>
        <pt x="530" y="1092" on="0"/>
        <pt x="584" y="1092" on="1"/>
        <pt x="683" y="1092" on="0"/>
        <pt x="857" y="1017" on="0"/>
        <pt x="986" y="886" on="0"/>
        <pt x="1061" y="711" on="0"/>
        <pt x="1061" y="612" on="1"/>
        <pt x="1061" y="0" on="1"/>
        <pt x="786" y="0" on="1"/>
        <pt x="786" y="612" on="1"/>
        <pt x="788" y="612" on="1"/>
        <pt x="788" y="654" on="0"/>
        <pt x="756" y="729" on="0"/>
        <pt x="700" y="785" on="0"/>
        <pt x="626" y="817" on="0"/>
        <pt x="584" y="817" on="1"/>
        <pt x="541" y="817" on="0"/>
        <pt x="465" y="785" on="0"/>
        <pt x="409" y="729" on="0"/>
        <pt x="377" y="654" on="0"/>
        <pt x="377" y="612" on="1"/>
      </contour>
    </TTGlyph>
    <TTGlyph name="hcircumflex" xMin="104" yMin="0" xMax="1061" yMax="1548">
      <component glyphName="h" x="0" y="0" flags="0x204"/>
      <component glyphName="circumflex" x="424" y="123" flags="0x4"/>
    </TTGlyph>
    <TTGlyph name="hungarumlaut" xMin="0" yMin="1038" xMax="788" yMax="1538">
      <contour>
        <pt x="131" y="1083" on="1"/>
        <pt x="0" y="1210" on="1"/>
        <pt x="248" y="1538" on="1"/>
        <pt x="444" y="1356" on="1"/>
      </contour>
      <contour>
        <pt x="477" y="1038" on="1"/>
        <pt x="344" y="1165" on="1"/>
        <pt x="592" y="1489" on="1"/>
        <pt x="788" y="1307" on="1"/>
      </contour>
    </TTGlyph>
    <TTGlyph name="hyphen" xMin="121" yMin="588" xMax="961" yMax="860">
      <contour>
        <pt x="961" y="860" on="1"/>
        <pt x="961" y="588" on="1"/>
        <pt x="121" y="588" on="1"/>
        <pt x="121" y="860" on="1"/>
      </contour>
    </TTGlyph>
    <TTGlyph name="i" xMin="59" yMin="0" xMax="426" yMax="1544">
      <contour>
        <pt x="426" y="1362" on="1"/>
        <pt x="426" y="1324" on="0"/>
        <pt x="397" y="1258" on="0"/>
        <pt x="347" y="1209" on="0"/>
        <pt x="280" y="1180" on="0"/>
        <pt x="242" y="1180" on="1"/>
        <pt x="204" y="1180" on="0"/>
        <pt x="137" y="1209" on="0"/>
        <pt x="88" y="1258" on="0"/>
        <pt x="59" y="1324" on="0"/>
        <pt x="59" y="1362" on="1"/>
        <pt x="59" y="1399" on="0"/>
        <pt x="88" y="1466" on="0"/>
        <pt x="137" y="1515" on="0"/>
        <pt x="204" y="1544" on="0"/>
        <pt x="242" y="1544" on="1"/>
        <pt x="280" y="1544" on="0"/>
        <pt x="347" y="1515" on="0"/>
        <pt x="397" y="1466" on="0"/>
        <pt x="426" y="1399" on="0"/>
      </contour>
      <contour>
        <pt x="379" y="0" on="1"/>
        <pt x="104" y="0" on="1"/>
        <pt x="104" y="1071" on="1"/>
        <pt x="379" y="1071" on="1"/>
      </contour>
    </TTGlyph>
    <TTGlyph name="iacute" xMin="104" yMin="0" xMax="590" yMax="1577">
      <component glyphName="dotlessi" x="0" y="0" flags="0x204"/>
      <component glyphName="acute" x="129" y="145" flags="0x4"/>
    </TTGlyph>
    <TTGlyph name="ibreve" xMin="16" yMin="0" xMax="467" yMax="1438">
      <component glyphName="dotlessi" x="0" y="0" flags="0x204"/>
      <component glyphName="breve" x="16" y="49" flags="0x4"/>
    </TTGlyph>
    <TTGlyph name="icircumflex" xMin="-30" yMin="0" xMax="517" yMax="1542">
      <component glyphName="dotlessi" x="0" y="0" flags="0x204"/>
      <component glyphName="circumflex" x="-30" y="117" flags="0x4"/>
    </TTGlyph>
    <TTGlyph name="idieresis" xMin="-65" yMin="0" xMax="551" yMax="1400">
      <component glyphName="dotlessi" x="0" y="0" flags="0x204"/>
      <component glyphName="dieresis" x="-65" y="61" flags="0x4"/>
    </TTGlyph>
    <TTGlyph name="igrave" xMin="-108" yMin="0" xMax="379" yMax="1577">
      <component glyphName="dotlessi" x="0" y="0" flags="0x204"/>
      <component glyphName="grave" x="-108" y="145" flags="0x4"/>
    </TTGlyph>
    <TTGlyph name="ij" xMin="59" yMin="-408" xMax="913" yMax="1544">
      <component glyphName="i" x="0" y="0" flags="0x4"/>
      <component glyphName="j" x="483" y="0" flags="0x4"/>
    </TTGlyph>
    <TTGlyph name="imacron" xMin="-9" yMin="0" xMax="497" yMax="1368">
      <component glyphName="dotlessi" x="0" y="0" flags="0x204"/>
      <component glyphName="macron" x="-9" y="61" flags="0x4"/>
    </TTGlyph>
    <TTGlyph name="infinity" xMin="86" yMin="219" xMax="1495" yMax="1141">
      <contour>
        <pt x="788" y="373" on="1"/>
        <pt x="768" y="336" on="0"/>
        <pt x="700" y="280" on="0"/>
        <pt x="619" y="243" on="0"/>
        <pt x="532" y="225" on="0"/>
        <pt x="492" y="225" on="1"/>
        <pt x="408" y="225" on="0"/>
        <pt x="260" y="294" on="0"/>
        <pt x="150" y="416" on="0"/>
        <pt x="86" y="584" on="0"/>
        <pt x="86" y="682" on="1"/>
        <pt x="86" y="781" on="0"/>
        <pt x="150" y="949" on="0"/>
        <pt x="260" y="1072" on="0"/>
        <pt x="408" y="1141" on="0"/>
        <pt x="492" y="1141" on="1"/>
        <pt x="532" y="1141" on="0"/>
        <pt x="616" y="1116" on="0"/>
        <pt x="695" y="1073" on="0"/>
        <pt x="765" y="1015" on="0"/>
        <pt x="793" y="983" on="1"/>
        <pt x="818" y="1020" on="0"/>
        <pt x="887" y="1076" on="0"/>
        <pt x="965" y="1115" on="0"/>
        <pt x="1049" y="1135" on="0"/>
        <pt x="1090" y="1135" on="1"/>
        <pt x="1174" y="1135" on="0"/>
        <pt x="1321" y="1066" on="0"/>
        <pt x="1431" y="944" on="0"/>
        <pt x="1495" y="776" on="0"/>
        <pt x="1495" y="678" on="1"/>
        <pt x="1495" y="579" on="0"/>
        <pt x="1431" y="411" on="0"/>
        <pt x="1321" y="288" on="0"/>
        <pt x="1174" y="219" on="0"/>
        <pt x="1090" y="219" on="1"/>
        <pt x="1049" y="219" on="0"/>
        <pt x="965" y="244" on="0"/>
        <pt x="886" y="286" on="0"/>
        <pt x="816" y="342" on="0"/>
      </contour>
      <contour>
        <pt x="1090" y="500" on="1"/>
        <pt x="1124" y="500" on="0"/>
        <pt x="1176" y="532" on="0"/>
        <pt x="1210" y="583" on="0"/>
        <pt x="1227" y="645" on="0"/>
        <pt x="1227" y="676" on="1"/>
        <pt x="1227" y="716" on="0"/>
        <pt x="1200" y="782" on="0"/>
        <pt x="1155" y="827" on="0"/>
        <pt x="1093" y="852" on="0"/>
        <pt x="1059" y="852" on="1"/>
        <pt x="990" y="852" on="0"/>
        <pt x="913" y="779" on="0"/>
        <pt x="913" y="717" on="1"/>
        <pt x="913" y="683" on="0"/>
        <pt x="942" y="607" on="0"/>
        <pt x="991" y="542" on="0"/>
        <pt x="1055" y="500" on="0"/>
      </contour>
      <contour>
        <pt x="471" y="860" on="1"/>
        <pt x="450" y="860" on="0"/>
        <pt x="408" y="836" on="0"/>
        <pt x="375" y="790" on="0"/>
        <pt x="354" y="725" on="0"/>
        <pt x="354" y="684" on="1"/>
        <pt x="354" y="643" on="0"/>
        <pt x="381" y="578" on="0"/>
        <pt x="426" y="532" on="0"/>
        <pt x="487" y="508" on="0"/>
        <pt x="522" y="508" on="1"/>
        <pt x="564" y="508" on="0"/>
        <pt x="621" y="528" on="0"/>
        <pt x="654" y="560" on="0"/>
        <pt x="668" y="601" on="0"/>
        <pt x="668" y="623" on="1"/>
        <pt x="668" y="672" on="0"/>
        <pt x="632" y="758" on="0"/>
        <pt x="576" y="823" on="0"/>
        <pt x="505" y="860" on="0"/>
      </contour>
    </TTGlyph>
    <TTGlyph name="iogonek" xMin="43" yMin="-365" xMax="479" yMax="1544">
      <contour>
        <pt x="242" y="-365" on="1"/>
        <pt x="213" y="-365" on="0"/>
        <pt x="143" y="-341" on="0"/>
        <pt x="83" y="-295" on="0"/>
        <pt x="43" y="-225" on="0"/>
        <pt x="43" y="-180" on="1"/>
        <pt x="43" y="-127" on="0"/>
        <pt x="106" y="-37" on="0"/>
        <pt x="150" y="0" on="1"/>
        <pt x="104" y="0" on="1"/>
        <pt x="104" y="1071" on="1"/>
        <pt x="379" y="1071" on="1"/>
        <pt x="379" y="0" on="1"/>
        <pt x="305" y="0" on="1"/>
        <pt x="291" y="-17" on="0"/>
        <pt x="265" y="-54" on="0"/>
        <pt x="245" y="-90" on="0"/>
        <pt x="233" y="-123" on="0"/>
        <pt x="233" y="-135" on="1"/>
        <pt x="233" y="-151" on="0"/>
        <pt x="253" y="-176" on="0"/>
        <pt x="270" y="-176" on="1"/>
        <pt x="292" y="-176" on="0"/>
        <pt x="330" y="-147" on="0"/>
        <pt x="338" y="-127" on="1"/>
        <pt x="479" y="-258" on="1"/>
        <pt x="431" y="-306" on="0"/>
        <pt x="311" y="-365" on="0"/>
      </contour>
      <contour>
        <pt x="426" y="1362" on="1"/>
        <pt x="426" y="1324" on="0"/>
        <pt x="397" y="1258" on="0"/>
        <pt x="347" y="1209" on="0"/>
        <pt x="280" y="1180" on="0"/>
        <pt x="242" y="1180" on="1"/>
        <pt x="204" y="1180" on="0"/>
        <pt x="137" y="1209" on="0"/>
        <pt x="88" y="1258" on="0"/>
        <pt x="59" y="1324" on="0"/>
        <pt x="59" y="1362" on="1"/>
        <pt x="59" y="1399" on="0"/>
        <pt x="88" y="1466" on="0"/>
        <pt x="137" y="1515" on="0"/>
        <pt x="204" y="1544" on="0"/>
        <pt x="242" y="1544" on="1"/>
        <pt x="280" y="1544" on="0"/>
        <pt x="347" y="1515" on="0"/>
        <pt x="397" y="1466" on="0"/>
        <pt x="426" y="1399" on="0"/>
      </contour>
    </TTGlyph>
    <TTGlyph name="itilde" xMin="-87" yMin="0" xMax="572" yMax="1499">
      <component glyphName="dotlessi" x="0" y="0" flags="0x204"/>
      <component glyphName="tilde" x="-87" y="82" flags="0x4"/>
    </TTGlyph>
    <TTGlyph name="j" xMin="-303" yMin="-408" xMax="430" yMax="1544">
      <contour>
        <pt x="430" y="1362" on="1"/>
        <pt x="430" y="1324" on="0"/>
        <pt x="401" y="1258" on="0"/>
        <pt x="352" y="1209" on="0"/>
        <pt x="285" y="1180" on="0"/>
        <pt x="248" y="1180" on="1"/>
        <pt x="209" y="1180" on="0"/>
        <pt x="142" y="1209" on="0"/>
        <pt x="92" y="1258" on="0"/>
        <pt x="63" y="1324" on="0"/>
        <pt x="63" y="1362" on="1"/>
        <pt x="63" y="1399" on="0"/>
        <pt x="92" y="1466" on="0"/>
        <pt x="142" y="1515" on="0"/>
        <pt x="209" y="1544" on="0"/>
        <pt x="248" y="1544" on="1"/>
        <pt x="285" y="1544" on="0"/>
        <pt x="352" y="1515" on="0"/>
        <pt x="401" y="1466" on="0"/>
        <pt x="430" y="1399" on="0"/>
      </contour>
      <contour>
        <pt x="-303" y="-408" on="1"/>
        <pt x="-303" y="-133" on="1"/>
        <pt x="-152" y="-135" on="1"/>
        <pt x="-97" y="-135" on="0"/>
        <pt x="-3" y="-90" on="0"/>
        <pt x="66" y="-15" on="0"/>
        <pt x="106" y="83" on="0"/>
        <pt x="106" y="137" on="1"/>
        <pt x="106" y="1071" on="1"/>
        <pt x="385" y="1071" on="1"/>
        <pt x="385" y="137" on="1"/>
        <pt x="383" y="137" on="1"/>
        <pt x="382" y="62" on="0"/>
        <pt x="343" y="-78" on="0"/>
        <pt x="271" y="-199" on="0"/>
        <pt x="171" y="-298" on="0"/>
        <pt x="50" y="-369" on="0"/>
        <pt x="-89" y="-408" on="0"/>
        <pt x="-164" y="-408" on="1"/>
      </contour>
    </TTGlyph>
    <TTGlyph name="jcircumflex" xMin="-303" yMin="-408" xMax="519" yMax="1527">
      <component glyphName="dotlessj" x="0" y="0" flags="0x204"/>
      <component glyphName="circumflex" x="-28" y="102" flags="0x4"/>
    </TTGlyph>
    <TTGlyph name="k" xMin="104" yMin="0" xMax="1100" yMax="1497">
      <contour>
        <pt x="379" y="0" on="1"/>
        <pt x="104" y="0" on="1"/>
        <pt x="104" y="1497" on="1"/>
        <pt x="379" y="1497" on="1"/>
        <pt x="379" y="553" on="1"/>
        <pt x="786" y="1069" on="1"/>
        <pt x="1100" y="1069" on="1"/>
        <pt x="745" y="623" on="1"/>
        <pt x="1100" y="0" on="1"/>
        <pt x="786" y="0" on="1"/>
        <pt x="569" y="389" on="1"/>
        <pt x="379" y="137" on="1"/>
      </contour>
    </TTGlyph>
    <TTGlyph name="kcommaaccent" xMin="104" yMin="-526" xMax="1100" yMax="1497">
      <component glyphName="k" x="0" y="0" flags="0x204"/>
      <component glyphName="uni0326" x="352" y="0" flags="0x4"/>
    </TTGlyph>
    <TTGlyph name="kgreenlandic" xMin="104" yMin="0" xMax="1100" yMax="1077">
      <contour>
        <pt x="379" y="0" on="1"/>
        <pt x="104" y="0" on="1"/>
        <pt x="104" y="1077" on="1"/>
        <pt x="379" y="1077" on="1"/>
        <pt x="379" y="553" on="1"/>
        <pt x="786" y="1069" on="1"/>
        <pt x="1100" y="1069" on="1"/>
        <pt x="745" y="623" on="1"/>
        <pt x="1100" y="0" on="1"/>
        <pt x="786" y="0" on="1"/>
        <pt x="569" y="389" on="1"/>
        <pt x="379" y="137" on="1"/>
      </contour>
    </TTGlyph>
    <TTGlyph name="l" xMin="104" yMin="0" xMax="379" yMax="1497">
      <contour>
        <pt x="379" y="0" on="1"/>
        <pt x="104" y="0" on="1"/>
        <pt x="104" y="1497" on="1"/>
        <pt x="379" y="1497" on="1"/>
      </contour>
    </TTGlyph>
    <TTGlyph name="lacute" xMin="104" yMin="0" xMax="656" yMax="2001">
      <component glyphName="l" x="0" y="0" flags="0x204"/>
      <component glyphName="acute" x="195" y="569" flags="0x4"/>
    </TTGlyph>
    <TTGlyph name="lcaron" xMin="104" yMin="0" xMax="755" yMax="1497">
      <component glyphName="l" x="0" y="0" flags="0x4"/>
      <component glyphName="uni0315" x="483" y="0" flags="0x4"/>
    </TTGlyph>
    <TTGlyph name="lcommaaccent" xMin="104" yMin="-526" xMax="379" yMax="1497">
      <component glyphName="l" x="0" y="0" flags="0x204"/>
      <component glyphName="uni0326" x="43" y="0" flags="0x4"/>
    </TTGlyph>
    <TTGlyph name="ldotaccent" xMin="104" yMin="0" xMax="854" yMax="1497">
      <component glyphName="l" x="0" y="0" flags="0x4"/>
      <component glyphName="periodcentered" x="416" y="0" flags="0x4"/>
    </TTGlyph>
    <TTGlyph name="less" xMin="61" yMin="188" xMax="879" yMax="1395">
      <contour>
        <pt x="469" y="780" on="1"/>
        <pt x="877" y="410" on="1"/>
        <pt x="678" y="188" on="1"/>
        <pt x="61" y="768" on="1"/>
        <pt x="664" y="1395" on="1"/>
        <pt x="879" y="1192" on="1"/>
      </contour>
    </TTGlyph>
    <TTGlyph name="logicalnot" xMin="121" yMin="387" xMax="961" yMax="860">
      <contour>
        <pt x="961" y="860" on="1"/>
        <pt x="958" y="387" on="1"/>
        <pt x="686" y="387" on="1"/>
        <pt x="686" y="588" on="1"/>
        <pt x="121" y="588" on="1"/>
        <pt x="121" y="860" on="1"/>
      </contour>
    </TTGlyph>
    <TTGlyph name="lslash" xMin="20" yMin="0" xMax="635" yMax="1497">
      <contour>
        <pt x="184" y="782" on="1"/>
        <pt x="184" y="1497" on="1"/>
        <pt x="459" y="1497" on="1"/>
        <pt x="459" y="930" on="1"/>
        <pt x="635" y="1024" on="1"/>
        <pt x="635" y="752" on="1"/>
        <pt x="459" y="657" on="1"/>
        <pt x="459" y="0" on="1"/>
        <pt x="184" y="0" on="1"/>
        <pt x="184" y="510" on="1"/>
        <pt x="20" y="424" on="1"/>
        <pt x="20" y="696" on="1"/>
      </contour>
    </TTGlyph>
    <TTGlyph name="m" xMin="104" yMin="0" xMax="1466" yMax="1090">
      <contour>
        <pt x="1466" y="0" on="1"/>
        <pt x="1194" y="0" on="1"/>
        <pt x="1194" y="680" on="1"/>
        <pt x="1194" y="708" on="0"/>
        <pt x="1173" y="758" on="0"/>
        <pt x="1135" y="796" on="0"/>
        <pt x="1085" y="817" on="0"/>
        <pt x="1057" y="817" on="1"/>
        <pt x="1029" y="817" on="0"/>
        <pt x="980" y="796" on="0"/>
        <pt x="943" y="758" on="0"/>
        <pt x="922" y="708" on="0"/>
        <pt x="922" y="680" on="1"/>
        <pt x="922" y="0" on="1"/>
        <pt x="649" y="0" on="1"/>
        <pt x="649" y="680" on="1"/>
        <pt x="649" y="708" on="0"/>
        <pt x="628" y="758" on="0"/>
        <pt x="590" y="796" on="0"/>
        <pt x="540" y="817" on="0"/>
        <pt x="512" y="817" on="1"/>
        <pt x="484" y="817" on="0"/>
        <pt x="435" y="796" on="0"/>
        <pt x="398" y="758" on="0"/>
        <pt x="377" y="708" on="0"/>
        <pt x="377" y="680" on="1"/>
        <pt x="377" y="0" on="1"/>
        <pt x="104" y="0" on="1"/>
        <pt x="104" y="1071" on="1"/>
        <pt x="170" y="1071" on="1"/>
        <pt x="244" y="989" on="1"/>
        <pt x="301" y="1037" on="0"/>
        <pt x="438" y="1090" on="0"/>
        <pt x="512" y="1090" on="1"/>
        <pt x="587" y="1090" on="0"/>
        <pt x="730" y="1034" on="0"/>
        <pt x="784" y="965" on="1"/>
        <pt x="809" y="999" on="0"/>
        <pt x="873" y="1047" on="0"/>
        <pt x="944" y="1077" on="0"/>
        <pt x="1020" y="1090" on="0"/>
        <pt x="1057" y="1090" on="1"/>
        <pt x="1142" y="1090" on="0"/>
        <pt x="1291" y="1026" on="0"/>
        <pt x="1402" y="915" on="0"/>
        <pt x="1466" y="765" on="0"/>
        <pt x="1466" y="680" on="1"/>
      </contour>
    </TTGlyph>
    <TTGlyph name="macron" xMin="0" yMin="1096" xMax="506" yMax="1307">
      <contour>
        <pt x="0" y="1096" on="1"/>
        <pt x="0" y="1307" on="1"/>
        <pt x="506" y="1307" on="1"/>
        <pt x="506" y="1096" on="1"/>
      </contour>
    </TTGlyph>
    <TTGlyph name="minus" xMin="137" yMin="588" xMax="977" yMax="860">
      <contour>
        <pt x="977" y="860" on="1"/>
        <pt x="977" y="588" on="1"/>
        <pt x="137" y="588" on="1"/>
        <pt x="137" y="860" on="1"/>
      </contour>
    </TTGlyph>
    <TTGlyph name="mu" xMin="125" yMin="-451" xMax="1081" yMax="1071">
      <contour>
        <pt x="397" y="479" on="1"/>
        <pt x="397" y="425" on="0"/>
        <pt x="429" y="340" on="0"/>
        <pt x="485" y="282" on="0"/>
        <pt x="561" y="252" on="0"/>
        <pt x="604" y="252" on="1"/>
        <pt x="646" y="252" on="0"/>
        <pt x="721" y="291" on="0"/>
        <pt x="777" y="355" on="0"/>
        <pt x="809" y="436" on="0"/>
        <pt x="809" y="479" on="1"/>
        <pt x="809" y="1071" on="1"/>
        <pt x="1081" y="1071" on="1"/>
        <pt x="1081" y="0" on="1"/>
        <pt x="1016" y="0" on="1"/>
        <pt x="926" y="125" on="1"/>
        <pt x="893" y="95" on="0"/>
        <pt x="818" y="42" on="0"/>
        <pt x="736" y="3" on="0"/>
        <pt x="649" y="-20" on="0"/>
        <pt x="604" y="-20" on="1"/>
        <pt x="539" y="-20" on="0"/>
        <pt x="419" y="10" on="0"/>
        <pt x="367" y="39" on="1"/>
        <pt x="338" y="-451" on="1"/>
        <pt x="125" y="-451" on="1"/>
        <pt x="125" y="1071" on="1"/>
        <pt x="397" y="1071" on="1"/>
      </contour>
    </TTGlyph>
    <TTGlyph name="multiply" xMin="94" yMin="332" xMax="889" yMax="1126">
      <contour>
        <pt x="295" y="340" on="1"/>
        <pt x="102" y="532" on="1"/>
        <pt x="295" y="725" on="1"/>
        <pt x="94" y="926" on="1"/>
        <pt x="287" y="1118" on="1"/>
        <pt x="487" y="918" on="1"/>
        <pt x="696" y="1126" on="1"/>
        <pt x="889" y="932" on="1"/>
        <pt x="680" y="725" on="1"/>
        <pt x="881" y="524" on="1"/>
        <pt x="688" y="332" on="1"/>
        <pt x="487" y="532" on="1"/>
      </contour>
    </TTGlyph>
    <TTGlyph name="n" xMin="104" yMin="0" xMax="1061" yMax="1092">
      <contour>
        <pt x="377" y="0" on="1"/>
        <pt x="104" y="0" on="1"/>
        <pt x="104" y="1071" on="1"/>
        <pt x="170" y="1071" on="1"/>
        <pt x="260" y="967" on="1"/>
        <pt x="326" y="1027" on="0"/>
        <pt x="493" y="1092" on="0"/>
        <pt x="584" y="1092" on="1"/>
        <pt x="682" y="1092" on="0"/>
        <pt x="856" y="1017" on="0"/>
        <pt x="986" y="886" on="0"/>
        <pt x="1061" y="711" on="0"/>
        <pt x="1061" y="612" on="1"/>
        <pt x="1061" y="0" on="1"/>
        <pt x="788" y="0" on="1"/>
        <pt x="788" y="612" on="1"/>
        <pt x="788" y="654" on="0"/>
        <pt x="756" y="729" on="0"/>
        <pt x="700" y="785" on="0"/>
        <pt x="626" y="817" on="0"/>
        <pt x="584" y="817" on="1"/>
        <pt x="541" y="817" on="0"/>
        <pt x="465" y="785" on="0"/>
        <pt x="409" y="729" on="0"/>
        <pt x="377" y="654" on="0"/>
        <pt x="377" y="612" on="1"/>
      </contour>
    </TTGlyph>
    <TTGlyph name="nacute" xMin="104" yMin="0" xMax="1061" yMax="1616">
      <component glyphName="n" x="0" y="0" flags="0x204"/>
      <component glyphName="acute" x="508" y="184" flags="0x4"/>
    </TTGlyph>
    <TTGlyph name="napostrophe" xMin="0" yMin="0" xMax="1333" yMax="1436">
      <component glyphName="uni0315" x="0" y="0" flags="0x4"/>
      <component glyphName="n" x="272" y="0" flags="0x4"/>
    </TTGlyph>
    <TTGlyph name="ncaron" xMin="104" yMin="0" xMax="1061" yMax="1569">
      <component glyphName="n" x="0" y="0" flags="0x204"/>
      <component glyphName="caron" x="301" y="123" flags="0x4"/>
    </TTGlyph>
    <TTGlyph name="ncommaaccent" xMin="104" yMin="-526" xMax="1061" yMax="1092">
      <component glyphName="n" x="0" y="0" flags="0x204"/>
      <component glyphName="uni0326" x="377" y="0" flags="0x4"/>
    </TTGlyph>
    <TTGlyph name="nine" xMin="70" yMin="0" xMax="1184" yMax="1475">
      <contour>
        <pt x="1184" y="907" on="1"/>
        <pt x="1184" y="769" on="0"/>
        <pt x="1129" y="506" on="0"/>
        <pt x="1025" y="272" on="0"/>
        <pt x="875" y="74" on="0"/>
        <pt x="780" y="0" on="1"/>
        <pt x="393" y="0" on="1"/>
        <pt x="454" y="39" on="0"/>
        <pt x="568" y="135" on="0"/>
        <pt x="671" y="245" on="0"/>
        <pt x="759" y="367" on="0"/>
        <pt x="793" y="432" on="1"/>
        <pt x="749" y="403" on="0"/>
        <pt x="649" y="362" on="0"/>
        <pt x="596" y="362" on="1"/>
        <pt x="474" y="362" on="0"/>
        <pt x="280" y="443" on="0"/>
        <pt x="143" y="588" on="0"/>
        <pt x="70" y="788" on="0"/>
        <pt x="70" y="907" on="1"/>
        <pt x="70" y="1023" on="0"/>
        <pt x="153" y="1230" on="0"/>
        <pt x="299" y="1385" on="0"/>
        <pt x="499" y="1475" on="0"/>
        <pt x="616" y="1475" on="1"/>
        <pt x="734" y="1475" on="0"/>
        <pt x="941" y="1385" on="0"/>
        <pt x="1095" y="1230" on="0"/>
        <pt x="1184" y="1023" on="0"/>
      </contour>
      <contour>
        <pt x="877" y="907" on="1"/>
        <pt x="877" y="962" on="0"/>
        <pt x="839" y="1064" on="0"/>
        <pt x="770" y="1142" on="0"/>
        <pt x="674" y="1188" on="0"/>
        <pt x="616" y="1188" on="1"/>
        <pt x="557" y="1188" on="0"/>
        <pt x="462" y="1143" on="0"/>
        <pt x="394" y="1067" on="0"/>
        <pt x="358" y="965" on="0"/>
        <pt x="358" y="907" on="1"/>
        <pt x="358" y="850" on="0"/>
        <pt x="394" y="749" on="0"/>
        <pt x="462" y="673" on="0"/>
        <pt x="557" y="629" on="0"/>
        <pt x="616" y="629" on="1"/>
        <pt x="675" y="629" on="0"/>
        <pt x="772" y="673" on="0"/>
        <pt x="840" y="749" on="0"/>
        <pt x="877" y="850" on="0"/>
      </contour>
    </TTGlyph>
    <TTGlyph name="notequal" xMin="102" yMin="82" xMax="942" yMax="1331">
      <contour>
        <pt x="379" y="655" on="1"/>
        <pt x="432" y="793" on="1"/>
        <pt x="102" y="793" on="1"/>
        <pt x="102" y="1065" on="1"/>
        <pt x="535" y="1065" on="1"/>
        <pt x="635" y="1331" on="1"/>
        <pt x="889" y="1331" on="1"/>
        <pt x="788" y="1065" on="1"/>
        <pt x="942" y="1065" on="1"/>
        <pt x="942" y="793" on="1"/>
        <pt x="686" y="793" on="1"/>
        <pt x="633" y="655" on="1"/>
        <pt x="942" y="655" on="1"/>
        <pt x="942" y="383" on="1"/>
        <pt x="530" y="383" on="1"/>
        <pt x="418" y="82" on="1"/>
        <pt x="164" y="82" on="1"/>
        <pt x="276" y="383" on="1"/>
        <pt x="102" y="383" on="1"/>
        <pt x="102" y="655" on="1"/>
      </contour>
    </TTGlyph>
    <TTGlyph name="ntilde" xMin="104" yMin="0" xMax="1061" yMax="1505">
      <component glyphName="n" x="0" y="0" flags="0x204"/>
      <component glyphName="tilde" x="252" y="88" flags="0x4"/>
    </TTGlyph>
    <TTGlyph name="numbersign" xMin="68" yMin="231" xMax="1081" yMax="1182">
      <contour>
        <pt x="1024" y="780" on="1"/>
        <pt x="895" y="780" on="1"/>
        <pt x="852" y="627" on="1"/>
        <pt x="983" y="627" on="1"/>
        <pt x="924" y="420" on="1"/>
        <pt x="793" y="420" on="1"/>
        <pt x="743" y="231" on="1"/>
        <pt x="508" y="231" on="1"/>
        <pt x="559" y="420" on="1"/>
        <pt x="432" y="420" on="1"/>
        <pt x="381" y="231" on="1"/>
        <pt x="145" y="231" on="1"/>
        <pt x="199" y="420" on="1"/>
        <pt x="68" y="420" on="1"/>
        <pt x="127" y="627" on="1"/>
        <pt x="256" y="627" on="1"/>
        <pt x="299" y="780" on="1"/>
        <pt x="168" y="780" on="1"/>
        <pt x="225" y="987" on="1"/>
        <pt x="356" y="987" on="1"/>
        <pt x="410" y="1182" on="1"/>
        <pt x="643" y="1182" on="1"/>
        <pt x="590" y="987" on="1"/>
        <pt x="717" y="987" on="1"/>
        <pt x="772" y="1182" on="1"/>
        <pt x="1006" y="1182" on="1"/>
        <pt x="950" y="987" on="1"/>
        <pt x="1081" y="987" on="1"/>
      </contour>
      <contour>
        <pt x="532" y="780" on="1"/>
        <pt x="489" y="627" on="1"/>
        <pt x="618" y="627" on="1"/>
        <pt x="662" y="780" on="1"/>
      </contour>
    </TTGlyph>
</ttFont>
